<svg width="305" height="145" viewBox="0 0 305 145" fill="none" xmlns="http://www.w3.org/2000/svg">
<path d="M381.472 115.146H5.04651C2.25985 115.146 0 117.407 0 120.195C0 122.981 2.25985 125.239 5.04651 125.239H99.0384C101.823 125.239 104.091 127.507 104.091 130.293C104.091 133.078 101.823 135.328 99.0384 135.328H76.1419C73.3558 135.328 71.0952 137.588 71.0952 140.376C71.0952 143.163 73.3558 145.422 76.1419 145.422H289.953C292.739 145.422 295 143.163 295 140.376C295 137.588 292.739 135.328 289.953 135.328H213.851C211.066 135.328 208.799 133.078 208.799 130.293C208.799 127.507 211.066 125.239 213.851 125.239H381.472C384.258 125.239 386.518 122.981 386.518 120.195C386.518 117.407 384.258 115.146 381.472 115.146Z" fill="#839E9C"/>
<path d="M90.2284 115.164H162.661V46.7593H90.2284V115.164Z" fill="#6D8786"/>
<path d="M101.649 115.164H124.65V76.9165H101.649V115.164Z" fill="white"/>
<path d="M106.881 115.164H119.418V81.5517H106.881V115.164Z" fill="#2D3635"/>
<path d="M95.4955 115.199H96.6587V115.164H95.4955V115.199Z" fill="#516E6E"/>
<path d="M95.4955 109.528V96.4791C95.4955 95.3164 94.8488 94.3107 93.8829 93.7467C93.6605 93.6094 93.4216 93.4982 93.1696 93.4143C93.1643 93.2474 93.1292 93.0856 93.0692 92.9382H93.3818C95.1924 92.9382 96.6589 94.4052 96.6589 96.2147V108.027L95.4955 109.528Z" fill="#445E5E"/>
<path d="M90.2284 54.7119H130.451V51.5491H90.2284V54.7119Z" fill="#445E5E"/>
<path d="M86.6396 51.5488H162.661V45.9513H86.6396V51.5488Z" fill="white"/>
<path d="M86.6396 48.0295H130.452V45.9515H86.6396V48.0295Z" fill="#EBECF2"/>
<path d="M101.65 115.164H96.6591V108.027L101.65 101.59V115.164ZM130.452 114.109H129.156V113.872H130.452V114.109ZM130.452 111.897H129.156V111.751H130.452V111.897ZM130.452 109.776H129.156V109.633H130.452V109.776ZM130.452 107.652H129.156V107.505H130.452V107.652ZM130.452 105.529H129.156V105.033H124.65V76.9165H120.779L129.955 65.0825H130.452V105.529Z" fill="#445E5E"/>
<path d="M104.944 115.164H101.649V101.59L106.881 94.8433V105.529H104.944V107.505H106.881V107.652H104.944V109.627V109.633H106.881V109.776H104.944V111.751H106.881V111.897H104.944V113.872H106.881V114.109H104.944V115.164ZM124.65 105.033H123.384C123.705 104.497 123.924 103.87 124.007 103.193C124.315 103.106 124.539 102.829 124.539 102.502C124.539 102.166 124.305 101.883 123.987 101.802C123.679 99.7953 122.185 98.2748 120.393 98.2748C120.056 98.2748 119.729 98.3295 119.418 98.4299V81.5517H117.187L120.779 76.9165H124.65V105.033Z" fill="#9EB2B3"/>
<path d="M111.471 114.109H109.316L109.345 113.872H111.471V114.109ZM107.563 114.109H106.881V113.872H107.563V114.109ZM111.471 111.897H109.421L109.48 111.751H111.471V111.897ZM109.248 111.897H108.299V111.751H109.307L109.248 111.897ZM107.563 111.897H106.881V111.751H107.563V111.897ZM108.699 109.776H108.299V109.633H108.7L108.699 109.776ZM107.563 109.776H106.881V109.633H107.563V109.776ZM111.471 107.652H108.299V107.506H111.471V107.652ZM107.563 107.652H106.881V107.506H107.563V107.652ZM111.471 105.529H108.299V105.342C108.299 105.136 108.135 104.972 107.93 104.972C107.727 104.972 107.563 105.136 107.563 105.342V105.529H106.881V94.8435L117.187 81.5519H119.418V98.4301C117.873 98.9306 116.74 100.594 116.74 102.571C116.74 103.487 116.984 104.336 117.4 105.033H111.471V105.529Z" fill="#1C2625"/>
<path d="M96.6588 115.164H95.4955V109.528L96.6588 108.027V115.164Z" fill="#2A4242"/>
<path d="M295.358 115.164H367.791V24.5985H295.358V115.164Z" fill="#404D4C"/>
<path d="M295.358 28.0217H367.791V24.5985H295.358V28.0217Z" fill="#283635"/>
<path d="M295.358 24.5571H371.378V18.9596H295.358V24.5571Z" fill="white"/>
<path d="M367.791 115.164H356.43V76.9165H306.718V104.983C306.464 105.304 306.247 105.661 306.069 106.048H306.067C306.05 106.087 306.032 106.125 306.015 106.165C306.003 106.194 305.991 106.223 305.98 106.252H305.903C305.898 106.218 305.894 106.186 305.886 106.152C305.781 105.672 305.439 105.302 305.01 105.142L305.086 104.899C305.086 104.899 304.979 104.722 304.676 104.674C304.737 104.581 304.775 104.471 304.783 104.354C304.797 104.13 304.705 103.928 304.549 103.791C304.72 103.677 304.839 103.489 304.854 103.267C304.87 103.044 304.777 102.842 304.623 102.707C304.793 102.59 304.912 102.403 304.929 102.181C304.955 101.801 304.666 101.472 304.287 101.445C304.275 101.445 304.262 101.445 304.249 101.443L304.139 101.431C303.985 101.416 303.833 101.408 303.683 101.408C302.663 101.408 301.708 101.743 300.931 102.315L300.903 102.135L300.644 101.948L300.65 101.934L300.627 101.936L300.429 102.212L300.504 102.672C300.445 102.729 300.387 102.786 300.33 102.845C299.64 103.567 299.177 104.518 299.072 105.591C299.072 105.595 299.072 105.599 299.072 105.603C298.827 108.146 300.69 110.409 303.234 110.658L303.424 110.674V110.675H305.195H305.959L306.718 111.402V113.77L305.469 115.164H295.358V71.2952V65.0913L300.65 65.0825V65.0569V64.2366V59.2792H295.358V32.9208V28.0217H299.328L367.791 45.952V83.5875C365.769 84.5934 364.325 86.5869 364.09 88.9378C364.09 88.9426 364.09 88.9486 364.089 88.9533C364.089 88.9545 364.089 88.9545 364.089 88.9562C364.089 88.9604 364.087 88.967 364.087 88.9711C364.087 88.9729 364.087 88.9729 364.087 88.9729C364.086 88.9895 364.084 89.0063 364.083 89.0228C364.083 89.0247 364.083 89.0247 364.083 89.0247C364.083 89.0306 364.081 89.0353 364.081 89.0394C364.081 89.0412 364.081 89.0431 364.081 89.0443C364.081 89.049 364.08 89.0531 364.08 89.0578C364.08 89.0597 364.08 89.0609 364.08 89.0638C364.08 89.0674 364.078 89.0715 364.078 89.0762C364.078 89.0775 364.078 89.0811 364.078 89.0823C364.077 89.0959 364.075 89.1096 364.075 89.1233C364.075 89.1263 364.075 89.1292 364.074 89.1329C364.074 89.1357 364.074 89.1388 364.074 89.1435C364.074 89.1464 364.074 89.1494 364.074 89.1507C364.072 89.1554 364.072 89.1584 364.072 89.1631C364.072 89.166 364.072 89.1691 364.072 89.172C364.072 89.175 364.071 89.1779 364.071 89.1815C364.071 89.1844 364.071 89.1875 364.071 89.1904C364.071 89.1965 364.069 89.2024 364.069 89.2089C364.069 89.2118 364.069 89.2159 364.069 89.2196C364.069 89.2225 364.069 89.2255 364.068 89.2284C364.068 89.2315 364.068 89.2362 364.068 89.2392C364.068 89.2421 364.068 89.2452 364.068 89.248C364.068 89.2529 364.066 89.2558 364.066 89.2605C364.066 89.2617 364.066 89.2648 364.066 89.2677C364.066 89.2725 364.066 89.2773 364.066 89.2802C364.066 89.2832 364.065 89.285 364.065 89.2879C364.065 89.2938 364.065 89.2998 364.065 89.3057C364.065 89.3075 364.065 89.3106 364.065 89.3123C364.065 89.3165 364.063 89.3212 364.063 89.3272C364.063 89.329 364.063 89.3319 364.063 89.3349C364.063 89.3397 364.063 89.3425 364.063 89.3474C364.063 89.3503 364.063 89.3533 364.063 89.3546C364.062 89.3593 364.062 89.364 364.062 89.367C364.062 89.3699 364.062 89.373 364.062 89.3746C364.062 89.3789 364.062 89.3836 364.062 89.3883C364.062 89.3896 364.062 89.3926 364.062 89.3955C364.06 89.402 364.06 89.408 364.06 89.4139C364.06 89.4157 364.06 89.4186 364.06 89.4198C364.06 89.4247 364.06 89.4307 364.06 89.4354C364.06 89.4372 364.06 89.4383 364.06 89.4413C364.06 89.446 364.06 89.4507 364.06 89.455C364.06 89.4567 364.059 89.4597 364.059 89.4628C364.059 89.4675 364.059 89.4704 364.059 89.4752C364.059 89.4781 364.059 89.4793 364.059 89.4822C364.059 89.4888 364.059 89.493 364.059 89.4996C364.059 89.5008 364.059 89.5008 364.059 89.5025C364.059 89.5084 364.059 89.5162 364.059 89.5221C364.059 89.5239 364.059 89.5268 364.059 89.528C364.059 89.5327 364.059 89.5376 364.059 89.5417C364.059 89.5448 364.059 89.5477 364.059 89.5495C364.059 89.5542 364.059 89.5583 364.059 89.5632C364.057 89.5649 364.057 89.5679 364.057 89.5708C364.057 89.5757 364.057 89.5798 364.057 89.5845C364.057 89.5857 364.057 89.5894 364.057 89.5904C364.057 89.5964 364.057 89.6041 364.057 89.6101C364.057 90.05 364.103 90.4791 364.183 90.8963C362.969 91.0039 362.013 92.0251 362.013 93.2686C362.013 94.2512 362.61 95.0959 363.461 95.4597C362.879 96.0956 362.526 96.9356 362.526 97.867C362.526 99.8374 364.125 101.44 366.099 101.44C366.711 101.44 367.286 101.285 367.791 101.014V115.164ZM306.718 115.164H306.361L306.718 114.767V115.164Z" fill="#283635"/>
<path d="M130.452 115.164H295.358V9.19679H130.452V115.164Z" fill="#52969E"/>
<path d="M162.087 115.164H263.721V62.9225H162.087V115.164Z" fill="#404D4C"/>
<path d="M130.452 62.5188H295.358V42.1002H130.452V62.5188Z" fill="#404D4C"/>
<path d="M130.452 43.7864H295.358V40.3596H130.452V43.7864Z" fill="white"/>
<path d="M146.628 60.6431H147.631V43.1294H146.628V60.6431Z" fill="white"/>
<path d="M168.552 60.6431H169.555V43.1294H168.552V60.6431Z" fill="white"/>
<path d="M190.479 60.6431H191.48V43.1294H190.479V60.6431Z" fill="white"/>
<path d="M212.403 60.6431H213.405V43.1294H212.403V60.6431Z" fill="white"/>
<path d="M234.329 60.6431H235.329V43.1294H234.329V60.6431Z" fill="white"/>
<path d="M256.254 60.6431H257.255V43.1294H256.254V60.6431Z" fill="white"/>
<path d="M278.176 60.6431H279.179V43.1294H278.176V60.6431Z" fill="white"/>
<path d="M181.513 79.3513H182.515V65.542H181.513V79.3513Z" fill="white"/>
<path d="M203.437 79.3513H204.438V65.542H203.437V79.3513Z" fill="white"/>
<path d="M225.363 79.3513H226.364V65.542H225.363V79.3513Z" fill="white"/>
<path d="M247.288 79.3513H248.29V65.542H247.288V79.3513Z" fill="white"/>
<path d="M207.315 45.5242H191.48V43.7861H201.499L207.315 45.5242ZM190.479 45.5242H169.556V43.7861H190.479V45.5242ZM168.553 45.5242H147.631V43.7861H168.553V45.5242ZM146.629 45.5242H130.452V43.7861H146.629V45.5242Z" fill="#283635"/>
<path d="M146.628 45.5242H147.631V43.7861H146.628V45.5242Z" fill="#9EB2B3"/>
<path d="M168.552 45.5242H169.555V43.7861H168.552V45.5242Z" fill="#9EB2B3"/>
<path d="M190.479 45.5242H191.48V43.7861H190.479V45.5242Z" fill="#9EB2B3"/>
<path d="M130.452 12.5979H295.358V9.1961H130.452V12.5979Z" fill="#33696F"/>
<path d="M285.62 68.5349H273.228V65.0915H273.476L285.62 68.5349Z" fill="#33696F"/>
<path d="M259.7 68.5349H248.289V65.5421H247.288V68.5349H226.364V65.5421H225.363V68.5349H204.439V65.5421H203.437V68.5349H182.514V65.5421H181.513V68.5349H166.107V65.0915H259.7V68.5349Z" fill="#283635"/>
<path d="M181.513 68.5349H182.515V65.5421H181.513V68.5349Z" fill="#9EB2B3"/>
<path d="M130.452 68.5349H152.58V65.0915H130.452V68.5349Z" fill="#33696F"/>
<path d="M203.437 68.5349H204.438V65.5421H203.437V68.5349Z" fill="#9EB2B3"/>
<path d="M225.363 68.5349H226.364V65.5421H225.363V68.5349Z" fill="#9EB2B3"/>
<path d="M247.288 68.5349H248.29V65.5421H247.288V68.5349Z" fill="#9EB2B3"/>
<path d="M121.594 9.19702H304.214V3.39382H121.594V9.19702Z" fill="white"/>
<path d="M304.214 5.16479V3.39355H121.594V3.35094H206.622H215.854H217.047H218.193H304.214V5.16479Z" fill="#A9D2DC"/>
<path d="M125.16 65.0828H300.65V59.2796H125.16V65.0828Z" fill="white"/>
<path d="M247.376 57.4968H235.329V55.3446L240.853 55.5479L241.171 55.643L240.863 55.8919L240.958 56.0066L241.343 55.6941L247.376 57.4968ZM234.329 57.4968H213.404V54.5379L221.672 54.8423L220.378 55.8919L220.471 56.0066L221.895 54.85L234.329 55.3076V57.4968ZM212.403 57.4968H191.48V53.7313L198.308 53.9822L196.377 55.5495L196.471 55.6643L198.533 53.9904L212.403 54.5011V57.4968ZM190.479 57.4968H169.556V52.9246L178.957 53.2707L176.151 55.5495L176.245 55.6643L179.182 53.2789L190.479 53.6944V57.4968ZM168.553 57.4968H147.631V52.1181L157.318 52.4741L153.531 55.5495L153.625 55.6643L157.545 52.4824L168.553 52.8878V57.4968ZM146.628 57.4968H132.061V51.5451L139.25 51.8095L134.644 55.5495L134.738 55.6643L139.476 51.8179L146.628 52.0805V57.4968Z" fill="#596463"/>
<path d="M147.631 57.4968H146.628V52.0805L147.631 52.1181V57.4968Z" fill="white"/>
<path d="M169.555 57.4968H168.552V52.8878L169.555 52.9246V57.4968Z" fill="white"/>
<path d="M191.48 57.4968H190.479V53.6944L191.48 53.7313V57.4968Z" fill="white"/>
<path d="M213.404 57.4968H212.403V54.5011L213.404 54.5379V57.4968Z" fill="white"/>
<path d="M235.329 57.4968H234.329V55.3076L235.329 55.3446V57.4968Z" fill="white"/>
<path d="M256.254 75.7219H253.131L253.373 75.5258L256.254 75.7219ZM252.899 75.7219H248.289V75.1785L253.159 75.5103L252.899 75.7219ZM247.288 75.7219H234.264L235.965 74.3405L247.288 75.1102V75.7219ZM234.031 75.7219H226.365V73.6861L235.752 74.325L234.031 75.7219ZM225.364 75.7219H212.063L215.483 72.9449L225.364 73.6177V75.7219ZM211.831 75.7219H204.439V72.1918L215.269 72.9299L211.831 75.7219ZM203.438 75.7219H189.446L194.617 71.5224L203.438 72.1233V75.7219ZM189.211 75.7219H182.515V70.6985L194.4 71.5087L189.211 75.7219ZM181.513 75.7219H170.557L177.19 70.3359L181.513 70.6302V75.7219ZM170.41 75.6524C169.92 75.3736 169.402 75.1364 168.864 74.9462V69.7683L176.974 70.3212L170.41 75.6524Z" fill="#596463"/>
<path d="M182.514 75.7219H181.513V70.6302L182.514 70.6985V75.7219Z" fill="white"/>
<path d="M204.439 75.7219H203.437V72.1233L204.439 72.1918V75.7219Z" fill="white"/>
<path d="M226.365 75.7219H225.363V73.6177L226.365 73.6861V75.7219Z" fill="white"/>
<path d="M248.289 75.7219H247.288V75.1102L248.289 75.1785V75.7219Z" fill="white"/>
<path d="M256.253 111.089H230.284V109.289L255.101 111.01L255.121 111.025L255.132 111.011L256.253 111.089ZM226.71 111.089H199.1V107.127L221.004 108.645L223.936 111.025L224.027 110.91L221.259 108.663L226.71 109.041V111.089ZM197.311 111.089H197.293V107L197.311 107.002V111.089ZM195.505 111.089H170.389V105.135L177.115 105.601L170.575 110.91L170.671 111.025L177.333 105.617L195.505 106.877V111.089Z" fill="#596463"/>
<path d="M152.58 115.164H166.108V63.6262H152.58V115.164Z" fill="white"/>
<path d="M259.7 115.164H273.228V63.6262H259.7V115.164Z" fill="white"/>
<path d="M166.107 115.164H163.548V99.2288C163.93 98.9275 164.289 98.5988 164.621 98.2456C165.048 98.736 165.55 99.1586 166.107 99.4981V115.164ZM164.808 74.4361C164.421 73.9748 164 73.5426 163.548 73.1456V65.0913H166.107V68.5347V74.4057C165.948 74.3981 165.788 74.395 165.626 74.395C165.351 74.395 165.077 74.4147 164.808 74.4361Z" fill="#D3D4D9"/>
<path d="M273.228 115.164H269.246V86.0145C269.55 86.4194 269.958 86.7421 270.429 86.9442C269.72 87.7204 269.287 88.7476 269.287 89.8782C269.287 92.1441 271.017 94.0064 273.228 94.218V115.164ZM269.246 82.5283V65.0913H273.228V68.5347V74.3588C272.056 75.6748 271.303 77.3713 271.175 79.2401C271.175 79.2419 271.175 79.243 271.175 79.243C271.175 79.2489 271.175 79.2554 271.174 79.2614C271.174 79.2626 271.174 79.2663 271.174 79.2663C271.172 79.2918 271.171 79.3191 271.169 79.3452C271.169 79.3464 271.169 79.3495 271.169 79.3524C271.169 79.3571 271.167 79.362 271.167 79.3667C271.167 79.3708 271.167 79.3726 271.167 79.3755C271.167 79.3816 271.167 79.3863 271.167 79.3904C271.166 79.3941 271.166 79.397 271.166 79.4C271.166 79.4047 271.166 79.4088 271.166 79.4136C271.166 79.4184 271.166 79.4213 271.164 79.4256C271.164 79.4332 271.164 79.4409 271.164 79.4487C271.164 79.4516 271.164 79.4565 271.163 79.4594C271.163 79.4636 271.163 79.4683 271.163 79.4712C271.163 79.4761 271.163 79.4808 271.163 79.4837C271.163 79.488 271.163 79.4909 271.161 79.4957C271.161 79.5004 271.161 79.5045 271.161 79.5082C271.161 79.5123 271.161 79.5152 271.161 79.5201C271.161 79.5248 271.161 79.5289 271.161 79.5338C271.161 79.5367 271.16 79.5414 271.16 79.5444C271.16 79.5522 271.16 79.5598 271.16 79.5669C271.16 79.5706 271.16 79.5718 271.16 79.5747C271.16 79.5806 271.16 79.5854 271.16 79.5913C271.158 79.5949 271.158 79.5978 271.158 79.6009C271.158 79.605 271.158 79.6115 271.158 79.6158C271.158 79.6187 271.158 79.6234 271.158 79.6264C271.158 79.6312 271.158 79.6359 271.158 79.6418C271.158 79.6448 271.158 79.6479 271.158 79.6508C271.158 79.6567 271.158 79.6633 271.157 79.6692C271.157 79.671 271.157 79.6722 271.157 79.6751C271.157 79.6829 271.157 79.6907 271.157 79.6995C271.157 79.7013 271.157 79.7043 271.157 79.7054C271.157 79.712 271.157 79.7179 271.157 79.724C271.157 79.7269 271.157 79.7299 271.157 79.7316C271.157 79.7375 271.157 79.7435 271.157 79.7483C271.157 79.7512 271.157 79.7543 271.157 79.7571C271.157 79.7637 271.157 79.768 271.157 79.7745C271.157 79.7774 271.157 79.7786 271.157 79.7815C271.157 79.7893 271.157 79.7988 271.157 79.806C271.157 80.3433 271.213 80.8681 271.311 81.3764C270.468 81.4512 269.726 81.8875 269.246 82.5283Z" fill="#D3D4D9"/>
<path d="M295.358 71.2954V65.0827H300.65V65.0571V65.0827L295.358 65.0915V71.2954Z" fill="#141D1E"/>
<path d="M295.358 71.2954L285.62 68.5349H295.358V71.2954ZM295.358 65.0915H273.476L273.444 65.0827H295.358V65.0915Z" fill="#295159"/>
<path d="M295.358 40.3594H190.033L169.239 34.1448L172.631 20.9825L176.458 22.6062L179.52 20.9825L183.184 22.3079L188.554 21.3341L193.099 22.7553L198.673 21.0815L201.52 22.0569L207.357 21.3417L211.238 22.5575L223.65 20.9825L225.834 22.1573L228.497 20.9825L233.209 22.8055L236.117 20.9825L245.118 24.2496L252.944 20.6097L295.358 32.9209V40.3594Z" fill="#295159"/>
<path d="M295.358 59.2795H279.179V57.4969H293.838L279.179 56.9578V45.5244H295.358V59.2795ZM293.666 48.371L284.822 55.5496L284.916 55.6643L293.756 48.4868L293.666 48.371ZM278.177 59.2795H257.255V57.4969H278.177V59.2795ZM256.254 59.2795H253.341L247.376 57.4969H256.254V59.2795ZM278.177 56.9209L257.255 56.1511V45.5244H278.177V56.9209ZM272.514 48.7157L263.675 55.892L263.766 56.0067L272.609 48.8292L272.514 48.7157ZM256.254 56.1143L241.493 55.5717L249.799 48.8292L249.706 48.7157L241.27 55.5633L240.853 55.5479L235.329 53.8966V45.5244H256.254V56.1143ZM234.329 53.5976L226.368 51.2187L229.312 48.8292L229.219 48.7157L226.197 51.1682L213.405 47.3444V45.5244H234.329V53.5976ZM212.403 47.0455L207.315 45.5244H212.403V47.0455Z" fill="#20292B"/>
<path d="M295.358 43.7864H279.18V43.1295H278.177V43.7864H257.255V43.1295H256.254V43.7864H235.329V43.1295H234.329V43.7864H213.405V43.1295H212.403V43.7864H201.499L190.033 40.3595H295.358V43.7864Z" fill="#80898F"/>
<path d="M213.404 47.344L212.403 47.0451V45.5241H213.404V47.344ZM213.404 43.786H212.403V43.1291H213.404V43.786Z" fill="#80898F"/>
<path d="M235.329 53.8962L234.329 53.5972V45.5241H235.329V53.8962ZM235.329 43.786H234.329V43.1291H235.329V43.786Z" fill="#80898F"/>
<path d="M257.255 59.2795H256.254V57.4969H257.255V59.2795ZM257.255 56.1511L256.254 56.1143V45.5244H257.255V56.1511ZM257.255 43.7864H256.254V43.1294H257.255V43.7864Z" fill="#80898F"/>
<path d="M279.179 59.2795H278.176V57.4969H279.179V59.2795ZM279.179 56.9578L278.176 56.9209V45.5244H279.179V56.9578ZM279.179 43.7864H278.176V43.1294H279.179V43.7864Z" fill="#80898F"/>
<path d="M295.358 45.5242H279.179V43.7861H295.358V45.5242ZM278.176 45.5242H257.255V43.7861H278.176V45.5242ZM256.254 45.5242H235.329V43.7861H256.254V45.5242ZM234.329 45.5242H213.404V43.7861H234.329V45.5242ZM212.403 45.5242H207.315L201.499 43.7861H212.403V45.5242Z" fill="#141D1E"/>
<path d="M212.403 45.5242H213.405V43.7861H212.403V45.5242Z" fill="#4F6064"/>
<path d="M234.329 45.5242H235.329V43.7861H234.329V45.5242Z" fill="#4F6064"/>
<path d="M256.254 45.5242H257.255V43.7861H256.254V45.5242Z" fill="#4F6064"/>
<path d="M278.176 45.5242H279.179V43.7861H278.176V45.5242Z" fill="#4F6064"/>
<path d="M295.358 68.5349H285.62L273.476 65.0915H295.358V68.5349Z" fill="#1A383E"/>
<path d="M300.65 65.0828H273.444L273.356 65.0572H300.65V65.0828ZM300.65 64.2369H273.228V63.6264H268.308L260.015 61.2749L253.341 59.2795H256.253H257.255H278.176H279.179H295.358H300.65V64.2369Z" fill="#80898F"/>
<path d="M293.838 57.4968H279.179V56.9577L293.838 57.4968ZM278.177 57.4968H257.255V56.151L278.177 56.9209V57.4968ZM256.254 57.4968H247.376L241.343 55.6941L241.493 55.5716L256.254 56.1142V57.4968ZM241.171 55.643L240.853 55.5479L241.27 55.5632L241.171 55.643Z" fill="#2D3638"/>
<path d="M257.255 57.4968H256.254V56.1142L257.255 56.151V57.4968Z" fill="#80898F"/>
<path d="M279.179 57.4968H278.176V56.9209L279.179 56.9577V57.4968Z" fill="#80898F"/>
<path d="M273.228 64.2368H270.463L268.308 63.6263H273.228V64.2368Z" fill="#80898F"/>
<path d="M176.111 25.6767H172.631V20.9823H169.239V34.1445H172.631V28.8865H176.111V34.1445H179.52V20.9823H176.111V25.6767Z" fill="white"/>
<path d="M185.94 31.2008C184.15 31.2008 183.335 29.3499 183.335 27.6302C183.335 25.9212 184.023 23.927 185.957 23.927C188.017 23.927 188.562 26.2744 188.562 27.5136C188.562 29.3498 187.751 31.2008 185.94 31.2008ZM186.022 20.8C182.382 20.8 179.841 23.6227 179.841 27.664C179.841 31.5872 182.314 34.3279 185.858 34.3279C188.935 34.3279 192.039 32.2012 192.039 27.4477C192.039 23.5329 189.565 20.8 186.022 20.8Z" fill="white"/>
<path d="M197.077 25.9072C195.469 25.2856 195.469 24.9767 195.469 24.6511C195.469 24.2067 195.895 23.942 196.61 23.942C197.398 23.942 197.992 24.2022 198.273 24.3574L199.29 24.9128L200.318 21.8694L199.62 21.4753C198.85 21.0386 197.8 20.7997 196.66 20.7997C193.993 20.7997 192.058 22.4888 192.058 24.8185C192.058 27.6328 194.776 28.5957 195.645 28.9043C197.135 29.4773 197.135 29.8583 197.135 30.2268C197.135 31.0447 196.275 31.166 195.761 31.166C195.053 31.166 194.273 30.9467 193.674 30.5794L192.599 29.9172L191.66 33.0319L192.259 33.4326C193.049 33.9586 194.416 34.3123 195.66 34.3123C199.048 34.3123 200.562 32.2009 200.562 30.1098C200.562 27.5764 198.699 26.5332 197.077 25.9072Z" fill="white"/>
<path d="M206.473 25.2156C206.473 25.5686 206.473 26.6396 204.632 26.6396L204.407 26.6372V23.9998C204.524 23.9967 204.656 23.9922 204.798 23.9922C206.473 23.9922 206.473 24.8504 206.473 25.2156ZM208.562 22.0794C207.69 21.2957 206.412 20.8986 204.766 20.8986C203.716 20.8986 202.756 20.9731 201.826 21.1283L201.013 21.2638V34.1445H204.407V29.7507C206.234 29.7774 207.773 29.2401 208.725 28.2237C209.481 27.4456 209.865 26.4113 209.865 25.1502C209.865 23.8978 209.396 22.8022 208.562 22.0794Z" fill="white"/>
<path d="M223.65 20.9823H210.285V34.1445H213.68V24.1595H216.81V34.1445H220.219V24.1595H223.65V20.9823Z" fill="white"/>
<path d="M226.896 26.5617L227.227 27.5383H226.565L226.896 26.5617ZM236.117 30.9854V20.9823H232.724V33.3618L228.498 20.9823H225.357L220.888 34.1445H224.446L225.611 30.6168H228.186L229.385 34.1445H232.724H232.991H240.91V30.9854H236.117Z" fill="white"/>
<path d="M257.635 27.3906C257.635 23.3867 254.388 20.1395 250.383 20.1395C246.379 20.1395 243.135 23.3867 243.135 27.3906C243.135 31.3951 246.379 34.6423 250.383 34.6423C254.388 34.6423 257.635 31.3951 257.635 27.3906Z" fill="#DA3200"/>
<path d="M255.631 26.3002H251.474V22.1434H249.292V26.3002H245.136V28.48H249.292V32.6372H251.474V28.48H255.631V26.3002Z" fill="white"/>
<path d="M195.505 113.376H167.897V80.6738H195.505V113.376ZM166.107 78.8858V115.164H197.293V78.8858H166.107Z" fill="white"/>
<path d="M167.189 89.0444H196.289V88.3947H167.189V89.0444Z" fill="white"/>
<path d="M193.434 101.598C193.434 101.948 193.149 102.23 192.801 102.23C192.451 102.23 192.168 101.948 192.168 101.598V97.6584C192.168 97.3101 192.451 97.0241 192.801 97.0241C193.149 97.0241 193.434 97.3101 193.434 97.6584V101.598Z" fill="white"/>
<path d="M230.285 80.6738H257.893V113.376H230.285V80.6738ZM228.495 78.8858V115.164H259.682V78.8858H228.495Z" fill="white"/>
<path d="M229.503 89.0444H258.599V88.3947H229.503V89.0444Z" fill="white"/>
<path d="M232.357 101.598C232.357 101.948 232.64 102.23 232.991 102.23C233.338 102.23 233.623 101.948 233.623 101.598V97.6584C233.623 97.3101 233.338 97.0241 232.991 97.0241C232.64 97.0241 232.357 97.3101 232.357 97.6584V101.598Z" fill="white"/>
<path d="M199.1 80.6738H226.71V113.376H199.1V80.6738ZM197.311 78.8858V115.164H228.496V78.8858H197.311Z" fill="white"/>
<path d="M198.317 89.0444H227.416V88.3947H198.317V89.0444Z" fill="white"/>
<path d="M201.172 101.598C201.172 101.948 201.453 102.23 201.805 102.23C202.153 102.23 202.438 101.948 202.438 101.598V97.6584C202.438 97.3101 202.153 97.0241 201.805 97.0241C201.453 97.0241 201.172 97.3101 201.172 97.6584V101.598Z" fill="white"/>
<path d="M93.1703 93.6142C93.1703 94.3762 92.555 94.9915 91.796 94.9915C91.0375 94.9915 90.4222 94.3762 90.4222 93.6142V93.4561C90.4222 92.6965 91.0375 92.0829 91.796 92.0829C92.555 92.0829 93.1703 92.6965 93.1703 93.4561V93.6142Z" fill="#6E2200"/>
<path d="M90.6222 102.832C90.6222 103.689 89.9284 104.381 89.0713 104.381C88.2147 104.381 87.5217 103.689 87.5217 102.832V99.062C87.5217 98.2036 88.2147 97.5093 89.0713 97.5093C89.9284 97.5093 90.6222 98.2036 90.6222 99.062V102.832Z" fill="#6E2200"/>
<path d="M95.4955 117.456V96.6255C95.4955 94.7614 93.9822 93.2475 92.1133 93.2475H91.4792C89.6108 93.2475 88.0957 94.7614 88.0957 96.6255V117.456H95.4955Z" fill="#9C6A44"/>
<path d="M87.339 120.059H96.1576V117.456H87.339V120.059Z" fill="#4D1800"/>
<path d="M87.8589 117.456H95.6379V116.328H87.8589V117.456Z" fill="#6E2200"/>
<path d="M95.6374 117.456H93.17V116.328H95.6374V117.456Z" fill="#591C00"/>
<path d="M95.4955 109.528V96.6254C95.4955 95.408 94.8506 94.3398 93.8828 93.7467C94.8488 94.3107 95.4955 95.3164 95.4955 96.4791V109.528Z" fill="#374C4C"/>
<path d="M95.4953 116.328H93.17V93.4298C93.4214 93.5088 93.6603 93.6153 93.8826 93.7466C94.8504 94.3398 95.4953 95.408 95.4953 96.6254V109.528V115.164V115.199V116.328Z" fill="#7F5637"/>
<path d="M90.9903 98.8924C90.9903 99.2824 90.6728 99.5986 90.2822 99.5986C89.8899 99.5986 89.5725 99.2824 89.5725 98.8924V95.6547C89.5725 95.2637 89.8899 94.9468 90.2822 94.9468C90.6728 94.9468 90.9903 95.2637 90.9903 95.6547V98.8924Z" fill="white"/>
<path d="M90.9903 102.47C90.9903 102.861 90.6728 103.179 90.2822 103.179C89.8899 103.179 89.5725 102.861 89.5725 102.47V101.311C89.5725 100.92 89.8899 100.603 90.2822 100.603C90.6728 100.603 90.9903 100.92 90.9903 101.311V102.47Z" fill="white"/>
<path d="M113.412 71.0383C112.053 71.0383 110.857 70.3358 110.17 69.2742C110.877 70.1658 111.97 70.7377 113.196 70.7377C115.328 70.7377 117.056 69.009 117.056 66.8776C117.056 66.1053 116.83 65.3868 116.44 64.7841C116.961 65.442 117.272 66.2736 117.272 67.1783C117.272 69.3111 115.544 71.0383 113.412 71.0383Z" fill="#445E5E"/>
<path d="M117.056 66.8777C117.056 64.7449 115.328 63.0171 113.196 63.0171C111.063 63.0171 109.336 64.7449 109.336 66.8777C109.336 69.0092 111.063 70.7378 113.196 70.7378C115.328 70.7378 117.056 69.0092 117.056 66.8777Z" fill="white"/>
<path d="M115.99 66.8777C115.99 65.3334 114.74 64.0827 113.196 64.0827C111.652 64.0827 110.401 65.3334 110.401 66.8777C110.401 68.4207 111.652 69.6714 113.196 69.6714C114.74 69.6714 115.99 68.4207 115.99 66.8777Z" fill="#E69F00"/>
<path d="M110.998 67.9827C110.829 67.6487 110.726 67.2772 110.726 66.8778C110.726 65.5118 111.831 64.4079 113.196 64.4079C113.932 64.4079 114.586 64.736 115.039 65.2491L110.998 67.9827Z" fill="#F5D794"/>
<path d="M273.356 65.0571H273.228V65.0209L273.356 65.0571ZM259.7 65.0571H166.107V64.2368H259.7V65.0571ZM152.58 65.0571H125.16V64.2368H152.58V65.0571Z" fill="#D3D4D9"/>
<path d="M152.58 65.0571H166.108V64.2368H152.58V65.0571Z" fill="#D3D4D9"/>
<path d="M273.228 65.0571H259.7V64.2368H270.463L273.228 65.0209V65.0571Z" fill="#D3D4D9"/>
<path d="M300.65 65.0571H273.356L273.228 65.0209V64.2368H300.65V65.0571Z" fill="#6A727A"/>
<path d="M273.228 65.0208L270.463 64.2366H273.228V65.0208Z" fill="#6A727A"/>
<path d="M195.505 81.7188H175.047C174.958 81.3615 174.846 81.0125 174.719 80.6738H195.505V81.7188Z" fill="#283635"/>
<path d="M199.101 81.7188H226.709V80.6738H199.101V81.7188Z" fill="#283635"/>
<path d="M230.286 81.7188H257.893V80.6738H230.286V81.7188Z" fill="#283635"/>
<path d="M96.1578 120.059H87.339V119.525C88.308 119.445 89.5794 119.397 90.9929 119.397C91.415 119.397 91.8488 119.401 92.2916 119.41C93.7568 119.439 95.0932 119.511 96.1578 119.612V120.059Z" fill="#3C1300"/>
<path d="M274.371 117.029H151.437V114.6H274.371V117.029Z" fill="#BCBEC0"/>
<path d="M274.371 115.915H151.437V114.6H274.371V115.915Z" fill="#E6E7E8"/>
<path d="M149.915 119.434H275.892V117.005H149.915V119.434Z" fill="#BCBEC0"/>
<path d="M277.414 120.819H159.297V119.434H275.893L277.414 120.819ZM157.5 120.819H148.394L149.915 119.434H157.5V120.819Z" fill="#617675"/>
<path d="M275.892 117.906H149.915V117.005H275.892V117.906Z" fill="#E6E7E8"/>
<path d="M177.333 105.617L177.115 105.602L192.355 93.232L192.449 93.3462L177.333 105.617Z" fill="#546060"/>
<path d="M170.671 111.025L170.575 110.91L177.116 105.601L177.333 105.617L170.671 111.025Z" fill="#6B7474"/>
<path d="M175.452 95.6804C175.472 95.6031 175.49 95.5241 175.507 95.4432L179.183 92.4593L179.277 92.5747L175.452 95.6804Z" fill="#546060"/>
<path d="M255.132 111.011L255.102 111.01L233.342 93.346L233.434 93.2319L255.213 110.91L255.132 111.011Z" fill="#546060"/>
<path d="M255.122 111.025L255.102 111.01L255.132 111.011L255.122 111.025Z" fill="#6B7474"/>
<path d="M255.356 99.7527L246.512 92.5746L246.606 92.4593L255.446 99.6386L255.356 99.7527Z" fill="#546060"/>
<path d="M221.259 108.663L221.004 108.645L202.156 93.3461L202.249 93.2319L221.259 108.663Z" fill="#546060"/>
<path d="M223.936 111.025L221.004 108.645L221.26 108.663L224.027 110.91L223.936 111.025Z" fill="#6B7474"/>
<path d="M224.17 99.7527L215.328 92.5746L215.42 92.4593L224.263 99.6386L224.17 99.7527Z" fill="#546060"/>
<path d="M139.476 51.8179L139.25 51.8095L143.485 48.3709L143.579 48.4867L139.476 51.8179Z" fill="#546060"/>
<path d="M134.738 55.6643L134.643 55.5496L139.25 51.8096L139.476 51.8179L134.738 55.6643Z" fill="#6B7474"/>
<path d="M157.545 52.4822L157.318 52.4738L162.372 48.3707L162.466 48.4865L157.545 52.4822Z" fill="#546060"/>
<path d="M153.625 55.6643L153.531 55.5496L157.318 52.4741L157.545 52.4825L153.625 55.6643Z" fill="#6B7474"/>
<path d="M179.182 53.2786L178.957 53.2704L184.992 48.3707L185.084 48.4865L179.182 53.2786Z" fill="#546060"/>
<path d="M176.245 55.6643L176.151 55.5496L178.957 53.2707L179.182 53.2789L176.245 55.6643Z" fill="#6B7474"/>
<path d="M198.533 53.9902L198.308 53.982L205.218 48.3708L205.311 48.4866L198.533 53.9902Z" fill="#546060"/>
<path d="M196.471 55.6643L196.377 55.5496L198.308 53.9822L198.533 53.9905L196.471 55.6643Z" fill="#6B7474"/>
<path d="M221.896 54.8499L221.672 54.8421L226.197 51.168L226.368 51.2185L221.896 54.8499Z" fill="#546060"/>
<path d="M220.471 56.0063L220.379 55.8916L221.672 54.842L221.896 54.8497L220.471 56.0063Z" fill="#6B7474"/>
<path d="M226.368 51.2185L226.198 51.168L229.22 48.7155L229.312 48.829L226.368 51.2185Z" fill="#384042"/>
<path d="M170.546 75.7314C170.541 75.7286 170.535 75.7249 170.531 75.722H170.557L170.546 75.7314ZM177.19 70.336L176.974 70.3212L178.474 69.1033L178.568 69.2168L177.19 70.336Z" fill="#546060"/>
<path d="M170.557 75.7219H170.531C170.491 75.6976 170.45 75.6749 170.409 75.6524L176.974 70.3212L177.19 70.3359L170.557 75.7219Z" fill="#6B7474"/>
<path d="M188.615 76.396L188.522 76.2819L189.211 75.722H189.446L188.615 76.396ZM194.616 71.5225L194.4 71.5088L197.363 69.1033L197.456 69.2168L194.616 71.5225Z" fill="#546060"/>
<path d="M189.446 75.7219H189.211L194.4 71.5087L194.616 71.5224L189.446 75.7219Z" fill="#6B7474"/>
<path d="M211.233 76.396L211.14 76.2819L211.831 75.722H212.063L211.233 76.396ZM215.483 72.945L215.269 72.9301L219.983 69.1033L220.074 69.2168L215.483 72.945Z" fill="#546060"/>
<path d="M212.062 75.7219H211.831L215.268 72.9299L215.483 72.9448L212.062 75.7219Z" fill="#6B7474"/>
<path d="M233.434 76.396L233.342 76.2819L234.031 75.722H234.264L233.434 76.396ZM235.965 74.3407L235.752 74.3251L242.183 69.1033L242.274 69.2168L235.965 74.3407Z" fill="#546060"/>
<path d="M234.264 75.7219H234.031L235.752 74.325L235.965 74.3405L234.264 75.7219Z" fill="#6B7474"/>
<path d="M251.879 76.7383L251.786 76.6242L252.898 75.7219H253.131L251.879 76.7383ZM253.373 75.5258L253.159 75.5103L259.7 70.1993V70.3871L253.373 75.5258Z" fill="#546060"/>
<path d="M253.131 75.7219H252.898L253.159 75.5103L253.373 75.5258L253.131 75.7219Z" fill="#6B7474"/>
<path d="M259.7 70.387V70.1992L260.627 69.4472L260.717 69.5619L259.7 70.387Z" fill="white"/>
<path d="M240.958 56.0063L240.863 55.8916L241.171 55.6427L241.343 55.6938L240.958 56.0063Z" fill="#6B7474"/>
<path d="M241.493 55.5715L241.27 55.5632L249.706 48.7156L249.799 48.8291L241.493 55.5715Z" fill="#384042"/>
<path d="M241.342 55.6941L241.17 55.643L241.269 55.5632L241.493 55.5716L241.342 55.6941Z" fill="#434B4E"/>
<path d="M263.766 56.0063L263.675 55.8916L272.514 48.7153L272.608 48.8289L263.766 56.0063Z" fill="#384042"/>
<path d="M284.916 55.6643L284.822 55.5496L293.666 48.371L293.755 48.4868L284.916 55.6643Z" fill="#384042"/>
<path d="M23.5518 122.681C21.9237 122.681 20.4525 122.012 19.3992 120.931C20.4525 122.012 21.9237 122.681 23.5518 122.681C23.5577 122.681 23.5636 122.681 23.569 122.681C23.563 122.681 23.5577 122.681 23.5518 122.681Z" fill="#586866"/>
<path d="M23.5742 122.681C23.5785 122.681 23.582 122.681 23.5862 122.681C23.582 122.681 23.5785 122.681 23.5742 122.681ZM23.5922 122.681C23.5963 122.681 23.6004 122.681 23.6046 122.681C23.6004 122.681 23.5963 122.681 23.5922 122.681ZM23.61 122.681C23.6141 122.681 23.6194 122.681 23.6243 122.681C23.6188 122.681 23.6141 122.681 23.61 122.681ZM23.6308 122.681C23.6349 122.681 23.639 122.681 23.6433 122.681C23.639 122.681 23.6349 122.681 23.6308 122.681ZM23.6509 122.681C23.654 122.681 23.6568 122.681 23.6599 122.681C23.6568 122.681 23.654 122.681 23.6509 122.681ZM23.6683 122.681C23.6711 122.681 23.6742 122.681 23.6765 122.681C23.6742 122.681 23.6711 122.681 23.6683 122.681ZM23.6855 122.681C23.6873 122.679 23.689 122.679 23.6908 122.679C23.689 122.679 23.6873 122.679 23.6855 122.681ZM23.7151 122.679C23.7157 122.679 23.7157 122.679 23.7163 122.679C23.7157 122.679 23.7151 122.679 23.7151 122.679ZM23.7288 122.679C23.73 122.679 23.7313 122.679 23.7323 122.679C23.7313 122.679 23.73 122.679 23.7288 122.679ZM23.7454 122.678C23.7454 122.678 23.7466 122.678 23.7472 122.678C23.746 122.678 23.746 122.678 23.7454 122.678Z" fill="#586866"/>
<path d="M314.557 120.006C304.469 120.006 296.29 119.375 296.29 118.595C296.29 118.037 300.515 117.553 306.636 117.326C307.213 117.549 307.899 117.676 308.637 117.676C308.642 117.676 308.648 117.676 308.654 117.676C308.657 117.676 308.659 117.676 308.66 117.676C308.665 117.676 308.671 117.676 308.675 117.676C308.677 117.676 308.677 117.676 308.678 117.676C308.683 117.676 308.689 117.676 308.695 117.676C308.697 117.676 308.7 117.676 308.701 117.676C308.706 117.676 308.709 117.676 308.713 117.676C308.716 117.676 308.72 117.676 308.724 117.676C308.727 117.676 308.732 117.676 308.735 117.676C308.738 117.676 308.741 117.676 308.744 117.676C308.747 117.676 308.748 117.676 308.751 117.676C309.123 117.669 309.482 117.629 309.818 117.562C310.31 118.2 311.081 118.598 311.918 118.598C312.049 118.598 312.181 118.589 312.315 118.568C313.18 118.44 313.884 117.905 314.266 117.187C314.362 117.187 314.459 117.187 314.557 117.187C324.647 117.187 332.825 117.818 332.825 118.595C332.825 119.375 324.647 120.006 314.557 120.006ZM311.853 117.491C311.554 117.478 311.271 117.378 311.037 117.212C311.334 117.208 311.635 117.205 311.938 117.202L311.942 117.235L311.901 117.242L311.853 117.491ZM312.442 117.404L312.331 117.197C312.499 117.196 312.668 117.194 312.837 117.193C312.719 117.281 312.586 117.352 312.442 117.404Z" fill="#56777A"/>
<path d="M303.167 106.743C303.328 107.494 304.071 107.971 304.821 107.807C305.571 107.647 306.048 106.905 305.886 106.153C305.722 105.403 304.982 104.925 304.232 105.087C303.48 105.25 303.003 105.992 303.167 106.743Z" fill="#E7B184"/>
<path d="M304.64 106.328L305.086 104.899C305.086 104.899 304.914 104.612 304.389 104.669C303.865 104.724 303.925 104.989 303.925 104.989L303.947 105.427L304.083 106.063L304.64 106.328Z" fill="#8F1D07"/>
<path d="M313.08 110.676H303.424V106.252H314.848L313.08 110.676Z" fill="#35BEE6"/>
<path d="M314.772 106.445L314.848 106.252H303.424V106.445H314.772Z" fill="#2B9ABA"/>
<path d="M305.118 116.388L304.897 116.302C304.762 116.181 304.749 115.97 304.87 115.834L316.297 103.082L316.765 103.056L316.791 103.525L305.364 116.278L305.118 116.388Z" fill="#918244"/>
<path d="M311.975 116.314L311.745 116.22L304.593 109.366L304.582 108.896L305.053 108.887L312.203 115.742L312.212 116.212L311.975 116.314Z" fill="#918244"/>
<path d="M309.799 114.356L308.779 113.379V113.378L308.893 113.487C309.038 113.411 309.16 113.294 309.242 113.152L310.118 114C310.001 114.109 309.895 114.228 309.799 114.356ZM307.595 112.242L304.593 109.367L304.589 109.144H305.094L307.92 111.876C307.78 111.964 307.665 112.09 307.595 112.242Z" fill="#6B6133"/>
<path d="M305.588 117.404L305.466 117.181L305.425 117.187L305.346 116.666C305.634 116.554 305.829 116.281 305.841 115.972L306.381 115.891L306.389 115.932L306.611 115.978C306.6 116.617 306.188 117.188 305.588 117.404ZM305.098 116.155L304.856 115.975L305.034 115.736L305.278 115.913L305.098 116.155ZM305.046 117.242L304.998 117.491C304.359 117.464 303.8 117.04 303.598 116.43L303.8 116.322L303.794 116.28L304.336 116.199C304.438 116.489 304.706 116.695 305.011 116.716L305.089 117.235L305.046 117.242ZM304.566 114.484L304.658 114.656L304.701 114.65L304.785 115.223C304.518 115.329 304.33 115.576 304.298 115.859L303.744 115.945L303.738 115.902L303.52 115.856C303.557 115.234 303.971 114.687 304.566 114.484ZM305.078 114.592L305.116 114.4C305.743 114.42 306.3 114.822 306.518 115.408L306.326 115.514L306.332 115.555L305.777 115.639C305.661 115.376 305.41 115.195 305.122 115.173L305.036 114.598L305.078 114.592ZM307.691 115.552C307.473 114.103 306.118 113.105 304.672 113.32C303.226 113.539 302.225 114.893 302.443 116.34C302.659 117.786 304.012 118.787 305.462 118.568C306.909 118.353 307.907 116.998 307.691 115.552Z" fill="#20202B"/>
<path d="M304.334 101.454L304.139 101.431C301.592 101.181 299.322 103.043 299.072 105.591C298.821 108.14 300.685 110.409 303.234 110.658L303.429 110.674L304.334 101.454Z" fill="#35BEE6"/>
<path d="M304.855 103.267C304.87 103.044 304.777 102.842 304.623 102.707C304.794 102.59 304.913 102.403 304.929 102.181C304.955 101.801 304.666 101.472 304.287 101.445C303.905 101.421 303.577 101.707 303.552 102.088C303.537 102.312 303.631 102.513 303.783 102.65C303.613 102.766 303.494 102.954 303.478 103.173C303.464 103.395 303.557 103.6 303.71 103.736C303.539 103.85 303.42 104.038 303.406 104.26C303.389 104.483 303.482 104.684 303.637 104.82C303.467 104.935 303.347 105.124 303.332 105.346C303.316 105.567 303.411 105.771 303.566 105.906C303.392 106.022 303.274 106.209 303.26 106.432C303.234 106.812 303.52 107.142 303.902 107.166C304.283 107.193 304.611 106.904 304.639 106.522C304.651 106.302 304.56 106.101 304.403 105.962C304.576 105.848 304.695 105.66 304.709 105.439C304.725 105.217 304.631 105.014 304.477 104.876C304.648 104.763 304.768 104.573 304.783 104.354C304.797 104.13 304.706 103.928 304.549 103.791C304.721 103.677 304.84 103.49 304.855 103.267Z" fill="#35BEE6"/>
<path d="M305.275 115.946L305.066 116.153L304.858 115.946L305.066 115.738L305.275 115.946Z" fill="white"/>
<path d="M305.033 105.588L304.869 105.859L304.814 105.861L304.911 105.864L305.082 105.625L304.996 105.497L305.033 105.588Z" fill="#A17B5C"/>
<path d="M308.345 109.144H305.539L305.385 108.997L305.172 109.002L305.052 108.888L304.832 108.892L304.743 108.805L304.582 108.896L304.588 109.144H303.578L303.643 108.481H309.713L308.345 109.144Z" fill="#278EAD"/>
<path d="M305.32 109.144H305.093L304.832 108.892L305.052 108.888L305.172 109.002L305.32 109.144Z" fill="#6B6133"/>
<path d="M304.582 108.896L304.744 108.805L304.832 108.892L304.582 108.896Z" fill="#1D6A82"/>
<path d="M305.094 109.144H304.588L304.582 108.896L304.832 108.892L305.094 109.144Z" fill="#4F4826"/>
<path d="M303.578 109.144H302.135C301.952 109.144 301.803 108.995 301.803 108.813C301.803 108.628 301.952 108.481 302.135 108.481H303.643L303.578 109.144Z" fill="#278EAD"/>
<path d="M312.381 109.035H302.08C301.899 109.035 301.749 108.886 301.749 108.703C301.749 108.519 301.899 108.371 302.08 108.371H312.381C312.56 108.371 312.711 108.519 312.711 108.703C312.711 108.886 312.56 109.035 312.381 109.035Z" fill="#D6CDA9"/>
<path d="M311.798 108.813H302.135L302.026 108.703L302.135 108.593H311.798L311.909 108.703L311.798 108.813Z" fill="white"/>
<path d="M311.465 107.105L311.227 106.99L310.987 107.105L310.747 106.99L310.508 107.105L310.269 106.99L310.028 107.105L309.788 106.99L309.549 107.105L309.312 106.99L309.071 107.105L308.831 106.99L308.59 107.105L308.351 106.99L308.112 107.105L307.874 106.99L307.632 107.105L307.393 106.99L307.154 107.105L306.915 106.99L306.674 107.105L306.436 106.99L306.195 107.105L305.956 106.99L305.717 107.105L305.475 106.99L305.238 107.105L304.998 106.99L304.759 107.105L304.518 106.99L304.278 107.105L304.258 107.096C304.33 107.06 304.393 107.013 304.448 106.955L304.602 106.878L304.839 106.997L305.081 106.878L305.322 106.997L305.559 106.878L305.8 106.997L306.038 106.878L306.279 106.997L306.518 106.878L306.758 106.997L306.996 106.878L307.238 106.997L307.475 106.878L307.715 106.997L307.956 106.878L308.195 106.997L308.435 106.878L308.674 106.997L308.913 106.878L309.153 106.997L309.395 106.878L309.633 106.997L309.872 106.878L310.11 106.997L310.351 106.878L310.591 106.997L310.83 106.878L311.069 106.997L311.31 106.878L311.548 106.997C311.623 106.997 311.691 106.97 311.745 106.924C311.698 107.032 311.59 107.105 311.465 107.105Z" fill="#278EAD"/>
<path d="M303.321 107.105L303.08 106.99L302.842 107.105L302.603 106.99L302.362 107.105L302.123 106.99C302.123 106.978 302.123 106.965 302.123 106.953C302.123 106.941 302.123 106.93 302.123 106.919L302.205 106.878L302.446 106.997L302.685 106.878L302.925 106.997L303.164 106.878L303.405 106.997L303.462 106.968C303.478 106.984 303.494 106.999 303.513 107.013L303.321 107.105Z" fill="#278EAD"/>
<path d="M303.8 107.105L303.561 106.99L303.513 107.013C303.494 106.999 303.478 106.984 303.462 106.968L303.643 106.878L303.884 106.997L304.124 106.878L304.362 106.997L304.448 106.955C304.394 107.013 304.33 107.06 304.258 107.096L304.041 106.99L303.8 107.105Z" fill="#278EAD"/>
<path d="M301.183 106.693C301.183 106.861 301.32 106.997 301.487 106.997L301.727 106.878L301.966 106.997L302.205 106.878L302.446 106.997L302.685 106.878L302.925 106.997L303.164 106.878L303.404 106.997L303.643 106.878L303.884 106.997L304.124 106.878L304.361 106.997L304.602 106.878L304.839 106.997L305.081 106.878L305.322 106.997L305.559 106.878L305.799 106.997L306.038 106.878L306.279 106.997L306.518 106.878L306.758 106.997L306.995 106.878L307.237 106.997L307.475 106.878L307.715 106.997L307.956 106.878L308.195 106.997L308.435 106.878L308.674 106.997L308.913 106.878L309.153 106.997L309.395 106.878L309.633 106.997L309.871 106.878L310.11 106.997L310.351 106.878L310.591 106.997L310.83 106.878L311.069 106.997L311.309 106.878L311.548 106.997C311.716 106.997 311.853 106.861 311.853 106.693H301.183Z" fill="white"/>
<path d="M300.069 105.774C300.259 103.828 301.379 102.226 302.878 101.479C300.881 101.831 299.279 103.473 299.072 105.591C298.88 107.543 299.93 109.33 301.577 110.173C300.505 109.117 299.895 107.508 300.069 105.774Z" fill="#24839E"/>
<path d="M300.988 106.375L300.414 104.287C300.49 104.087 300.575 103.892 300.673 103.704L301.097 106.31C301.059 106.328 301.023 106.351 300.988 106.375Z" fill="#278EAD"/>
<path d="M300.414 104.287L300.092 103.119C300.21 102.972 300.338 102.834 300.472 102.704L300.563 103.035L300.673 103.704C300.575 103.891 300.49 104.086 300.414 104.287Z" fill="#1B6277"/>
<path d="M301.7 107.026L300.903 102.136L300.627 101.936L300.43 102.212L301.227 107.104L301.7 107.026Z" fill="#D6CDA9"/>
<path d="M300.644 101.948L300.628 101.936L300.65 101.935L300.644 101.948Z" fill="#1D2828"/>
<path d="M301.098 106.31L300.673 103.704L300.564 103.035L300.43 102.212L300.627 101.936L300.644 101.948L300.574 102.151L301.244 106.258C301.192 106.269 301.143 106.286 301.098 106.31Z" fill="#9E997F"/>
<path d="M301.297 107.776C300.904 107.776 300.586 107.457 300.586 107.063C300.586 106.836 300.69 106.635 300.853 106.506C300.754 106.627 300.696 106.783 300.696 106.953C300.696 107.345 301.015 107.666 301.41 107.666C301.575 107.666 301.729 107.611 301.851 107.514C301.718 107.674 301.521 107.776 301.297 107.776Z" fill="#278EAD"/>
<path d="M302.123 106.953C302.123 107.346 301.802 107.667 301.41 107.667C301.016 107.667 300.696 107.346 300.696 106.953C300.696 106.557 301.016 106.238 301.41 106.238C301.802 106.238 302.123 106.557 302.123 106.953Z" fill="white"/>
<path d="M302.053 106.953C302.053 107.307 301.765 107.597 301.409 107.597C301.052 107.597 300.764 107.307 300.764 106.953C300.764 106.595 301.052 106.308 301.409 106.308C301.765 106.308 302.053 106.595 302.053 106.953Z" fill="#D6CDA9"/>
<path d="M301.807 106.953C301.807 107.172 301.629 107.348 301.41 107.348C301.189 107.348 301.011 107.172 301.011 106.953C301.011 106.731 301.189 106.554 301.41 106.554C301.629 106.554 301.807 106.731 301.807 106.953Z" fill="#278DAB"/>
<path d="M301.563 106.953L301.41 107.105L301.255 106.953L301.41 106.796L301.563 106.953Z" fill="white"/>
<path d="M303.803 107.434L302.513 107.404L302.689 107.694C302.949 107.951 303.365 108.003 303.617 107.813C303.742 107.717 303.803 107.579 303.803 107.434Z" fill="#24839E"/>
<path d="M305.422 107.434L304.132 107.404L304.31 107.694C304.568 107.951 304.982 108.003 305.236 107.813C305.361 107.717 305.422 107.579 305.422 107.434Z" fill="#24839E"/>
<path d="M302.714 103.869C302.714 103.869 302.368 103.482 302.368 103.293C302.368 103.105 302.524 102.951 302.714 102.951C302.903 102.951 303.058 103.105 303.058 103.293C303.058 103.482 302.714 103.869 302.714 103.869Z" fill="#278EAD"/>
<path d="M302.714 105.43C302.524 105.43 302.368 105.274 302.368 105.085C302.368 104.896 302.714 104.509 302.714 104.509C302.714 104.509 303.058 104.896 303.058 105.085C303.058 105.274 302.903 105.43 302.714 105.43Z" fill="#278EAD"/>
<path d="M302.487 103.963L301.836 103.799V103.313H302.323L302.487 103.963Z" fill="#278EAD"/>
<path d="M303.414 105.065H303.103L302.939 104.418L303.446 104.544C303.478 104.631 303.528 104.709 303.59 104.774V104.855C303.519 104.913 303.458 104.984 303.414 105.065Z" fill="#278EAD"/>
<path d="M303.59 105.065H303.414C303.458 104.984 303.519 104.913 303.59 104.855V105.065ZM303.59 104.774C303.528 104.709 303.478 104.631 303.446 104.544L303.59 104.581V104.774Z" fill="#278EAD"/>
<path d="M301.819 104.533C301.627 104.533 301.474 104.38 301.474 104.19C301.474 104.001 301.627 103.847 301.819 103.847C302.008 103.847 302.394 104.19 302.394 104.19C302.394 104.19 302.008 104.533 301.819 104.533Z" fill="#278EAD"/>
<path d="M303.424 104.471C303.239 104.373 303.033 104.19 303.033 104.19C303.033 104.19 303.38 103.881 303.578 103.849C303.479 103.959 303.415 104.1 303.406 104.26C303.4 104.333 303.408 104.405 303.424 104.471Z" fill="#278EAD"/>
<path d="M303.61 104.533C303.558 104.533 303.493 104.508 303.424 104.471C303.407 104.404 303.4 104.332 303.406 104.26C303.415 104.1 303.479 103.959 303.578 103.849C303.59 103.847 303.599 103.847 303.61 103.847C303.798 103.847 303.951 104.001 303.951 104.19C303.951 104.38 303.798 104.533 303.61 104.533Z" fill="#278EAD"/>
<path d="M302.323 105.065H301.836V104.581L302.487 104.418L302.323 105.065Z" fill="#278EAD"/>
<path d="M302.939 103.963L303.103 103.313H303.484C303.498 103.417 303.536 103.513 303.59 103.598V103.799L302.939 103.963Z" fill="#278EAD"/>
<path d="M303.59 103.598C303.535 103.513 303.497 103.417 303.484 103.313H303.59V103.598Z" fill="#278EAD"/>
<path d="M302.178 104.19C302.178 104.49 302.423 104.734 302.721 104.734C303.021 104.734 303.266 104.49 303.266 104.19C303.266 103.888 303.021 103.645 302.721 103.645C302.423 103.645 302.178 103.888 302.178 104.19Z" fill="#FFC50C"/>
<path d="M210.185 0.561523C210.177 0.561523 210.17 0.56 210.163 0.56C209.925 0.552392 209.737 0.421519 209.743 0.266307C209.748 0.117182 209.932 1.22786e-05 210.16 1.22786e-05C210.166 1.22786e-05 210.174 1.37687e-05 210.182 0.00153548C210.421 0.00762218 210.609 0.138494 210.603 0.293706C210.599 0.444352 210.413 0.561523 210.185 0.561523Z" fill="#A58975"/>
<path d="M120.933 127.344C112.004 127.344 104.766 126.449 104.766 125.347C104.766 124.959 105.661 124.597 107.21 124.29V125.565H107.718H108.498V124.07C110.675 123.746 113.662 123.509 117.075 123.407C117.092 123.456 117.11 123.506 117.129 123.554L117.004 123.565L117.135 124.209C116.82 124.11 116.465 124.056 116.086 124.056C115.978 124.056 115.868 124.06 115.757 124.069C114.404 124.182 113.364 124.947 113.434 125.782C113.446 125.93 113.494 126.07 113.57 126.199L113.986 126.164C113.986 126.164 113.986 126.164 113.985 126.166L116.74 125.934L118.267 125.811L119.098 125.743C119.097 125.743 119.097 125.743 119.096 125.743L119.226 125.73L119.26 125.501L119.086 123.391L118.927 123.405C118.921 123.391 118.915 123.378 118.909 123.364C119.573 123.353 120.247 123.349 120.933 123.349C121.349 123.349 121.761 123.351 122.169 123.355C122.163 123.369 122.156 123.384 122.15 123.398L121.918 123.378L121.738 125.388L121.728 125.483L121.761 125.714L122.72 125.798L124.246 125.934L127.415 126.22C127.492 126.092 127.541 125.953 127.552 125.804C127.627 124.97 126.593 124.197 125.241 124.076C125.12 124.064 125.001 124.06 124.884 124.06C124.516 124.06 124.169 124.113 123.863 124.208L123.997 123.564L123.946 123.559C123.967 123.501 123.988 123.443 124.009 123.386C126.687 123.45 129.13 123.594 131.162 123.8V125.565H132H132.453V123.946C135.327 124.306 137.101 124.801 137.101 125.347C137.101 126.449 129.863 127.344 120.933 127.344Z" fill="#677C7A"/>
<path d="M107.93 104.972C107.727 104.972 107.562 105.136 107.562 105.342V106.984V113.26V114.901C107.562 115.105 107.727 115.271 107.93 115.271C108.135 115.271 108.299 115.105 108.299 114.901V113.26V106.984V105.342C108.299 105.136 108.135 104.972 107.93 104.972Z" fill="#5E3E23"/>
<path d="M131.894 104.972C131.69 104.972 131.525 105.136 131.525 105.342V106.737V113.261V114.654C131.525 114.86 131.69 115.024 131.894 115.024C132.097 115.024 132.265 114.86 132.265 114.654V113.261V106.737V105.342C132.265 105.136 132.097 104.972 131.894 104.972Z" fill="#5E3E23"/>
<path d="M107.21 125.565H108.498V117.88H107.21V125.565Z" fill="#75686B"/>
<path d="M107.21 125.565H107.718V117.926H107.21V125.565Z" fill="#594A47"/>
<path d="M108.816 118.76H106.89V117.88H108.816V118.76Z" fill="#231F20"/>
<path d="M104.944 113.872H134.49V111.897H104.944V113.872Z" fill="#B37542"/>
<path d="M134.49 113.872H129.156V113.095H134.49V113.872ZM111.471 113.872H109.345L109.373 113.633L109.415 113.293L109.439 113.095H111.471V113.872ZM107.66 113.872H104.944V113.095H107.596L107.66 113.872Z" fill="#88532C"/>
<path d="M104.944 111.75H134.49V109.776H104.944V111.75Z" fill="#B37542"/>
<path d="M134.49 111.75H129.156V111.394H134.49V111.75ZM111.471 111.75H109.48L109.523 111.646L109.955 111.655L109.958 111.588H109.956L109.959 111.497L109.419 111.48V111.481L109.415 111.48L109.307 111.75H108.299H107.563H104.944V111.394H111.471V111.75Z" fill="#88532C"/>
<path d="M104.944 109.627H134.49V107.651H104.944V109.627Z" fill="#B37542"/>
<path d="M134.49 109.633H132.265V109.627H134.49V109.43V109.633Z" fill="#3E6A69"/>
<path d="M129.156 109.633H130.451V109.627H129.156V109.633Z" fill="#34433E"/>
<path d="M130.452 109.633H131.525V109.627H130.452V109.633Z" fill="#3E6A69"/>
<path d="M108.299 109.633H108.7V109.627H108.299V109.633Z" fill="#151B19"/>
<path d="M104.944 109.633H106.881V109.627H104.944V109.633Z" fill="#787E77"/>
<path d="M106.881 109.633H107.563V109.627H106.881V109.633Z" fill="#151B19"/>
<path d="M107.562 109.633H108.299V109.627H107.562V109.633Z" fill="#482C17"/>
<path d="M131.525 109.633H132.264V109.627H131.525V109.633Z" fill="#482C17"/>
<path d="M134.49 109.627H129.156V109.43H134.49V109.627ZM108.7 109.627H108.299H107.563H106.881H104.944V109.43H109.684C109.384 109.456 109.08 109.47 108.774 109.47C108.75 109.47 108.725 109.47 108.701 109.47L108.7 109.627Z" fill="#88532C"/>
<path d="M104.944 107.505H134.49V105.529H104.944V107.505Z" fill="#B37542"/>
<path d="M134.49 106.615L129.156 106.483V105.529H134.49V106.615ZM111.471 106.041L104.944 105.88V105.529H111.471V106.041Z" fill="#C69873"/>
<path d="M104.944 108V107.652H111.471V107.992L104.944 108ZM129.156 107.973V107.652H134.49V107.967L129.156 107.973Z" fill="#BD865A"/>
<path d="M104.944 112.616V111.897H109.248L109.024 112.454H107.702V112.491H107.579V112.581L104.944 112.616ZM109.465 112.555V112.491H109.342V112.454H109.196L109.421 111.897H111.471V112.527L109.465 112.555ZM129.156 112.285V111.983V111.897H134.49V112.212L129.156 112.285Z" fill="#BD865A"/>
<path d="M134.49 110.337L129.261 110.299L129.262 110.231C129.227 110.231 129.191 110.229 129.156 110.229V109.776H134.49V110.337ZM129.373 109.915L129.377 109.924L129.373 109.915ZM108.697 110.149L104.944 110.122V109.776H108.699L108.697 110.149Z" fill="#BD865A"/>
<path d="M134.49 107.505H129.156V107.416H134.49V107.505ZM111.471 107.505H108.299H107.563H104.944V107.416H111.471V107.505Z" fill="#88532C"/>
<path d="M108.926 118.502H108.723V118.218H108.926V118.502Z" fill="#231F20"/>
<path d="M108.885 118.436H109.03V118.288H108.885V118.436Z" fill="#231F20"/>
<path d="M109.098 118.547H109.001V118.176H109.098V118.547Z" fill="#231F20"/>
<path d="M131.162 125.565H132.453V117.88H131.162V125.565Z" fill="#75686B"/>
<path d="M131.162 125.565H131.999V117.926H131.162V125.565Z" fill="#594A47"/>
<path d="M130.842 118.76H132.769V117.88H130.842V118.76Z" fill="#231F20"/>
<path d="M130.734 118.502H130.935V118.218H130.734V118.502Z" fill="#231F20"/>
<path d="M130.774 118.436H130.63V118.288H130.774V118.436Z" fill="#231F20"/>
<path d="M130.564 118.547H130.658V118.176H130.564V118.547Z" fill="#231F20"/>
<path d="M104.944 117.926H134.49V114.109H104.944V117.926Z" fill="#8C5C34"/>
<path d="M134.49 115.086L129.156 114.957V114.109H134.49V115.086ZM111.471 114.528L109.272 114.475L109.316 114.109H111.471V114.528ZM107.705 114.437L104.944 114.37V114.109H107.679L107.705 114.437Z" fill="#7E532F"/>
<path d="M104.944 117.926H134.49V116.98H104.944V117.926Z" fill="#664326"/>
<path d="M134.49 117.926H104.944V117.637H134.49V117.926Z" fill="#4A311C"/>
<path d="M124.539 102.502C124.539 102.9 124.208 103.222 123.798 103.222C123.388 103.222 123.059 102.9 123.059 102.502C123.059 102.102 123.388 101.778 123.798 101.778C124.208 101.778 124.539 102.102 124.539 102.502Z" fill="#D19C71"/>
<path d="M124.046 102.57C124.046 104.94 122.408 106.863 120.394 106.863C118.375 106.863 116.74 104.94 116.74 102.57C116.74 100.196 118.375 98.2747 120.394 98.2747C122.408 98.2747 124.046 100.196 124.046 102.57Z" fill="#E7B184"/>
<path d="M123.384 105.033H122.985C122.969 105.022 122.96 105.016 122.96 105.016L121.944 104.331L121.759 104.345C121.917 103.777 122.005 103.158 122.005 102.51C122.005 100.717 121.339 99.1516 120.339 98.2766L120.393 98.2749C122.408 98.2749 124.045 100.197 124.045 102.571C124.045 103.487 123.801 104.336 123.384 105.033Z" fill="#D59E71"/>
<path d="M117.789 102.451C117.789 102.849 117.459 103.174 117.048 103.174C116.64 103.174 116.309 102.849 116.309 102.451C116.309 102.054 116.64 101.729 117.048 101.729C117.459 101.729 117.789 102.054 117.789 102.451Z" fill="#E7B184"/>
<path d="M122.961 105.016L121.944 104.331L120.461 104.439L118.979 104.331L117.962 105.016C117.962 105.016 117.347 105.389 117.53 106.168C117.713 106.947 119.165 107.901 119.394 108.234C119.543 108.453 119.555 108.521 119.554 108.543C119.589 108.462 119.885 107.84 120.154 107.717C120.394 107.603 120.529 107.603 120.77 107.717C121.037 107.84 121.335 108.462 121.37 108.543C121.367 108.521 121.381 108.453 121.529 108.234C121.76 107.901 123.21 106.947 123.394 106.168C123.578 105.389 122.961 105.016 122.961 105.016Z" fill="#543830"/>
<path d="M122.734 103.167C122.844 103.41 122.904 103.748 122.702 103.96C122.538 104.129 122.236 104.199 122.01 104.118C121.776 104.036 121.641 103.831 121.458 103.679C121.276 103.53 120.994 103.395 120.752 103.465L120.382 103.758L120.011 103.465C119.768 103.395 119.486 103.53 119.304 103.679C119.12 103.831 118.985 104.036 118.752 104.118C118.525 104.199 118.223 104.129 118.059 103.96C117.854 103.748 117.917 103.41 118.028 103.167C117.513 103.565 117.403 104.506 118.015 104.881C118.443 105.145 118.964 104.966 119.367 104.75C119.693 104.576 120.001 104.384 120.382 104.543C120.761 104.384 121.071 104.576 121.393 104.75C121.797 104.966 122.319 105.145 122.747 104.881C123.358 104.506 123.249 103.565 122.734 103.167Z" fill="#543830"/>
<path d="M120.517 102.052H120.146V101.903H120.517V102.052Z" fill="#231F20"/>
<path d="M122.711 101.957L122.666 101.818L123.791 101.472L123.837 101.612L122.711 101.957Z" fill="#231F20"/>
<path d="M117.894 101.957L116.768 101.612L116.813 101.472L117.938 101.818L117.894 101.957Z" fill="#231F20"/>
<path d="M123.432 98.15C122.223 97.5843 120.553 98.6055 120.553 98.6055C120.553 98.6055 121.505 99.7603 122.095 100.29C122.687 100.819 123.963 101.797 123.963 101.797C123.963 101.797 125.395 99.0679 123.432 98.15Z" fill="#543830"/>
<path d="M119.608 103.342C119.739 103.65 120.025 103.864 120.359 103.864C120.692 103.864 120.98 103.65 121.109 103.342H119.608Z" fill="#E7B184"/>
<path d="M119.038 100.949C118.65 100.949 118.306 101.165 118.14 101.513C117.89 102.026 118.104 102.656 118.615 102.919C118.763 102.995 118.922 103.035 119.086 103.035C119.471 103.035 119.816 102.819 119.985 102.47C120.232 101.957 120.018 101.329 119.507 101.065C119.358 100.99 119.201 100.949 119.038 100.949ZM119.086 103.184C118.901 103.184 118.714 103.137 118.547 103.049C117.965 102.75 117.722 102.032 118.005 101.448C118.198 101.049 118.594 100.804 119.038 100.804C119.223 100.804 119.409 100.848 119.575 100.933C120.155 101.235 120.398 101.951 120.116 102.536C119.923 102.935 119.527 103.184 119.086 103.184Z" fill="#231F20"/>
<path d="M121.627 100.949C121.243 100.949 120.897 101.165 120.729 101.513C120.481 102.026 120.695 102.656 121.206 102.919C121.352 102.995 121.513 103.035 121.675 103.035C122.062 103.035 122.407 102.819 122.574 102.47C122.821 101.957 122.609 101.329 122.1 101.065C121.951 100.99 121.791 100.949 121.627 100.949ZM121.675 103.184C121.49 103.184 121.304 103.137 121.138 103.049C120.556 102.75 120.314 102.032 120.595 101.448C120.79 101.049 121.184 100.804 121.627 100.804C121.815 100.804 121.999 100.848 122.167 100.933C122.747 101.235 122.989 101.951 122.708 102.536C122.514 102.935 122.119 103.184 121.675 103.184Z" fill="#231F20"/>
<path d="M121.569 98.8336C121.569 98.8336 120.628 101.177 117.275 101.729C115.866 101.96 115.417 101.687 115.417 101.687C115.417 101.687 115.648 99.4832 117.613 98.5197C119.404 97.6388 120.448 97.8094 121.013 97.9794C121.579 98.147 121.569 98.8336 121.569 98.8336Z" fill="#543830"/>
<path d="M123.974 102.201L123.967 102.202V102.802H123.974C124.142 102.802 124.28 102.666 124.28 102.502C124.28 102.334 124.142 102.201 123.974 102.201Z" fill="#B38966"/>
<path d="M116.773 102.201L116.776 102.202V102.802H116.773C116.681 102.802 116.605 102.666 116.605 102.502C116.605 102.334 116.681 102.201 116.773 102.201Z" fill="#B38966"/>
<path d="M118.614 101.649L118.598 101.679C118.432 102.014 118.575 102.431 118.914 102.604C119.25 102.778 119.655 102.645 119.821 102.306C119.923 102.09 119.904 101.845 119.788 101.649H118.614Z" fill="white"/>
<path d="M120.935 101.649L120.917 101.679C120.754 102.014 120.895 102.431 121.233 102.604C121.569 102.778 121.975 102.645 122.14 102.306C122.245 102.09 122.224 101.845 122.109 101.649H120.935Z" fill="white"/>
<path d="M118.944 102.247L119.061 102.595L119.4 102.482L119.285 102.136L118.944 102.247Z" fill="#231F20"/>
<path d="M119.066 102.101L119.14 102.304L119.346 102.242L119.271 102.041L119.066 102.101Z" fill="white"/>
<path d="M121.265 102.247L121.382 102.595L121.721 102.482L121.605 102.136L121.265 102.247Z" fill="#231F20"/>
<path d="M121.527 102.172L121.582 102.32L121.731 102.278L121.674 102.131L121.527 102.172Z" fill="white"/>
<path d="M110.558 116.31H130.734V115.738H110.558V116.31Z" fill="#6B4122"/>
<path d="M108.025 108.927C107.978 108.735 107.831 108.355 107.651 108.254L107.517 108.423C107.531 108.575 107.603 108.726 107.658 108.863C107.976 109.658 106.982 109.195 106.633 109.027C106.432 108.931 106.233 108.829 106.025 108.742C105.812 108.655 105.622 108.826 105.869 108.959C106.132 109.103 106.413 109.225 106.67 109.385L106.883 109.605L106.557 109.598C106.331 109.517 106.099 109.442 105.866 109.383C105.77 109.36 105.144 109.249 105.351 109.544L105.866 109.704C106.061 109.758 106.245 109.826 106.436 109.885L106.703 109.97V110.089C106.482 110.089 106.256 110.046 106.04 110.018L105.434 110.004C105.278 110.267 105.829 110.277 105.951 110.295L106.353 110.359C106.49 110.372 106.728 110.342 106.848 110.416C107.143 110.602 106.495 110.801 106.38 110.835L105.994 111.002C105.85 111.217 106.189 111.166 106.276 111.141C106.553 111.057 106.836 110.945 107.12 110.896C107.587 110.817 108.232 110.984 108.531 110.509C108.695 110.25 108.705 109.893 108.528 109.642C108.356 109.4 108.1 109.233 108.025 108.927C108.16 109.473 108.001 108.825 108.025 108.927Z" fill="#FFE3CC"/>
<path d="M109.257 110.447L108.343 110.526L108.261 109.61L109.18 109.529L109.257 110.447Z" fill="#FFE3CC"/>
<path d="M108.778 110.578H108.694L108.701 109.47C112.005 109.493 115.036 107.987 116.598 105.538L117.532 106.136C115.777 108.883 112.431 110.578 108.778 110.578Z" fill="#231F20"/>
<path d="M129.245 111.339C124.705 111.27 121.805 108.969 121.854 105.471L122.961 105.487C122.921 108.355 125.334 110.174 129.262 110.231L129.245 111.339Z" fill="#231F20"/>
<path d="M117.552 124.523C116.554 122.54 116.209 120.134 116.578 117.741C116.949 115.335 118.003 113.215 119.544 111.772L120.723 113.03C118.09 115.494 117.356 120.303 119.09 123.75L117.552 124.523Z" fill="#231F20"/>
<path d="M119.086 123.392L117.004 123.565L117.134 124.209C116.73 124.081 116.259 124.027 115.756 124.069C114.404 124.182 113.363 124.947 113.434 125.782C113.446 125.931 113.494 126.07 113.57 126.2L116.74 125.935L118.267 125.812L119.225 125.731L119.26 125.501L119.086 123.392Z" fill="#E82F0B"/>
<path d="M123.524 124.523L121.984 123.75C123.717 120.303 122.987 115.494 120.354 113.03L121.531 111.772C123.074 113.215 124.128 115.335 124.497 117.741C124.866 120.134 124.52 122.54 123.524 124.523Z" fill="#231F20"/>
<path d="M121.918 123.378L123.997 123.564L123.863 124.208C124.266 124.081 124.741 124.029 125.241 124.076C126.593 124.197 127.627 124.97 127.552 125.804C127.541 125.953 127.492 126.092 127.415 126.22L124.246 125.934L122.72 125.798L121.761 125.714L121.727 125.483L121.737 125.398L121.918 123.378Z" fill="#E82F0B"/>
<path d="M120.314 115.917H129.157V105.033H120.314V115.917Z" fill="#E6D9CF"/>
<path d="M120.314 115.917H129.157V105.033H120.314V115.917Z" fill="#E6D9CF"/>
<path d="M111.471 115.917H129.156V105.033H111.471V115.917Z" fill="#FAF6F3"/>
<path d="M111.471 105.033V115.916H120.313V105.033H111.471Z" fill="#D6C2B2"/>
<path d="M111.988 106.777H119.638V105.588H111.988V106.777Z" fill="#CBB4A2"/>
<path d="M116.746 108.565H119.638V107.085H116.746V108.565Z" fill="#CBB4A2"/>
<path d="M116.746 114.16H119.638V108.87H116.746V114.16Z" fill="#CBB4A2"/>
<path d="M112.059 108.565H116.553V107.085H112.059V108.565Z" fill="#CBB4A2"/>
<path d="M112.059 114.16H116.553V108.87H112.059V114.16Z" fill="#CBB4A2"/>
<path d="M111.865 115.252H119.638V114.597H111.865V115.252Z" fill="#CBB4A2"/>
<path d="M120.88 106.777H128.533V105.588H120.88V106.777Z" fill="#EDE5DD"/>
<path d="M125.641 107.906H128.533V107.085H125.641V107.906Z" fill="#EDE5DD"/>
<path d="M126.868 111.002H125.641V108.074H128.533V110.43C128.35 110.411 128.167 110.372 128.049 110.348C127.831 110.302 127.611 110.249 127.393 110.213C127.375 110.209 127.359 110.209 127.342 110.209C127.145 110.209 127.038 110.394 127.29 110.459C127.578 110.537 127.884 110.589 128.165 110.686L128.425 110.849L128.109 110.919C127.869 110.89 127.627 110.875 127.385 110.873C127.381 110.873 127.378 110.873 127.374 110.873C127.28 110.873 126.937 110.897 126.868 111.002Z" fill="#EDE5DD"/>
<path d="M128.397 112.057H125.641V111.238H128.198L128.338 111.249L128.366 111.363C128.149 111.413 127.919 111.425 127.703 111.45L127.112 111.578C127.064 111.733 127.195 111.771 127.345 111.771C127.477 111.771 127.624 111.742 127.682 111.737L128.089 111.708L128.533 111.654V111.953C128.49 111.991 128.442 112.026 128.397 112.057Z" fill="#EDE5DD"/>
<path d="M128.533 114.394H125.641V112.227H128.14L127.89 112.417C127.849 112.527 127.891 112.56 127.956 112.56C128.036 112.56 128.151 112.51 128.194 112.484C128.307 112.419 128.419 112.347 128.533 112.279V114.394Z" fill="#EDE5DD"/>
<path d="M124.107 107.906H125.382V107.085H124.107V107.906Z" fill="#EDE5DD"/>
<path d="M120.909 111.002H123.733V107.085H120.909V111.002Z" fill="#EDE5DD"/>
<path d="M124.107 111.002H125.382V108.074H124.107V111.002Z" fill="#EDE5DD"/>
<path d="M124.107 112.057H125.382V111.238H124.107V112.057Z" fill="#EDE5DD"/>
<path d="M124.107 114.394H125.382V112.227H124.107V114.394Z" fill="#EDE5DD"/>
<path d="M122.642 114.394H123.733V111.734H122.642V114.394Z" fill="#EDE5DD"/>
<path d="M120.916 114.394H122.461V111.734H120.916V114.394Z" fill="#EDE5DD"/>
<path d="M122.642 111.573H123.733V111.238H122.642V111.573Z" fill="#EDE5DD"/>
<path d="M120.916 111.573H122.461V111.238H120.916V111.573Z" fill="#EDE5DD"/>
<path d="M120.757 115.252H128.533V114.597H120.757V115.252Z" fill="#EDE5DD"/>
<path d="M129.373 109.915L129.378 109.924L129.373 109.915Z" fill="#C2B5A9"/>
<path d="M113.985 126.166C113.986 126.165 113.986 126.165 113.986 126.165L116.74 125.934L118.267 125.812L119.095 125.743C119.097 125.743 119.097 125.743 119.098 125.743L118.267 125.812L116.74 125.934L113.985 126.166Z" fill="#4E5851"/>
<path d="M113.986 126.165C114.492 125.719 115.62 125.407 116.928 125.407C117.761 125.407 118.523 125.532 119.095 125.743L118.267 125.812L116.74 125.934L113.986 126.165Z" fill="#B12107"/>
<path d="M121.727 125.483L121.738 125.388L121.737 125.398L121.727 125.483Z" fill="#4E5851"/>
<path d="M127.415 126.22L124.246 125.934L122.72 125.798L121.761 125.714L121.727 125.483L121.737 125.398L121.738 125.388C121.963 125.377 122.198 125.371 122.441 125.371C123.041 125.371 123.69 125.405 124.367 125.477C125.546 125.598 126.625 125.814 127.484 126.081L127.415 126.22Z" fill="#B12107"/>
<path d="M115.681 124.069C115.794 124.073 116.038 124.056 116.183 123.909C116.389 123.704 116.443 123.471 116.36 123.387L116.25 123.349L115.84 123.564C115.693 123.711 115.678 123.959 115.681 124.069ZM115.701 124.19L115.614 124.189L115.566 124.184L115.559 124.132C115.558 124.116 115.518 123.707 115.753 123.475C115.908 123.319 116.096 123.225 116.25 123.225L116.45 123.302C116.592 123.447 116.516 123.752 116.27 123.996C116.101 124.166 115.84 124.19 115.701 124.19Z" fill="#E82F0B"/>
<path d="M115.331 123.413L115.279 123.428L115.233 123.504L115.325 123.877C115.417 124.018 115.606 124.076 115.699 124.098C115.72 124.007 115.751 123.812 115.661 123.67C115.553 123.495 115.413 123.413 115.331 123.413ZM115.782 124.236L115.732 124.232C115.719 124.227 115.372 124.181 115.224 123.942C115.123 123.78 115.083 123.608 115.112 123.477L115.215 123.323C115.366 123.23 115.614 123.358 115.768 123.603C115.916 123.845 115.804 124.176 115.8 124.19L115.782 124.236Z" fill="#E82F0B"/>
<path d="M124.672 123.377L124.627 123.384L124.557 123.541L124.633 123.838C124.709 123.988 124.898 124.06 124.986 124.086C125.018 123.997 125.068 123.801 124.992 123.651C124.897 123.471 124.759 123.377 124.672 123.377ZM125.061 124.227L125.014 124.217C125.001 124.215 124.652 124.145 124.522 123.891L124.432 123.535L124.569 123.276C124.728 123.195 124.967 123.342 125.1 123.597C125.231 123.847 125.089 124.17 125.083 124.185L125.061 124.227Z" fill="#E82F0B"/>
<path d="M124.982 124.03L125.273 124.122L125.366 124.101C125.52 124.024 125.597 123.864 125.535 123.748C125.478 123.634 125.296 123.6 125.145 123.676L124.982 124.03ZM125.273 124.247C125.086 124.247 124.893 124.119 124.885 124.113L124.854 124.094L124.856 124.06C124.856 124.043 124.874 123.679 125.09 123.567L125.321 123.508C125.466 123.508 125.59 123.576 125.646 123.692C125.737 123.868 125.637 124.101 125.419 124.212L125.273 124.247Z" fill="#E82F0B"/>
<path d="M114.581 123.524L114.445 123.605L114.297 123.908C114.494 123.814 114.583 123.661 114.596 123.573L114.588 123.524H114.581ZM115.899 124.329C115.893 124.328 115.101 124.176 114.716 124.206C114.513 124.222 114.34 124.165 114.246 124.06L114.173 124.081C113.991 124.127 113.855 124.105 113.776 124.014C113.613 123.83 113.746 123.458 113.761 123.416L113.877 123.459L113.867 123.932L114.144 123.959L114.181 123.952C114.154 123.862 114.154 123.704 114.363 123.515C114.504 123.384 114.592 123.39 114.643 123.416L114.716 123.587C114.703 123.704 114.598 123.89 114.371 124.007L114.707 124.081C115.111 124.051 115.891 124.201 115.924 124.208L115.899 124.329Z" fill="#E82F0B"/>
<path d="M125.902 124.331C125.486 124.331 124.993 124.149 124.967 124.142L125.012 124.023C125.019 124.028 125.831 124.329 126.202 124.157L126.347 124.002C126.515 123.524 125.818 122.937 125.812 122.929L125.893 122.834C125.922 122.862 126.66 123.486 126.464 124.04L126.253 124.268L125.902 124.331Z" fill="#E82F0B"/>
<path d="M124.976 124.271C124.847 124.271 124.652 124.262 124.479 124.203C124.226 124.119 124.16 123.886 124.16 123.774H124.283H124.22H124.283C124.283 123.784 124.286 124.01 124.518 124.086C124.779 124.174 125.102 124.143 125.108 124.143L125.118 124.268L124.976 124.271Z" fill="#E82F0B"/>
<path d="M119.011 124.918C118.674 124.906 118.406 124.644 118.406 124.323C118.406 124.026 118.626 123.784 118.923 123.73L119.011 124.918Z" fill="#B12107"/>
<path d="M121.982 124.996L122.073 123.809C122.366 123.859 122.591 124.106 122.591 124.398C122.591 124.722 122.319 124.984 121.982 124.996Z" fill="#B12107"/>
<path d="M125.31 124.533L125.513 124.665L125.719 124.533L125.513 124.401L125.31 124.533Z" fill="white"/>
<path d="M124.53 124.405L124.702 124.519L124.876 124.405L124.702 124.291L124.53 124.405Z" fill="white"/>
<path d="M116.243 124.421L116.468 124.325L116.647 124.491L116.421 124.586L116.243 124.421Z" fill="white"/>
<path d="M115.452 124.41L115.644 124.331L115.795 124.474L115.605 124.551L115.452 124.41Z" fill="white"/>
<path d="M128.533 112.279V112.227H128.14L128.226 112.162C128.255 112.147 128.322 112.107 128.396 112.057H128.533V111.953C128.67 111.837 128.761 111.707 128.583 111.647L128.533 111.654V111.238H128.198L128.057 111.228C127.857 111.212 127.661 111.19 127.462 111.184L126.924 111.147C126.854 111.087 126.844 111.039 126.868 111.002H128.533V110.43C128.606 110.438 128.678 110.442 128.747 110.442C128.896 110.442 129.024 110.419 129.088 110.353L129.156 110.419V111.337V111.394V111.751V111.982L128.96 112.049C128.814 112.113 128.672 112.193 128.533 112.279Z" fill="#968A7F"/>
<path d="M128.533 111.002H126.869C126.937 110.897 127.28 110.873 127.374 110.873C127.378 110.873 127.381 110.873 127.385 110.873C127.627 110.875 127.869 110.89 128.109 110.919L128.425 110.849L128.165 110.686C127.884 110.589 127.578 110.537 127.29 110.459C127.038 110.394 127.145 110.209 127.342 110.209C127.359 110.209 127.376 110.209 127.393 110.213C127.611 110.249 127.831 110.302 128.049 110.348C128.167 110.372 128.35 110.411 128.533 110.43V111.002Z" fill="#8E8073"/>
<path d="M128.533 112.057H128.397C128.442 112.026 128.49 111.991 128.533 111.953V112.057ZM127.345 111.771C127.195 111.771 127.064 111.733 127.112 111.578L127.703 111.45C127.919 111.425 128.149 111.413 128.366 111.363L128.338 111.249L128.198 111.238H128.533V111.654L128.089 111.708L127.682 111.737C127.624 111.742 127.477 111.771 127.345 111.771Z" fill="#8E8073"/>
<path d="M127.956 112.56C127.891 112.56 127.849 112.527 127.891 112.418L128.141 112.227H128.534V112.279C128.419 112.347 128.307 112.419 128.194 112.484C128.151 112.51 128.036 112.56 127.956 112.56Z" fill="#8E8073"/>
<path d="M129.531 109.926L129.533 109.931L129.531 109.926ZM129.49 109.828L129.529 109.923L129.49 109.828ZM129.451 109.741L129.481 109.809L129.451 109.741ZM130.065 110.35C129.853 110.139 129.573 110.018 129.446 109.731L129.451 109.739L129.446 109.731C129.395 109.611 129.284 109.415 129.156 109.277V109.893C129.35 110.413 128.433 110.164 128.092 110.067C127.878 110.008 127.664 109.943 127.445 109.891C127.221 109.84 127.062 110.042 127.328 110.132C127.611 110.228 127.911 110.301 128.187 110.413L128.437 110.596L128.116 110.641C127.876 110.6 127.639 110.57 127.398 110.552C127.297 110.543 126.663 110.543 126.919 110.797L127.454 110.867C127.652 110.885 127.847 110.919 128.044 110.95L128.323 110.986L128.342 111.103C128.124 111.141 127.895 111.138 127.676 111.146L127.08 111.238C126.969 111.521 127.511 111.433 127.636 111.433C127.773 111.431 127.907 111.437 128.044 111.427C128.183 111.419 128.412 111.346 128.542 111.399C128.86 111.532 128.258 111.842 128.152 111.891L127.802 112.125C127.697 112.358 128.02 112.252 128.102 112.211C128.361 112.083 128.622 111.923 128.893 111.827C129.336 111.667 130 111.72 130.218 111.204C130.333 110.919 130.283 110.567 130.065 110.35Z" fill="#FFE3CC"/>
<path d="M129.443 109.72L129.445 109.732L129.443 109.72Z" fill="#FFE3CC"/>
<path d="M109.959 111.497L109.419 111.48V111.481L109.415 111.48L108.74 113.158L108.887 113.216L109.523 111.646L109.954 111.655L109.959 111.497Z" fill="#FFE7D4"/>
<path d="M109.48 111.75L109.523 111.646L109.954 111.655L109.956 111.588H109.958L109.954 111.655L109.523 111.646L109.48 111.75Z" fill="#723F1F"/>
<path d="M109.196 112.454H109.125L109.48 111.573L109.485 111.574V111.573L109.956 111.588L109.955 111.655L109.523 111.646L109.48 111.751L109.196 112.454Z" fill="#D6B094"/>
<path d="M108.424 116.16C108.381 116.16 108.338 116.16 108.294 116.16C108.251 116.16 108.208 116.16 108.166 116.16C107.474 116.16 106.932 116.157 106.932 116.018C106.932 115.904 107.298 115.805 107.812 115.767L107.824 115.913H108.219H109.098L109.111 115.804C109.44 115.852 109.654 115.93 109.654 116.018C109.654 116.157 109.112 116.16 108.424 116.16Z" fill="#6B4122"/>
<path d="M107.702 112.513H109.342V112.454H107.702V112.513Z" fill="#6B482D"/>
<path d="M109.097 115.913H107.824L107.579 112.878H109.465L109.097 115.913Z" fill="#FFCA9E"/>
<path d="M107.579 112.878H109.465V112.491H107.579V112.878Z" fill="#7B5334"/>
<path d="M107.54 112.878H109.503V112.775H107.54V112.878Z" fill="#6B482D"/>
<path d="M109.415 113.293L109.146 113.234C108.78 113.234 108.487 113.53 108.487 113.895V114.86C108.487 115.222 108.78 115.519 109.143 115.519L109.415 113.293Z" fill="#FBEDE2"/>
<path d="M108.219 115.913H107.824L107.579 112.878H108.273L108.219 115.913Z" fill="#E6AC80"/>
<path d="M108.28 112.491H107.702V112.454H108.281L108.28 112.491Z" fill="#613D25"/>
<path d="M108.275 112.775H107.579V112.491H108.28L108.275 112.775Z" fill="#6F472A"/>
<path d="M108.273 112.878H107.54V112.775H108.275L108.273 112.878Z" fill="#613D25"/>
<path d="M108.587 113.362L108.454 113.23L108.587 113.098L108.723 113.23L108.587 113.362Z" fill="#FFDCC1"/>
<path d="M109.364 112.707H108.775L108.725 112.66L108.775 112.608H109.364L109.412 112.66L109.364 112.707Z" fill="#A98F7C"/>
<path d="M108.567 112.707H108.466L108.42 112.66L108.466 112.608H108.567L108.615 112.66L108.567 112.707Z" fill="#A98F7C"/>
<path d="M162.142 139.657C161.74 139.657 161.326 139.645 160.905 139.619C157.111 139.385 154.097 138.192 154.173 136.944C154.225 136.133 155.547 135.501 157.499 135.218V136.04H159.296V135.064C159.497 135.058 159.701 135.055 159.91 135.055C160.322 135.055 160.748 135.067 161.182 135.095C164.974 135.322 167.99 136.519 167.911 137.771C167.847 138.885 165.359 139.657 162.142 139.657Z" fill="#677C7A"/>
<path d="M151.729 100.133L152.907 98.7802C154.753 100.386 156.361 103.019 157.499 105.234V100.158H159.296V100.688C160.459 99.2261 162.104 97.485 163.994 96.4335L164.867 97.9979C162.221 99.4756 159.989 102.685 159.296 103.75V136.04H157.499V109.527C156.977 108.23 154.591 102.619 151.729 100.133Z" fill="#3D4721"/>
<path d="M140.355 88.4492C140.355 86.2643 142.035 84.4716 144.17 84.2801C144.027 83.5496 143.949 82.7947 143.949 82.022C143.949 75.4965 149.235 70.2081 155.759 70.2081C159.396 70.2081 162.641 71.851 164.808 74.4362C165.078 74.4148 165.351 74.3951 165.627 74.3951C170.992 74.3951 175.346 78.7456 175.346 84.1155C175.346 86.1346 174.727 88.0112 173.669 89.5709C174.883 90.7182 175.646 92.3326 175.646 94.13C175.646 97.5978 172.831 100.41 169.366 100.41C167.473 100.41 165.778 99.5712 164.621 98.2457C162.853 100.125 160.344 101.311 157.553 101.311C155.803 101.311 154.166 100.84 152.747 100.03C151.62 101.705 149.704 102.807 147.536 102.807C144.068 102.807 141.256 99.9915 141.256 96.5297C141.256 94.8921 141.878 93.4162 142.899 92.2993C141.405 91.6603 140.355 90.1767 140.355 88.4492Z" fill="#90C72B"/>
<path d="M169.366 100.41C168.86 100.41 168.367 100.349 167.897 100.237C168.367 100.349 168.86 100.41 169.366 100.41C169.372 100.41 169.379 100.41 169.385 100.41C169.379 100.41 169.372 100.41 169.366 100.41Z" fill="#364241"/>
<path d="M169.393 100.41C169.397 100.41 169.402 100.41 169.407 100.41C169.402 100.41 169.397 100.41 169.393 100.41ZM169.413 100.41C169.417 100.41 169.422 100.41 169.426 100.41C169.422 100.41 169.417 100.41 169.413 100.41ZM169.432 100.41C169.437 100.41 169.442 100.408 169.446 100.408C169.442 100.408 169.437 100.41 169.432 100.41ZM169.451 100.408C169.457 100.408 169.461 100.408 169.466 100.408C169.461 100.408 169.457 100.408 169.451 100.408ZM169.47 100.408C169.475 100.408 169.481 100.408 169.487 100.408C169.481 100.408 169.475 100.408 169.47 100.408ZM169.49 100.408C169.496 100.408 169.501 100.408 169.507 100.408C169.501 100.408 169.496 100.408 169.49 100.408ZM169.51 100.408C169.516 100.408 169.521 100.408 169.527 100.407C169.522 100.408 169.516 100.408 169.51 100.408ZM169.53 100.407C169.536 100.407 169.542 100.407 169.548 100.407C169.542 100.407 169.536 100.407 169.53 100.407ZM169.55 100.407C169.556 100.407 169.562 100.407 169.568 100.407C169.562 100.407 169.556 100.407 169.55 100.407ZM169.568 100.407C170.434 100.38 171.255 100.176 171.998 99.8318C171.255 100.176 170.434 100.38 169.568 100.407ZM172.004 99.8299C172.006 99.8289 172.009 99.827 172.012 99.8258C172.009 99.827 172.007 99.8289 172.004 99.8299Z" fill="#364241"/>
<path d="M143.948 81.9929C143.948 81.9917 143.948 81.9899 143.948 81.9881C143.948 81.9899 143.948 81.9917 143.948 81.9929ZM143.948 81.9596C143.948 81.9578 143.948 81.9578 143.948 81.9565C143.948 81.9578 143.948 81.9578 143.948 81.9596ZM143.948 81.8984C143.948 81.8972 143.948 81.8954 143.948 81.8942C143.948 81.8954 143.948 81.8972 143.948 81.8984ZM143.948 81.8669C143.948 81.8633 143.948 81.8621 143.948 81.8604C143.948 81.8633 143.948 81.8633 143.948 81.8669ZM143.95 81.8027C143.95 81.8027 143.95 81.8015 143.95 81.7997C143.95 81.8015 143.95 81.8027 143.95 81.8027ZM143.952 81.7082C143.952 81.7082 143.952 81.707 143.952 81.7052C143.952 81.707 143.952 81.707 143.952 81.7082Z" fill="#468088"/>
<path d="M147.536 102.807C144.068 102.807 141.256 99.9915 141.256 96.5297C141.256 94.8921 141.878 93.4162 142.899 92.2993C141.405 91.6603 140.355 90.1767 140.355 88.4492C140.355 86.2643 142.035 84.4716 144.17 84.2801C144.027 83.5496 143.949 82.7947 143.949 82.0219C143.949 82.0125 143.949 82.0017 143.949 81.9929C143.949 81.9917 143.949 81.9898 143.949 81.988C143.949 81.9792 143.949 81.9685 143.949 81.9596C143.949 81.9577 143.949 81.9577 143.949 81.9565C143.949 81.9459 143.949 81.9364 143.949 81.9275C143.949 81.9168 143.949 81.9078 143.949 81.8984C143.949 81.8972 143.949 81.8954 143.949 81.8941C143.949 81.8847 143.949 81.8757 143.949 81.8669C143.949 81.8632 143.949 81.8632 143.949 81.8604C143.949 81.8514 143.949 81.8424 143.949 81.833C143.95 81.8223 143.95 81.8133 143.95 81.8027C143.95 81.8027 143.95 81.8015 143.95 81.7996C143.95 81.789 143.95 81.78 143.95 81.7694C143.952 81.7491 143.952 81.7295 143.952 81.7082C143.952 81.707 143.952 81.707 143.952 81.7051C144.09 76.4631 147.644 72.0793 152.469 70.6813C150.335 72.6998 148.946 75.509 148.786 78.6773C148.471 85.1913 153.49 90.7318 160.007 91.0528C160.201 91.0653 160.394 91.0694 160.587 91.0694C161.162 91.0694 161.727 91.0226 162.279 90.9434C162.367 93.0875 164.073 94.8434 166.255 94.9534C166.327 94.9563 166.397 94.9575 166.468 94.9575C168.107 94.9575 169.542 94.0064 170.225 92.6054C171.288 93.6778 172.733 94.3732 174.361 94.454C174.463 94.4588 174.565 94.4617 174.666 94.4617C174.994 94.4617 175.317 94.4355 175.63 94.3856C175.536 96.7942 174.089 98.8515 172.026 99.8191C172.021 99.8209 172.016 99.8238 172.012 99.8257C172.009 99.8269 172.006 99.8287 172.004 99.8298C172.003 99.8298 172 99.8316 171.998 99.8316C171.256 100.176 170.434 100.38 169.568 100.407C169.562 100.407 169.556 100.407 169.55 100.407C169.548 100.407 169.548 100.407 169.548 100.407C169.542 100.407 169.536 100.407 169.53 100.407C169.528 100.407 169.528 100.407 169.527 100.407C169.521 100.408 169.516 100.408 169.51 100.408C169.509 100.408 169.509 100.408 169.507 100.408C169.501 100.408 169.497 100.408 169.49 100.408C169.489 100.408 169.487 100.408 169.487 100.408C169.481 100.408 169.475 100.408 169.471 100.408C169.469 100.408 169.468 100.408 169.466 100.408C169.462 100.408 169.457 100.408 169.451 100.408C169.449 100.408 169.448 100.408 169.446 100.408C169.442 100.408 169.437 100.41 169.433 100.41C169.431 100.41 169.428 100.41 169.427 100.41C169.422 100.41 169.417 100.41 169.413 100.41C169.411 100.41 169.408 100.41 169.407 100.41C169.402 100.41 169.398 100.41 169.393 100.41C169.392 100.41 169.388 100.41 169.385 100.41C169.379 100.41 169.372 100.41 169.366 100.41C168.86 100.41 168.367 100.349 167.897 100.236C167.257 100.083 166.656 99.8316 166.108 99.4982C165.551 99.1587 165.049 98.7361 164.621 98.2457C164.289 98.5989 163.93 98.9276 163.548 99.2289C161.9 100.528 159.82 101.311 157.553 101.311C156.617 101.311 155.713 101.175 154.858 100.927C154.115 100.71 153.408 100.407 152.747 100.03C152.603 100.245 152.445 100.451 152.274 100.647C151.122 101.971 149.424 102.807 147.536 102.807Z" fill="#7BAA25"/>
<path d="M162.822 85.0623C162.541 85.0623 162.255 85.0361 161.969 84.9862C159.324 84.5094 157.56 81.9819 158.035 79.3374C158.454 76.9818 160.503 75.3264 162.818 75.3264C163.049 75.3264 163.282 75.3413 163.516 75.3763C162.022 75.9868 160.864 77.3211 160.561 79.0271C160.088 81.6716 161.849 84.2039 164.498 84.6741L164.662 84.6984C164.087 84.9326 163.465 85.0623 162.822 85.0623Z" fill="#7BAA25"/>
<path d="M171.05 89.5554C171.264 88.5146 170.956 87.3936 170.135 86.5988C169.513 86.0009 168.713 85.7042 167.914 85.7042C167.072 85.7042 166.232 86.0329 165.601 86.6873L165.528 86.7694C165.646 86.194 165.92 85.6465 166.357 85.1883C166.984 84.5357 167.824 84.2068 168.664 84.2068C169.466 84.2068 170.268 84.5052 170.89 85.1063C172.141 86.3069 172.196 88.2774 171.05 89.5554Z" fill="#7BAA25"/>
<path d="M283.796 121.423C283.516 121.423 283.227 121.413 282.932 121.397C280.299 121.234 278.204 120.405 278.259 119.536C278.292 118.974 279.211 118.538 280.567 118.341V119.515H281.812V118.235C281.956 118.23 282.104 118.227 282.255 118.227C282.536 118.227 282.827 118.236 283.123 118.253C285.757 118.413 287.85 119.249 287.795 120.116C287.748 120.886 286.027 121.423 283.796 121.423Z" fill="#536464"/>
<path d="M276.559 92.3843L277.379 91.4427C278.659 92.5567 279.777 94.3856 280.567 95.9251V92.4009H281.812V92.7647C282.621 91.756 283.766 90.5446 285.076 89.8128L285.683 90.9007C283.843 91.9266 282.296 94.1527 281.812 94.8939V119.515H280.567V98.9049C280.204 98.0056 278.546 94.1116 276.559 92.3843Z" fill="#3D4721"/>
<path d="M268.664 84.2723C268.664 82.7537 269.829 81.509 271.311 81.3764C271.213 80.8682 271.157 80.3434 271.157 79.806C271.157 75.2778 274.829 71.6061 279.356 71.6061C281.882 71.6061 284.137 72.7474 285.64 74.5413C285.828 74.5258 286.018 74.5123 286.208 74.5123C289.935 74.5123 292.958 77.533 292.958 81.2593C292.958 82.6639 292.527 83.9698 291.794 85.0487C292.636 85.8439 293.165 86.9656 293.165 88.2162C293.165 90.6207 291.211 92.5733 288.804 92.5733C287.489 92.5733 286.314 91.9931 285.513 91.0712C284.283 92.3771 282.541 93.1985 280.604 93.1985C279.389 93.1985 278.251 92.8746 277.267 92.3082C276.481 93.4726 275.153 94.2375 273.648 94.2375C271.239 94.2375 269.287 92.2855 269.287 89.8782C269.287 88.7476 269.72 87.7205 270.43 86.9443C269.392 86.5002 268.664 85.4701 268.664 84.2723Z" fill="#006B5A"/>
<path d="M288.804 92.5732C287.489 92.5732 286.314 91.993 285.512 91.0712C285.021 91.5948 284.446 92.0388 283.81 92.3842C284.446 92.0388 285.021 91.5948 285.512 91.0712C286.314 91.993 287.489 92.5732 288.804 92.5732C288.808 92.5732 288.813 92.5732 288.817 92.5732C288.813 92.5732 288.808 92.5732 288.804 92.5732Z" fill="#468088"/>
<path d="M288.82 92.5732C288.825 92.5732 288.828 92.5732 288.833 92.5732C288.828 92.5732 288.825 92.5732 288.82 92.5732ZM288.836 92.5732C288.839 92.5732 288.843 92.5732 288.846 92.5732C288.843 92.5732 288.84 92.5732 288.836 92.5732ZM288.851 92.5732C288.854 92.5732 288.857 92.5732 288.86 92.5732C288.857 92.5732 288.854 92.5732 288.851 92.5732ZM288.865 92.5732C288.868 92.5732 288.871 92.5732 288.874 92.5732C288.871 92.5732 288.868 92.5732 288.865 92.5732ZM288.878 92.5732C288.881 92.5732 288.884 92.5732 288.887 92.5732C288.884 92.5732 288.881 92.5732 288.878 92.5732ZM288.892 92.5732C288.895 92.5732 288.898 92.5732 288.903 92.5732C288.898 92.5732 288.895 92.5732 288.892 92.5732ZM288.906 92.5732C288.909 92.5732 288.912 92.5732 288.916 92.5714C288.913 92.5732 288.909 92.5732 288.906 92.5732ZM288.919 92.5714C288.922 92.5714 288.927 92.5714 288.93 92.5714C288.927 92.5714 288.922 92.5714 288.919 92.5714ZM288.932 92.5714C288.936 92.5714 288.941 92.5714 288.945 92.5714C288.941 92.5714 288.936 92.5714 288.932 92.5714ZM288.945 92.5714C289.513 92.553 290.055 92.427 290.548 92.2106C290.055 92.427 289.514 92.553 288.945 92.5714ZM290.554 92.2077C290.555 92.2077 290.557 92.2065 290.558 92.2065C290.557 92.2065 290.555 92.2077 290.554 92.2077Z" fill="#468088"/>
<path d="M271.157 79.8059C271.157 79.7988 271.157 79.7892 271.157 79.7814C271.157 79.791 271.157 79.7988 271.157 79.8059ZM271.157 79.7744C271.157 79.7679 271.157 79.7636 271.157 79.7571C271.157 79.7636 271.157 79.7679 271.157 79.7744ZM271.157 79.7482C271.157 79.7434 271.157 79.7374 271.157 79.7315C271.157 79.7374 271.157 79.7434 271.157 79.7482ZM271.157 79.7239C271.157 79.7178 271.157 79.7119 271.157 79.7053C271.157 79.7119 271.157 79.7178 271.157 79.7239ZM271.157 79.6994C271.157 79.6906 271.157 79.6828 271.157 79.675C271.157 79.6828 271.157 79.6906 271.157 79.6994ZM271.157 79.6691C271.159 79.6632 271.159 79.6566 271.159 79.6507C271.159 79.6566 271.159 79.6632 271.157 79.6691ZM271.159 79.6417C271.159 79.6358 271.159 79.6311 271.159 79.6264C271.159 79.6311 271.159 79.6358 271.159 79.6417ZM271.159 79.6157C271.159 79.6114 271.159 79.6049 271.159 79.6008C271.159 79.6049 271.159 79.6114 271.159 79.6157ZM271.16 79.5912C271.16 79.5853 271.16 79.5805 271.16 79.5746C271.16 79.5793 271.16 79.5871 271.16 79.5912ZM271.16 79.5668C271.16 79.5597 271.16 79.5521 271.16 79.5443C271.16 79.5521 271.16 79.5597 271.16 79.5668ZM271.162 79.5337C271.162 79.5288 271.162 79.5247 271.162 79.52C271.162 79.5247 271.162 79.5288 271.162 79.5337ZM271.162 79.5081C271.162 79.5045 271.162 79.5004 271.162 79.4956C271.162 79.5004 271.162 79.5045 271.162 79.5081ZM271.163 79.4836C271.163 79.4807 271.163 79.476 271.163 79.4711C271.163 79.476 271.163 79.4807 271.163 79.4836ZM271.163 79.4593C271.165 79.4564 271.165 79.4515 271.165 79.4486C271.165 79.4515 271.165 79.4564 271.163 79.4593ZM271.165 79.4255C271.166 79.4212 271.166 79.4183 271.166 79.4135C271.166 79.4183 271.166 79.4212 271.165 79.4255ZM271.166 79.3999C271.166 79.3969 271.166 79.394 271.168 79.3903C271.166 79.394 271.166 79.3969 271.166 79.3999ZM271.168 79.3754C271.168 79.3725 271.168 79.3707 271.168 79.3666C271.168 79.3695 271.168 79.3737 271.168 79.3754ZM271.169 79.3523C271.169 79.3494 271.169 79.3464 271.169 79.3451C271.169 79.3464 271.169 79.3494 271.169 79.3523ZM271.174 79.2662C271.174 79.2662 271.174 79.2625 271.174 79.2613C271.174 79.2643 271.174 79.2643 271.174 79.2662ZM271.175 79.2429C271.175 79.2429 271.175 79.2418 271.175 79.24C271.175 79.2418 271.175 79.2429 271.175 79.2429Z" fill="#B4B5BA"/>
<path d="M273.648 94.2375C273.506 94.2375 273.366 94.2316 273.228 94.2181C271.017 94.0064 269.287 92.1442 269.287 89.8782C269.287 88.7476 269.72 87.7205 270.43 86.9443C269.392 86.5002 268.664 85.4701 268.664 84.2723C268.664 82.7537 269.829 81.509 271.311 81.3764C271.213 80.8682 271.157 80.3434 271.157 79.806C271.157 79.7989 271.157 79.7911 271.157 79.7815C271.157 79.7787 271.157 79.7774 271.157 79.7745C271.157 79.768 271.157 79.7637 271.157 79.7572C271.157 79.7543 271.157 79.7513 271.157 79.7484C271.157 79.7435 271.157 79.7376 271.157 79.7316C271.157 79.73 271.157 79.7269 271.157 79.724C271.157 79.7179 271.157 79.712 271.157 79.7055C271.157 79.7044 271.157 79.7014 271.157 79.6995C271.157 79.6907 271.157 79.6829 271.157 79.6752C271.157 79.6723 271.157 79.6711 271.157 79.6692C271.158 79.6633 271.158 79.6568 271.158 79.6508C271.158 79.6479 271.158 79.6449 271.158 79.6419C271.158 79.6359 271.158 79.6312 271.158 79.6265C271.158 79.6234 271.158 79.6187 271.158 79.6158C271.158 79.6116 271.158 79.605 271.158 79.6009C271.158 79.5979 271.158 79.595 271.16 79.5913C271.16 79.5872 271.16 79.5795 271.16 79.5748C271.16 79.5719 271.16 79.5706 271.16 79.567C271.16 79.5598 271.16 79.5522 271.16 79.5445C271.16 79.5414 271.162 79.5367 271.162 79.5338C271.162 79.529 271.162 79.5248 271.162 79.5201C271.162 79.5153 271.162 79.5124 271.162 79.5083C271.162 79.5046 271.162 79.5005 271.162 79.4958C271.163 79.4909 271.163 79.488 271.163 79.4838C271.163 79.4809 271.163 79.4761 271.163 79.4713C271.163 79.4684 271.163 79.4637 271.163 79.4594C271.165 79.4565 271.165 79.4516 271.165 79.4488C271.165 79.441 271.165 79.4332 271.165 79.4256C271.166 79.4214 271.166 79.4185 271.166 79.4136C271.166 79.4089 271.166 79.4048 271.166 79.4001C271.166 79.397 271.166 79.3941 271.168 79.3905C271.168 79.3845 271.168 79.3816 271.168 79.3756C271.168 79.3739 271.168 79.3696 271.168 79.3667C271.168 79.362 271.169 79.3572 271.169 79.3524C271.169 79.3495 271.169 79.3465 271.169 79.3453C271.171 79.3191 271.172 79.2935 271.174 79.2663C271.174 79.2645 271.174 79.2645 271.174 79.2614C271.175 79.2555 271.175 79.249 271.175 79.243C271.175 79.243 271.175 79.242 271.175 79.2401C271.414 75.7556 273.831 72.8734 277.073 71.933C275.593 73.3346 274.626 75.2866 274.518 77.4855C274.296 82.0094 277.784 85.8564 282.309 86.0787C282.442 86.0859 282.573 86.0895 282.703 86.0895C283.105 86.0895 283.499 86.0574 283.884 86.0026C283.945 87.4893 285.132 88.7096 286.646 88.7869C286.695 88.7905 286.742 88.7905 286.789 88.7905C287.929 88.7905 288.926 88.1283 289.403 87.1558C290.141 87.9 291.146 88.3827 292.275 88.4404C292.346 88.4433 292.419 88.4445 292.491 88.4445C292.716 88.4445 292.938 88.4279 293.156 88.3928C293.087 90.1005 292.039 91.5539 290.558 92.2066C290.557 92.2066 290.555 92.2078 290.554 92.2078C290.552 92.2094 290.549 92.2094 290.548 92.2107C290.055 92.427 289.513 92.553 288.945 92.5715C288.941 92.5715 288.936 92.5715 288.932 92.5715C288.932 92.5715 288.932 92.5715 288.93 92.5715C288.927 92.5715 288.923 92.5715 288.92 92.5715C288.918 92.5715 288.917 92.5715 288.917 92.5715C288.912 92.5733 288.909 92.5733 288.906 92.5733C288.904 92.5733 288.903 92.5733 288.903 92.5733C288.898 92.5733 288.895 92.5733 288.892 92.5733C288.891 92.5733 288.889 92.5733 288.888 92.5733C288.885 92.5733 288.882 92.5733 288.878 92.5733C288.877 92.5733 288.875 92.5733 288.874 92.5733C288.871 92.5733 288.868 92.5733 288.865 92.5733C288.863 92.5733 288.862 92.5733 288.86 92.5733C288.857 92.5733 288.854 92.5733 288.851 92.5733C288.85 92.5733 288.848 92.5733 288.847 92.5733C288.843 92.5733 288.839 92.5733 288.836 92.5733C288.834 92.5733 288.834 92.5733 288.833 92.5733C288.828 92.5733 288.825 92.5733 288.821 92.5733C288.821 92.5733 288.819 92.5733 288.818 92.5733C288.813 92.5733 288.808 92.5733 288.804 92.5733C287.489 92.5733 286.314 91.9931 285.513 91.0712C285.021 91.5948 284.446 92.0389 283.81 92.3843C282.857 92.9032 281.766 93.1985 280.604 93.1985C279.954 93.1985 279.327 93.1059 278.733 92.9322C278.216 92.7813 277.725 92.5715 277.267 92.3082C277.165 92.4592 277.053 92.6036 276.935 92.7404C276.133 93.6581 274.958 94.2375 273.648 94.2375Z" fill="#005B4D"/>
<path d="M284.262 81.9187C284.066 81.9187 283.869 81.9015 283.67 81.8671C281.83 81.5383 280.61 79.7807 280.938 77.9422C281.228 76.3081 282.652 75.1592 284.257 75.1592C284.419 75.1592 284.581 75.1717 284.744 75.1942C283.709 75.6186 282.901 76.5441 282.691 77.7294C282.363 79.5644 283.588 81.3237 285.427 81.6507L285.539 81.6661C285.141 81.8301 284.708 81.9187 284.262 81.9187Z" fill="#005B4D"/>
<path d="M289.976 85.0378C290.123 84.3163 289.91 83.537 289.34 82.9878C288.908 82.571 288.352 82.3642 287.797 82.3642C287.212 82.3642 286.63 82.5925 286.191 83.0461L286.141 83.1036C286.225 82.7048 286.414 82.3233 286.718 82.0082C287.155 81.5529 287.737 81.3246 288.322 81.3246C288.877 81.3246 289.433 81.5314 289.866 81.947C290.734 82.7827 290.773 84.1493 289.976 85.0378Z" fill="#005B4D"/>
<path d="M142.413 119.869C142.187 119.869 141.951 119.858 141.709 119.834C140.135 119.684 138.904 119.079 138.961 118.497C139.008 117.996 139.956 117.663 141.198 117.663C141.429 117.663 141.668 117.673 141.916 117.698C143.488 117.845 144.722 118.443 144.662 119.037C144.615 119.535 143.66 119.869 142.413 119.869Z" fill="#677C7A"/>
<path d="M138.731 107.47L139.445 106.425L139.974 107.073L140.502 106.825L140.966 107.285L141.047 107.898L138.731 107.47Z" fill="#FFFAF2"/>
<path d="M142.721 107.832L142.01 106.789L141.48 107.435L140.949 107.188L140.487 107.653L140.402 108.265L142.721 107.832Z" fill="#FFFAF2"/>
<path d="M142.237 108.005L141.818 106.813L141.14 107.3L140.692 106.926L140.128 107.25L139.887 107.819L142.237 108.005Z" fill="#FFFAF2"/>
<path d="M141.817 118.254C141.815 118.429 141.672 118.568 141.497 118.564C141.324 118.564 141.184 118.417 141.187 118.244L141.199 115.745C141.202 115.572 141.347 115.432 141.52 115.439C141.694 115.439 141.834 115.583 141.83 115.753L141.817 118.254Z" fill="#0F1F19"/>
<path d="M144.661 116.752H138.356V107.425H144.661V116.752Z" fill="#7B8069"/>
<path d="M144.661 116.752H138.356V115.73H144.661V116.752Z" fill="#333B1B"/>
<path d="M144.661 108.455H138.356V107.425H144.661V108.455Z" fill="#333B1B"/>
<path d="M139.084 109C138.916 109 138.781 109.135 138.781 109.302V115.123C138.781 115.292 138.916 115.429 139.084 115.429C139.253 115.429 139.387 115.292 139.387 115.123V109.302C139.387 109.135 139.253 109 139.084 109Z" fill="#333B1B"/>
<path d="M140.297 109C140.128 109 139.993 109.135 139.993 109.302V115.123C139.993 115.292 140.128 115.429 140.297 115.429C140.464 115.429 140.6 115.292 140.6 115.123V109.302C140.6 109.135 140.464 109 140.297 109Z" fill="#333B1B"/>
<path d="M141.508 109C141.342 109 141.203 109.135 141.203 109.302V115.123C141.203 115.292 141.342 115.429 141.508 115.429C141.677 115.429 141.811 115.292 141.811 115.123V109.302C141.811 109.135 141.677 109 141.508 109Z" fill="#333B1B"/>
<path d="M142.721 109C142.552 109 142.418 109.135 142.418 109.302V115.123C142.418 115.292 142.552 115.429 142.721 115.429C142.889 115.429 143.023 115.292 143.023 115.123V109.302C143.023 109.135 142.889 109 142.721 109Z" fill="#333B1B"/>
<path d="M143.932 109C143.765 109 143.631 109.135 143.631 109.302V115.123C143.631 115.292 143.765 115.429 143.932 115.429C144.101 115.429 144.236 115.292 144.236 115.123V109.302C144.236 109.135 144.101 109 143.932 109Z" fill="#333B1B"/>
</svg>
