<svg width="1060" height="1024" viewBox="0 0 1060 1024" fill="none" xmlns="http://www.w3.org/2000/svg">
<path d="M1060 0H858.998C823.533 18.3824 789.675 39.3851 757.123 62.5645C757.087 62.5986 757.063 62.6122 757.026 62.6395C756.67 62.8988 756.319 63.1649 755.963 63.431C753.4 65.3689 750.85 67.3137 748.311 69.272C742.376 73.8574 736.502 78.5109 730.694 83.2396C719.041 92.7175 707.636 102.468 696.48 112.471C674.033 132.601 652.571 153.726 632.034 175.636C621.711 186.656 611.612 197.874 601.743 209.262C596.799 214.974 591.909 220.726 587.068 226.519C584.651 229.419 582.245 232.333 579.852 235.253C579.531 235.642 579.26 235.977 579.006 236.277C560.421 259.634 542.555 283.482 525.476 307.869C491.111 356.924 459.707 407.848 430.606 459.92C396.754 520.495 366.396 582.77 333.383 643.755C297.96 709.185 258.601 771.825 211.028 829.879C169.391 880.686 120.451 926.438 69.814 969.003C47.6368 987.638 24.324 1006.22 0 1024H1060V0Z" fill="#B5E7DA"/>
<path d="M989.331 918.786H697.69V369.359H989.331V918.786Z" fill="white"/>
<path d="M706.744 901.516H978.542V381.556H706.744V901.516ZM981.022 903.939H704.265V379.138H981.022V903.939Z" fill="#B5E7DA"/>
<path d="M957.75 680.948H902.325C899.038 680.948 896.346 678.358 896.346 675.193V674.445C896.346 671.281 899.038 668.691 902.325 668.691H957.75C961.037 668.691 963.722 671.281 963.722 674.446V675.193C963.722 678.358 961.037 680.948 957.75 680.948Z" fill="#B5E7DA"/>
<path d="M960.223 663.416C953.946 663.416 948.839 668.391 948.839 674.503C948.839 680.615 953.946 685.588 960.223 685.588C966.499 685.588 971.606 680.615 971.606 674.503C971.606 668.391 966.499 663.416 960.223 663.416ZM960.223 687.403C952.919 687.403 946.975 681.614 946.975 674.503C946.975 667.39 952.919 661.603 960.223 661.603C967.526 661.603 973.47 667.39 973.47 674.503C973.47 681.614 967.526 687.403 960.223 687.403Z" fill="#B5E7DA"/>
<path d="M1060 919L127 918.5L129.499 916H1060V919Z" fill="white"/>
<path d="M746.803 777.463C748.135 781.229 749.46 784.989 750.791 788.749C752.555 793.736 754.319 798.731 756.508 803.555C759.554 810.29 763.429 816.697 765.654 823.732C767.297 828.944 767.998 834.396 769.5 839.643C771.803 847.722 775.947 855.166 779.269 862.904C782.584 870.635 783.916 880.672 782.74 888.975C782.591 890.047 782.421 890.292 781.323 890.149C780.573 890.054 780.934 888.737 780.636 888.054C765.314 853.16 751.564 817.618 739.436 781.557C736.779 773.649 734.18 765.645 733.259 757.369C733.074 755.67 732.961 753.909 733.521 752.285C734.08 750.668 735.455 749.208 737.197 749.003C742.043 748.444 741.115 757.662 741.674 760.453C742.843 766.259 744.834 771.882 746.803 777.463Z" fill="#000543"/>
<path d="M680.915 785.78C681.156 790.407 682.24 794.958 682.828 799.557C684.217 810.351 682.842 821.296 683.374 832.165C684.295 850.97 690.904 869.741 687.539 888.279C686.852 885.639 686.512 882.93 686.165 880.221C680.979 839.616 675.787 798.881 675.9 757.962C675.907 756.243 675.978 754.359 677.147 753.077C682.268 747.42 682.488 762.52 682.439 764.205C682.24 771.418 680.547 778.548 680.915 785.78Z" fill="#000543"/>
<path d="M737.835 635.571C738.742 641.437 740.789 647.098 741.611 652.977C743.212 664.447 740.095 676.043 740.314 687.614C740.527 699.193 744.062 710.445 745.932 721.881C747.802 733.316 747.816 745.742 741.632 755.635C737.927 704.645 734.222 653.662 730.517 602.678C730.205 598.382 729.901 591.436 733.967 588.499C738.876 584.947 738.926 589.201 738.855 593.193C738.6 607.121 735.695 621.732 737.835 635.571Z" fill="white"/>
<path d="M802.215 626.152C797.674 625.144 793.112 624.128 788.812 622.388C784.172 620.51 780.545 618.755 775.735 617.352C770.485 615.823 764.174 614.953 758.988 613.25C752.421 611.093 747.087 606.186 743.368 600.496C739.649 594.807 737.382 588.339 735.434 581.865C734.768 579.65 734.222 576.994 735.781 575.252C737.991 572.775 742.249 574.403 744.643 576.713C748.546 580.475 750.834 585.502 753.994 589.871C761.935 600.845 774.934 607.151 787.678 612.278C794.033 614.835 800.472 617.214 806.677 620.106C810.156 621.728 822 626.246 822.043 630.439C815.419 629.633 808.732 627.6 802.215 626.152Z" fill="white"/>
<path d="M623.11 594.419C621.913 596.153 620.496 597.77 619.603 599.672C618.867 601.222 618.491 602.933 617.591 604.396C616.331 606.441 614.184 607.789 612.109 609.064C616.061 599.04 620.014 589.016 623.967 578.991C624.739 577.021 626.177 574.167 628.699 574.456C630.711 580.285 626.383 589.706 623.11 594.419Z" fill="white"/>
<path d="M556.811 524.904L564.504 534.403L556.244 539.976L549.777 530.581L556.811 524.904Z" fill="#FF9985"/>
<path d="M772.115 876.209L780.906 905.842L768.339 908.299L761.878 902.499L762.417 901.141L755.361 879.477L772.115 876.209Z" fill="#FF9985"/>
<path d="M762.955 900.111L745.769 905.808C741.561 907.2 740.768 910.066 742.439 912.195L782.273 911.294L780.672 902.751C780.388 901.223 779.021 900.111 777.427 900.111H762.955Z" fill="#88DCE5"/>
<path d="M782.273 911.294L782.712 912.741C782.988 913.641 781.869 914.481 780.389 914.494L749.432 914.822C746.052 914.856 743.63 913.71 742.44 912.195L782.273 911.294Z" fill="#000543"/>
<path d="M777.144 910.38H771.661C771.037 910.38 770.527 909.889 770.527 909.288V908.749C770.527 908.149 771.037 907.657 771.661 907.657H777.144C777.767 907.657 778.277 908.149 778.277 908.749V909.288C778.277 909.889 777.767 910.38 777.144 910.38Z" fill="#000543"/>
<path d="M677.274 876.073L678.273 906.477L665.352 907.542L660.521 901.08L661.392 899.783L660.039 877.492L677.274 876.073Z" fill="#FF9985"/>
<path d="M661.442 899.913L644.256 905.604C640.048 906.996 639.255 909.868 640.926 911.997L680.76 911.09L679.159 902.547C678.875 901.025 677.508 899.913 675.914 899.913H661.442Z" fill="#88DCE5"/>
<path d="M680.759 911.089L681.198 912.543C681.475 913.437 680.355 914.283 678.875 914.296L647.918 914.617C644.539 914.658 642.116 913.512 640.926 911.997L680.759 911.089Z" fill="#000543"/>
<path d="M675.63 910.182H670.147C669.524 910.182 669.014 909.691 669.014 909.09V908.551C669.014 907.951 669.524 907.46 670.147 907.46H675.63C676.254 907.46 676.764 907.951 676.764 908.551V909.09C676.764 909.691 676.254 910.182 675.63 910.182Z" fill="#000543"/>
<path d="M556.507 507.396C555.472 507.37 554.601 508.217 554.573 509.278L554.318 518.857C554.289 519.918 555.111 520.808 556.145 520.835C557.18 520.861 558.044 520.015 558.072 518.954L558.334 509.374C558.363 508.313 557.541 507.423 556.507 507.396Z" fill="#FF9985"/>
<path d="M539.958 522.638C539.37 521.168 538.924 519.62 539.186 518.363C539.399 517.39 540.008 516.682 540.652 516.039C542.303 514.384 544.209 512.994 546.334 511.902C548.282 510.901 550.875 510.227 553.411 511.877C555.855 513.473 557.342 516.132 557.895 518.707C558.95 523.585 559.283 525.336 557.732 529.147C555.791 533.918 552.022 535.542 546.865 530.55C544.209 527.98 541.233 525.834 539.958 522.638Z" fill="#FF9985"/>
<path d="M551.214 514.257L541.021 504.67C540.333 504.02 540.312 502.939 540.978 502.266C541.644 501.594 542.756 501.575 543.45 502.225L553.644 511.811C554.331 512.461 554.353 513.542 553.687 514.216C553.021 514.888 551.909 514.907 551.214 514.257Z" fill="#FF9985"/>
<path d="M546.915 516.613L536.721 507.027C536.034 506.377 536.012 505.296 536.678 504.623C537.344 503.95 538.456 503.932 539.151 504.58L549.344 514.168C550.032 514.817 550.053 515.9 549.387 516.572C548.721 517.244 547.609 517.264 546.915 516.613Z" fill="#FF9985"/>
<path d="M544.683 521.626L534.489 512.039C533.802 511.389 533.781 510.308 534.447 509.634C535.113 508.962 536.225 508.943 536.919 509.593L547.113 519.18C547.8 519.83 547.821 520.911 547.155 521.584C546.482 522.256 545.377 522.275 544.683 521.626Z" fill="#FF9985"/>
<path d="M544.407 526.876L534.213 517.29C533.526 516.64 533.505 515.558 534.171 514.886C534.837 514.213 535.949 514.194 536.636 514.843L546.83 524.43C547.524 525.08 547.545 526.162 546.872 526.835C546.207 527.507 545.094 527.526 544.407 526.876Z" fill="#FF9985"/>
<path d="M680.434 743.203C679.47 793.559 679.01 836.484 688.764 884.636C689.586 888.716 686.32 892.496 682.049 892.414L658.622 891.957C655.951 891.902 653.706 889.992 653.302 887.42C642.435 819.283 638.447 782.662 635.039 743.203H680.434Z" fill="#000543"/>
<path d="M738.876 747.939C739.018 761.21 743.467 774.563 753.377 799.482C762.381 822.121 773.234 859.171 782.28 885.305C784.03 890.361 780.962 894.414 775.479 894.311L755.843 893.95C751.486 893.875 747.576 891.289 745.897 887.372C736.163 864.623 728.938 849.203 717.61 825.581C702.621 794.344 693.581 775.491 691.988 753.889C691.853 751.992 691.768 750.088 691.69 748.184L691.492 743.203H738.82L738.876 747.939Z" fill="#000543"/>
<path d="M597.062 604.795L598.989 570.41C598.989 570.409 597.126 569.792 597.126 569.792L615.013 518.656C615.672 516.43 619.511 512.432 622.104 511.279C623.28 510.755 624.342 510.696 625.115 511.054L646.629 518.958L616.94 603.825C615.707 608.287 612.066 611.663 607.66 612.426C607.015 612.537 606.377 612.593 605.754 612.593C601.787 612.593 598.309 610.32 595.39 605.816L597.062 604.795Z" fill="white"/>
<path d="M632.695 747.7H709.443V665.288H632.695V747.7Z" fill="#A5D1F5"/>
<path d="M633.934 746.485H708.203V666.496H633.934V746.485ZM710.689 748.908H631.455V664.078H710.689V748.908Z" fill="#0959A7"/>
<path d="M660.379 490.692C660.974 490.574 661.569 490.458 662.157 490.342C663.552 490.07 664.969 489.819 666.4 489.59C678.96 487.578 692.611 487.215 705.404 487.681L702.337 674.746C701.345 674.723 700.354 674.701 699.355 674.678C680.695 674.254 662.036 673.831 643.377 673.407L659.918 490.784C660.074 490.754 660.23 490.722 660.379 490.692Z" fill="#6AC3D1"/>
<path d="M614.404 519.863C621.75 494.86 659.919 490.784 659.919 490.784L671.848 592.968L705.405 487.681C706.715 487.728 708.026 487.775 709.315 487.84C712.333 487.99 715.308 488.169 718.17 488.396C736.206 490.703 753.179 511.436 744.657 541.251L736.171 612.556C735.434 618.757 735.278 625.009 735.696 631.236L743.672 749.399C744.076 753.929 742.83 755.362 738.168 755.362L638.617 755.533C632.348 755.54 627.226 750.654 627.113 744.554L623.797 566.705L614.404 519.863Z" fill="white"/>
<path d="M638.921 756.898C632.029 756.898 626.326 751.446 626.199 744.732L622.883 562.593C622.869 561.925 623.415 561.375 624.102 561.363C624.824 561.32 625.356 561.882 625.363 562.551L628.685 744.691C628.784 750.095 633.375 754.482 638.921 754.482C639.63 754.482 640.182 755.021 640.189 755.69C640.189 756.365 639.58 756.864 638.921 756.898Z" fill="#D7E1FC"/>
<path d="M669.021 579.149C668.483 579.149 667.987 578.807 667.831 578.278L650.666 520.698C650.114 518.858 650.808 516.856 652.388 515.713L655.356 513.562L656.072 512.308L655.356 513.297L649.073 508.987C647.663 508.017 647.273 506.139 648.187 504.712L657.935 490.252C658.31 489.695 659.082 489.538 659.649 489.904C660.223 490.27 660.386 491.02 660.01 491.579L650.277 506.016C650.078 506.333 650.171 506.78 650.504 507.01L656.787 511.319C657.474 511.795 657.899 512.573 657.906 513.398C657.92 514.223 657.517 515.011 656.837 515.503L653.868 517.654C653.118 518.197 652.785 519.149 653.047 520.023L670.218 577.602C670.41 578.245 670.027 578.916 669.368 579.102C669.255 579.135 669.134 579.149 669.021 579.149Z" fill="#D7E1FC"/>
<path d="M629.513 548.062H646.04C648.088 548.062 649.752 546.463 649.752 544.49V538.059C649.752 536.086 648.088 534.487 646.04 534.487H629.513C627.466 534.487 625.809 536.086 625.809 538.059V544.49C625.809 546.463 627.466 548.062 629.513 548.062Z" fill="#D7E1FC"/>
<path d="M637.739 534.918C637.051 534.918 636.499 534.378 636.499 533.709V530.594C636.499 529.925 637.051 529.384 637.739 529.384C638.426 529.384 638.978 529.925 638.978 530.594V533.709C638.978 534.378 638.426 534.918 637.739 534.918Z" fill="#0959A7"/>
<path d="M677.968 577.106C677.777 577.106 677.579 577.061 677.394 576.967C676.785 576.655 676.551 575.926 676.87 575.333L705.567 522.285C706.007 521.48 705.879 520.483 705.256 519.805L702.79 517.117C702.224 516.503 701.997 515.655 702.174 514.848C702.358 514.04 702.925 513.361 703.704 513.03L710.746 510.037C711.121 509.877 711.305 509.458 711.164 509.083L704.271 488.651C704.058 488.017 704.413 487.335 705.064 487.125C705.716 486.919 706.417 487.262 706.63 487.898L713.509 508.285C714.089 509.817 713.324 511.58 711.738 512.255L704.703 515.247C704.703 515.247 704.639 515.505 704.646 515.507L707.112 518.194C708.422 519.621 708.684 521.718 707.763 523.414L679.073 576.461C678.847 576.872 678.414 577.106 677.968 577.106Z" fill="#D7E1FC"/>
<path d="M706.665 566.37L704.37 565.458C720.238 527.427 698.986 489.66 698.767 489.283L700.935 488.102C701.161 488.49 722.98 527.273 706.665 566.37Z" fill="#6D72A0"/>
<path d="M699.829 566.79C700.311 570.109 703.463 572.419 706.871 571.951C710.278 571.482 712.651 568.412 712.169 565.093C711.688 561.775 708.535 559.465 705.128 559.933C701.721 560.402 699.347 563.471 699.829 566.79Z" fill="#6D72A0"/>
<path d="M643.682 555.98H625.235C624.548 555.98 623.996 555.44 623.996 554.771C623.996 554.102 624.548 553.562 625.235 553.562H643.682C644.369 553.562 644.929 554.102 644.929 554.771C644.929 555.44 644.369 555.98 643.682 555.98Z" fill="#D7E1FC"/>
<path d="M649.051 583.238V580.819C651.998 580.819 652.317 577.812 652.317 576.518V542.901C652.317 540.529 650.334 538.6 647.904 538.6C645.467 538.6 643.483 540.529 643.483 542.901V576.518C643.483 580.486 644.822 580.819 646.076 580.819V583.238C642.711 583.238 641.004 580.977 641.004 576.518V542.901C641.004 539.195 644.1 536.182 647.904 536.182C651.708 536.182 654.804 539.195 654.804 542.901V576.518C654.804 580.599 652.544 583.238 649.051 583.238Z" fill="#6D72A0"/>
<path d="M645.757 537.018C645.219 512.138 658.239 491.558 658.367 491.352L660.478 492.634C660.35 492.833 647.719 512.829 648.244 536.966L645.757 537.018Z" fill="#6D72A0"/>
<path d="M647.769 581.924C647.769 582.676 648.393 583.286 649.165 583.286C649.937 583.286 650.567 582.676 650.567 581.924C650.567 581.172 649.937 580.562 649.165 580.562C648.393 580.562 647.769 581.172 647.769 581.924Z" fill="#452A51"/>
<path d="M644.567 582.044C644.567 582.796 645.197 583.406 645.97 583.406C646.742 583.406 647.365 582.796 647.365 582.044C647.365 581.291 646.742 580.681 645.97 580.681C645.197 580.681 644.567 581.291 644.567 582.044Z" fill="#452A51"/>
<path d="M672.585 618.853C671.642 618.853 670.87 619.599 670.87 620.518C670.87 621.436 671.642 622.183 672.585 622.183C673.527 622.183 674.292 621.436 674.292 620.518C674.292 619.599 673.527 618.853 672.585 618.853ZM672.585 624.602C670.268 624.602 668.391 622.769 668.391 620.518C668.391 618.267 670.268 616.434 672.585 616.434C674.894 616.434 676.778 618.267 676.778 620.518C676.778 622.769 674.894 624.602 672.585 624.602Z" fill="#F9D1B7"/>
<path d="M672.747 639.055C671.805 639.055 671.033 639.802 671.033 640.72C671.033 641.639 671.805 642.388 672.747 642.388C673.69 642.388 674.455 641.639 674.455 640.72C674.455 639.802 673.69 639.055 672.747 639.055ZM672.747 644.806C670.438 644.806 668.554 642.973 668.554 640.72C668.554 638.47 670.438 636.637 672.747 636.637C675.057 636.637 676.941 638.47 676.941 640.72C676.941 642.973 675.057 644.806 672.747 644.806Z" fill="#F9D1B7"/>
<path d="M570.051 528.814L602.906 572.288L600.894 604.736C600.816 605.976 599.973 607.002 598.755 607.348C598.472 607.429 598.181 607.466 597.905 607.466C596.97 607.466 596.077 607.035 595.503 606.261L551.356 546.717C549.146 543.745 549.705 539.615 552.617 537.295L564.185 528.092C565.991 526.654 568.669 526.983 570.051 528.814Z" fill="white"/>
<path d="M833.696 639.32L834.475 638.058C834.482 638.16 833.88 639.445 833.88 639.445C833.823 639.418 833.759 639.376 833.696 639.32ZM730.022 555.722L747.002 598.951C748.936 603.674 752.329 605.447 755.701 606.665L832.683 638.952C833.03 639.847 833.774 640.348 834.546 640.462C834.659 640.479 834.772 640.487 834.886 640.487C835.927 640.487 836.876 639.783 837.124 638.769C837.216 638.406 837.209 638.011 837.096 637.626L848.296 625.754L848.381 625.172C848.969 621.309 846.815 617.515 843.146 615.946L779.078 588.35C774.962 586.576 771.76 583.247 770.216 579.127L744.785 511.288L742.936 511.945L741.087 512.602L742.078 515.261L731.863 555.038L730.022 555.722Z" fill="white"/>
<path d="M820.406 655.198L777.831 639.84C774.133 638.506 772.249 634.504 773.623 630.902L798.707 564.94C800.082 561.342 804.183 559.505 807.874 560.837L850.449 576.195C854.14 577.529 856.031 581.532 854.657 585.134L829.565 651.094C828.198 654.694 824.097 656.53 820.406 655.198Z" fill="#6D72A0"/>
<path d="M807.782 564.83C805.912 564.157 803.837 565.085 803.149 566.903L780.219 627.18C779.524 629 780.481 631.021 782.351 631.696L822.418 646.152C824.288 646.826 826.364 645.898 827.051 644.079L849.847 584.161C850.605 582.172 849.564 579.964 847.523 579.224L807.782 564.83Z" fill="white"/>
<path d="M824.954 590.678L806.039 583.853C805.466 583.648 805.239 582.868 805.529 582.113C805.813 581.358 806.507 580.911 807.081 581.117L825.995 587.942C826.562 588.148 826.796 588.926 826.505 589.682C826.222 590.437 825.528 590.884 824.954 590.678Z" fill="#D7E1FC"/>
<path d="M836.295 594.768L829.778 592.418C829.211 592.213 828.978 591.434 829.268 590.678C829.559 589.922 830.253 589.477 830.819 589.682L837.337 592.032C837.903 592.238 838.13 593.017 837.847 593.772C837.556 594.528 836.862 594.974 836.295 594.768Z" fill="#D7E1FC"/>
<path d="M815.476 592.938L834.397 599.762C834.964 599.968 835.658 599.522 835.949 598.766C836.232 598.01 836.005 597.231 835.431 597.026L816.517 590.201C815.951 589.996 815.256 590.442 814.966 591.198C814.675 591.953 814.909 592.732 815.476 592.938Z" fill="#D7E1FC"/>
<path d="M802.746 594.116L831.506 604.492C832.371 604.805 833.306 604.446 833.596 603.69C833.88 602.934 833.412 602.069 832.548 601.757L803.787 591.38C802.923 591.067 801.987 591.426 801.697 592.182C801.407 592.938 801.881 593.803 802.746 594.116Z" fill="#D7E1FC"/>
<path d="M804.141 588.847L810.651 591.198C811.225 591.403 811.919 590.957 812.202 590.201C812.493 589.445 812.259 588.667 811.692 588.461L805.175 586.111C804.608 585.905 803.914 586.351 803.624 587.107C803.34 587.862 803.567 588.642 804.141 588.847Z" fill="#D7E1FC"/>
<path d="M813.407 620.478L794.493 613.653C793.919 613.448 793.692 612.668 793.983 611.913C794.266 611.158 794.96 610.712 795.527 610.917L814.448 617.742C815.015 617.948 815.249 618.726 814.959 619.482C814.668 620.237 813.974 620.683 813.407 620.478Z" fill="#D7E1FC"/>
<path d="M824.748 624.569L818.231 622.218C817.664 622.013 817.431 621.234 817.721 620.478C818.004 619.722 818.699 619.276 819.272 619.482L825.783 621.832C826.356 622.037 826.583 622.817 826.3 623.572C826.009 624.328 825.315 624.774 824.748 624.569Z" fill="#D7E1FC"/>
<path d="M803.929 622.737L822.843 629.562C823.417 629.767 824.111 629.322 824.394 628.566C824.685 627.81 824.458 627.031 823.884 626.825L804.97 620.001C804.404 619.795 803.702 620.241 803.419 620.997C803.128 621.753 803.362 622.532 803.929 622.737Z" fill="#D7E1FC"/>
<path d="M791.199 623.916L819.96 634.293C820.824 634.605 821.759 634.245 822.049 633.489C822.333 632.735 821.865 631.868 821.001 631.556L792.24 621.179C791.369 620.867 790.433 621.226 790.15 621.982C789.86 622.737 790.327 623.603 791.199 623.916Z" fill="#D7E1FC"/>
<path d="M792.587 618.647L799.105 620.997C799.671 621.203 800.373 620.757 800.656 620.001C800.946 619.245 800.713 618.466 800.146 618.261L793.629 615.91C793.062 615.705 792.368 616.151 792.077 616.907C791.794 617.662 792.021 618.442 792.587 618.647Z" fill="#D7E1FC"/>
<path d="M819.322 605.487L800.4 598.662C799.834 598.457 799.607 597.678 799.89 596.922C800.181 596.166 800.875 595.721 801.442 595.926L820.363 602.751C820.93 602.956 821.156 603.735 820.873 604.491C820.583 605.247 819.888 605.693 819.322 605.487Z" fill="#D7E1FC"/>
<path d="M830.656 609.577L824.146 607.227C823.572 607.021 823.346 606.243 823.636 605.487C823.92 604.732 824.614 604.285 825.188 604.491L831.698 606.841C832.271 607.047 832.498 607.826 832.208 608.581C831.924 609.337 831.23 609.783 830.656 609.577Z" fill="#D7E1FC"/>
<path d="M809.844 607.746L828.758 614.571C829.332 614.777 830.026 614.33 830.31 613.575C830.6 612.819 830.373 612.04 829.8 611.835L810.885 605.01C810.312 604.805 809.617 605.251 809.334 606.006C809.043 606.762 809.27 607.541 809.844 607.746Z" fill="#D7E1FC"/>
<path d="M796.575 608.731L815.49 615.555C816.064 615.761 816.758 615.315 817.041 614.559C817.332 613.804 817.105 613.025 816.531 612.819L797.617 605.995C797.043 605.789 796.349 606.235 796.065 606.991C795.775 607.746 796.002 608.525 796.575 608.731Z" fill="#D7E1FC"/>
<path d="M798.502 603.656L805.02 606.006C805.586 606.212 806.281 605.766 806.571 605.01C806.861 604.255 806.628 603.475 806.061 603.27L799.544 600.92C798.977 600.714 798.283 601.16 797.992 601.916C797.709 602.672 797.936 603.451 798.502 603.656Z" fill="#D7E1FC"/>
<path d="M835.538 578.129L817.898 571.766C816.574 571.286 815.887 569.836 816.382 568.544C816.871 567.251 818.359 566.585 819.691 567.064L837.33 573.428C838.654 573.906 839.342 575.356 838.846 576.648C838.357 577.941 836.869 578.608 835.538 578.129Z" fill="#91B4DE"/>
<path d="M843.514 619.831C842.692 619.483 842.317 618.546 842.671 617.748L844.747 613.109C845.108 612.311 846.064 611.942 846.886 612.29C847.708 612.638 848.083 613.575 847.729 614.373L845.653 619.012C845.299 619.81 844.336 620.179 843.514 619.831Z" fill="#FF9985"/>
<path d="M845.675 613.432L843.55 618.19C843.422 618.469 843.564 618.805 843.847 618.927L843.968 618.978C844.258 619.102 844.598 618.968 844.725 618.69L846.851 613.93C846.978 613.652 846.844 613.315 846.433 613.143C846.362 613.112 846.284 613.098 846.206 613.098C845.986 613.098 845.767 613.224 845.675 613.432ZM843.181 620.736L843.061 620.684C841.771 620.138 841.184 618.677 841.743 617.425L843.875 612.666C844.435 611.414 845.937 610.842 847.34 611.437C848.629 611.983 849.217 613.445 848.657 614.696L846.532 619.455C846.114 620.385 845.179 620.942 844.194 620.942C843.854 620.942 843.514 620.875 843.181 620.736Z" fill="#FF9985"/>
<path d="M842.09 635.501C841.552 636.464 840.298 636.819 839.306 636.291L830.777 631.735C829.785 631.207 829.417 629.987 829.962 629.024C830.508 628.061 831.755 627.706 832.746 628.234L841.282 632.791C842.267 633.318 842.636 634.538 842.09 635.501Z" fill="#FF9985"/>
<path d="M831.464 628.989C831.188 629.068 830.961 629.243 830.827 629.486C830.692 629.726 830.657 630.006 830.742 630.274C830.82 630.541 831.004 630.762 831.245 630.894L839.781 635.451C840.029 635.583 840.319 635.612 840.588 635.536C840.865 635.457 841.091 635.282 841.226 635.04C841.509 634.538 841.318 633.906 840.808 633.631L832.272 629.073C832.116 628.99 831.939 628.948 831.762 628.948C831.663 628.948 831.564 628.962 831.464 628.989ZM838.839 637.132L830.303 632.575C829.594 632.196 829.077 631.569 828.85 630.811C828.624 630.051 828.709 629.254 829.098 628.564C829.488 627.873 830.132 627.372 830.912 627.15C831.691 626.927 832.513 627.015 833.221 627.393L841.75 631.951C843.217 632.733 843.755 634.532 842.954 635.961C842.565 636.652 841.92 637.154 841.141 637.375C840.858 637.455 840.574 637.495 840.284 637.495C839.781 637.495 839.285 637.373 838.839 637.132Z" fill="#FF9985"/>
<path d="M844.774 631.934C844.229 632.897 842.975 633.253 841.99 632.725L830.344 626.505C829.353 625.977 828.991 624.758 829.53 623.795C830.075 622.832 831.329 622.477 832.314 623.004L843.96 629.224C844.952 629.752 845.313 630.972 844.774 631.934Z" fill="#FF9985"/>
<path d="M843.911 631.472C844.045 631.232 844.074 630.952 843.996 630.684C843.918 630.417 843.734 630.196 843.486 630.064L831.84 623.845C831.592 623.712 831.308 623.682 831.032 623.76C830.756 623.839 830.529 624.014 830.395 624.256C830.26 624.497 830.232 624.778 830.309 625.045C830.387 625.313 830.572 625.533 830.82 625.665L842.459 631.884C842.976 632.158 843.627 631.975 843.911 631.472ZM841.516 633.565L829.87 627.346C829.162 626.967 828.645 626.34 828.418 625.582C828.191 624.823 828.284 624.024 828.666 623.334C829.056 622.644 829.7 622.142 830.48 621.921C831.259 621.699 832.08 621.787 832.789 622.164L844.435 628.384C845.143 628.762 845.66 629.388 845.887 630.147C846.114 630.907 846.022 631.705 845.639 632.395C845.087 633.374 844.045 633.928 842.969 633.928C842.473 633.928 841.977 633.811 841.516 633.565Z" fill="#FF9985"/>
<path d="M848.742 624.412C848.204 625.375 846.95 625.731 845.965 625.203L834.312 618.984C833.327 618.456 832.959 617.236 833.504 616.274C834.043 615.311 835.297 614.955 836.289 615.483L847.935 621.702C848.919 622.23 849.288 623.45 848.742 624.412Z" fill="#FF9985"/>
<path d="M834.369 616.735C834.234 616.975 834.199 617.256 834.284 617.523C834.362 617.791 834.539 618.011 834.787 618.143L846.433 624.362C846.681 624.494 846.971 624.524 847.247 624.447C847.524 624.369 847.743 624.193 847.878 623.951C848.168 623.45 847.977 622.817 847.46 622.542L835.814 616.323C835.651 616.236 835.474 616.196 835.304 616.196C834.928 616.196 834.56 616.39 834.369 616.735ZM845.491 626.043L833.845 619.824C833.136 619.445 832.619 618.819 832.392 618.06C832.166 617.301 832.251 616.502 832.64 615.813C833.03 615.123 833.674 614.62 834.454 614.399C835.233 614.176 836.055 614.264 836.763 614.642L848.409 620.862C849.876 621.646 850.414 623.446 849.606 624.874C849.217 625.564 848.572 626.065 847.793 626.286C847.517 626.367 847.226 626.407 846.936 626.407C846.433 626.407 845.937 626.284 845.491 626.043Z" fill="#FF9985"/>
<path d="M846.688 628.087C846.15 629.05 844.896 629.406 843.904 628.878L831.167 622.076C830.182 621.547 829.814 620.327 830.359 619.365C830.898 618.402 832.152 618.046 833.136 618.575L845.88 625.377C846.865 625.905 847.234 627.124 846.688 628.087Z" fill="#FF9985"/>
<path d="M845.406 626.217L832.669 619.415C832.421 619.282 832.13 619.252 831.854 619.331C831.585 619.409 831.358 619.584 831.216 619.826C830.94 620.328 831.124 620.96 831.641 621.235L844.378 628.037C844.896 628.313 845.547 628.129 845.824 627.626C846.107 627.124 845.923 626.492 845.406 626.217ZM843.436 629.718L830.699 622.916C829.226 622.132 828.687 620.334 829.495 618.905C829.885 618.214 830.522 617.713 831.301 617.49C832.088 617.267 832.902 617.356 833.611 617.734L846.355 624.536C847.821 625.32 848.36 627.12 847.552 628.548C847 629.528 845.958 630.082 844.889 630.082C844.393 630.082 843.897 629.965 843.436 629.718Z" fill="#FF9985"/>
<path d="M649.42 427.012C649.958 426.399 650.695 425.977 651.177 425.32C652.267 423.853 651.75 421.891 651.885 420.118C652.027 418.345 654.017 416.254 655.243 417.391C654.591 414.811 654.06 411.7 655.887 409.569C659.316 405.56 666.343 409.854 670.162 406.225C671.295 405.141 671.897 403.513 673.172 402.612C674.936 401.369 677.316 402.043 678.747 403.438C679.718 404.382 680.384 405.583 681.036 406.797C681.184 406.876 681.326 406.966 681.489 407.025C682.856 407.514 683.586 407.249 685.144 406.891C688.105 406.211 690.854 408.493 692.505 411.528C693.199 412.806 695.423 410.98 696.224 412.186C698.044 414.928 701.82 416.206 702.571 419.501C702.975 421.287 702.365 423.325 702.996 425.025C703.662 426.829 705.631 427.925 705.886 429.87C706.297 432.958 703.463 435.816 703.329 438.847C703.265 440.274 701.947 441.617 701.912 442.149C701.827 443.414 701.324 444.531 700.729 445.433C700.276 448.809 699.475 452.562 698.2 456.793C697.314 459.742 696.068 462.214 694.488 464.106C694.467 464.124 692.115 466.647 692.115 466.625C692.292 464.474 692.235 462.639 692.044 461.085C692.873 459.192 693.39 457.164 693.475 455.028C696.479 454.875 698.668 451.987 698.469 448.583C698.278 445.298 695.926 442.759 693.156 442.728L689.302 443.744C676.877 442.309 679.937 429.497 668.653 428.006C661.314 427.036 656.929 428.491 654.754 429.63C653.358 432.436 652.607 435.591 652.7 438.924C652.593 438.805 651.113 437.615 651.205 436.414C651.155 436.454 651.113 436.495 651.07 436.536C648.938 434.942 647.202 429.529 649.42 427.012Z" fill="#000543"/>
<path d="M668.653 428.006C679.938 429.497 676.877 442.309 689.303 443.744L693.156 442.728C695.926 442.758 698.278 445.298 698.469 448.583C698.668 451.987 696.479 454.875 693.574 455.034C693.39 457.164 692.873 459.192 692.044 461.085C688.92 468.251 681.092 473.35 672.861 473.801C661.902 474.403 654.265 466.574 653.635 455.577L652.7 439.483C652.693 439.295 652.707 439.111 652.7 438.924C652.608 435.591 653.358 432.435 654.754 429.63C656.929 428.491 661.314 427.036 668.653 428.006Z" fill="#FF9985"/>
<path d="M673.52 493.849L671.99 450.315C671.919 448.36 673.456 446.704 675.411 446.638L689.614 446.153C691.563 446.087 693.22 447.633 693.291 449.589L694.821 493.094C678.854 504.838 673.59 495.805 673.52 493.849Z" fill="#FF9985"/>
<path d="M670.254 436.985L674.773 436.758C675.432 436.725 675.999 437.224 676.034 437.867C676.062 438.51 675.552 439.063 674.894 439.096L670.374 439.322C669.715 439.355 669.148 438.856 669.113 438.213C669.078 437.571 669.595 437.018 670.254 436.985Z" fill="#000543"/>
<path d="M652.431 437.625L656.95 437.399C657.609 437.366 658.183 437.865 658.211 438.507C658.247 439.15 657.737 439.704 657.078 439.736L652.558 439.963C651.899 439.996 651.325 439.497 651.297 438.854C651.262 438.211 651.772 437.659 652.431 437.625Z" fill="#000543"/>
<path d="M655.724 443.703C655.788 444.85 656.454 445.749 657.219 445.71C657.984 445.672 658.558 444.712 658.494 443.565C658.438 442.419 657.765 441.52 657 441.559C656.234 441.597 655.668 442.558 655.724 443.703Z" fill="#000543"/>
<path d="M672.684 443.171C672.747 444.317 673.413 445.216 674.178 445.177C674.943 445.138 675.517 444.178 675.453 443.032C675.397 441.885 674.724 440.987 673.959 441.025C673.194 441.064 672.627 442.024 672.684 443.171Z" fill="#000543"/>
<path d="M661.682 450.057L661.831 449.658C662.008 450.54 662.659 451.305 663.637 451.519L666.024 452.039C666.846 452.219 667.562 451.824 667.965 451.218L668.022 451.438C668.383 452.761 667.179 453.989 665.805 453.689L663.418 453.168C661.994 452.856 661.179 451.393 661.682 450.057Z" fill="#FA694F"/>
<path d="M672.91 457.506L666.081 459.63C666.081 459.63 670.594 462.144 672.91 457.506Z" fill="white"/>
<path d="M694.821 485.566C694.821 485.566 687.44 497.456 679.874 498.918L683.82 511.088C683.82 511.088 699.915 504.719 698.824 487.611L694.821 485.566Z" fill="#88DCE5"/>
<path d="M673.378 487.23C673.378 487.23 672.386 496.028 679.874 498.918L673.902 509.639C673.902 509.639 666.174 501.799 667.258 489.506L673.378 487.23Z" fill="#88DCE5"/>
<path d="M677.43 511.541C677.111 511.337 676.814 511.038 676.573 510.628L674.511 507.119C673.08 504.686 674.561 500.839 676.856 501.024L681.531 501.402C683.82 501.586 684.641 505.618 682.828 507.791L680.214 510.923C680.001 511.178 679.76 511.363 679.52 511.512L682.141 586.87L671.642 597.729L664.424 585.911L677.43 511.541Z" fill="#000543"/>
<path d="M603.934 543.046C602.56 545.95 601.178 548.868 600.265 551.939C599.507 554.49 599.082 557.12 598.657 559.742C598.515 560.602 598.154 561.671 597.268 561.733C596.616 561.779 596.106 561.234 595.702 560.739C588.052 551.31 580.401 541.883 572.757 532.454C571.277 530.635 568.507 528.708 566.871 530.391C565.581 531.721 566.609 533.878 567.671 535.387C576.229 547.518 585.31 559.298 594.881 570.684C596.156 572.193 597.799 573.846 599.783 573.588C601.129 573.414 602.177 572.385 602.999 571.336C605.726 567.854 607.164 563.602 608.553 559.435C611.479 550.625 614.383 541.804 617.28 532.984C619.313 526.797 622.685 518.578 620.957 512.071C616.572 512.742 614.567 520.584 612.945 524.016C609.941 530.359 606.938 536.702 603.934 543.046Z" fill="white"/>
<path d="M563.676 565.399C565.043 567.024 566.594 568.499 567.912 570.164C570.639 573.624 572.261 577.781 574.642 581.477C575.881 583.395 577.319 585.182 578.75 586.965C581.102 589.89 583.454 592.816 585.806 595.741C590.467 601.538 595.086 608.168 601.731 611.682C590.928 587.16 576.391 563.626 558.363 543.528C557.484 542.553 556.386 541.496 555.069 541.625C553.29 541.798 550.967 544.382 551.25 545.981C551.555 547.703 554.558 550.556 555.501 552.147C558.143 556.611 560.297 561.388 563.676 565.399Z" fill="white"/>
<path d="M777.456 619.753C777.364 619.753 777.279 619.743 777.187 619.724C746.967 613.156 741.179 598.737 740.945 598.126L729.703 577.675C729.377 577.087 729.604 576.356 730.213 576.041C730.815 575.72 731.566 575.946 731.892 576.537L743.205 597.139C743.333 597.422 748.971 611.113 777.725 617.363C778.398 617.509 778.816 618.156 778.667 618.808C778.54 619.37 778.023 619.753 777.456 619.753Z" fill="#D7E1FC"/>
<path d="M741.518 756.468C741.299 756.468 741.079 756.406 740.874 756.29C740.293 755.942 740.102 755.199 740.463 754.625C745.542 746.499 746.895 735.732 744.6 721.69C743.977 717.896 743.155 714.041 742.361 710.308C740.76 702.823 739.11 695.079 738.961 687.259C738.869 682.396 739.365 677.486 739.847 672.736C740.505 666.152 741.193 659.34 740.272 652.763C739.854 649.785 739.096 646.785 738.366 643.883C737.665 641.117 736.942 638.259 736.496 635.373C735.072 626.141 735.858 616.521 736.623 607.221C737.013 602.457 737.417 597.531 737.502 592.796C737.516 592.127 738.019 591.548 738.763 591.608C739.45 591.619 739.995 592.169 739.988 592.838C739.896 597.649 739.492 602.611 739.096 607.412C738.345 616.578 737.573 626.056 738.954 635.015C739.386 637.792 740.095 640.593 740.775 643.304C741.526 646.268 742.298 649.331 742.73 652.437C743.693 659.296 742.992 666.249 742.319 672.972C741.844 677.654 741.356 682.493 741.448 687.219C741.589 694.813 743.219 702.441 744.791 709.817C745.592 713.57 746.421 717.459 747.051 721.308C749.446 735.937 747.979 747.25 742.581 755.888C742.347 756.263 741.943 756.468 741.518 756.468Z" fill="#D7E1FC"/>
<path d="M789.144 590.932C788.974 590.932 788.797 590.897 788.627 590.821L772.072 583.365C768.948 581.704 767.269 576.109 765.916 571.613C765.512 570.257 765.144 569.04 764.804 568.162L745.564 519.01C734.414 488.773 706.595 488.831 705.426 488.89C704.732 488.89 704.179 488.362 704.165 487.702C704.151 487.034 704.696 486.484 705.383 486.472C705.674 486.441 736.149 486.308 747.894 518.171L767.127 567.303C767.489 568.226 767.871 569.506 768.303 570.935C769.394 574.569 771.045 580.063 773.191 581.206L789.669 588.625C790.292 588.906 790.561 589.623 790.278 590.231C790.065 590.672 789.619 590.932 789.144 590.932Z" fill="#D7E1FC"/>
<path d="M460.717 524.432C460.299 526.228 459.881 528.035 459.463 529.85C454.915 549.523 451.734 566.907 446.776 582.255C446.464 583.227 445.083 583.274 444.693 582.33C442.929 578.058 440.924 571.82 440.386 570.954L421.323 583.295C435.172 605.868 445.621 618.029 452.677 613.22C453.675 612.06 454.561 610.452 455.347 608.267C465.69 579.604 466.412 554.362 468.594 531.58C468.793 529.498 468.949 527.361 469.14 525.406C466.051 526.191 464.209 525.918 460.717 524.432Z" fill="#FF9985"/>
<path d="M447.009 566.418C441.895 554.667 431.97 530.837 431.97 530.837L413.438 536.474C404.881 539.079 400.482 548.444 404.002 556.59L414.777 581.529C416.286 585.031 420.473 586.546 423.915 584.836L443.871 574.921C447.03 573.352 448.412 569.627 447.009 566.418Z" fill="#41CCDA"/>
<path d="M462.041 511.115C462.962 511.109 463.72 511.878 463.727 512.825L463.791 521.373C463.798 522.32 463.054 523.1 462.126 523.107C461.205 523.113 460.447 522.344 460.44 521.397L460.377 512.848C460.369 511.902 461.12 511.122 462.041 511.115Z" fill="#FF9985"/>
<path d="M476.535 524.983C477.081 523.682 477.506 522.307 477.293 521.183C477.123 520.312 476.592 519.669 476.032 519.085C474.587 517.582 472.908 516.311 471.031 515.303C469.31 514.377 467.007 513.732 464.726 515.163C462.516 516.545 461.142 518.893 460.603 521.179C459.576 525.514 459.25 527.07 460.568 530.494C462.211 534.781 465.548 536.292 470.238 531.925C472.646 529.676 475.338 527.812 476.535 524.983Z" fill="#FF9985"/>
<path d="M466.639 517.322L475.898 508.939C476.521 508.372 476.556 507.407 475.976 506.796C475.395 506.185 474.403 506.15 473.78 506.718L464.521 515.1C463.89 515.668 463.855 516.632 464.436 517.243C465.024 517.855 466.008 517.89 466.639 517.322Z" fill="#FF9985"/>
<path d="M470.429 519.495L479.687 511.112C480.318 510.545 480.353 509.58 479.772 508.969C479.185 508.359 478.2 508.323 477.569 508.891L468.311 517.273C467.687 517.841 467.645 518.805 468.233 519.416C468.814 520.027 469.805 520.062 470.429 519.495Z" fill="#FF9985"/>
<path d="M472.334 524.002L481.593 515.62C482.224 515.052 482.259 514.087 481.671 513.477C481.09 512.866 480.098 512.831 479.475 513.399L470.216 521.781C469.586 522.348 469.55 523.312 470.131 523.924C470.719 524.535 471.711 524.57 472.334 524.002Z" fill="#FF9985"/>
<path d="M472.49 528.69L481.749 520.307C482.379 519.739 482.415 518.774 481.827 518.164C481.246 517.553 480.254 517.518 479.631 518.086L470.372 526.467C469.741 527.036 469.706 528 470.287 528.611C470.875 529.222 471.867 529.258 472.49 528.69Z" fill="#FF9985"/>
<path d="M390.507 870.669C395.579 843.014 402.522 815.892 409.683 788.564C410.08 787.043 411.639 782.785 412.007 781.345L442.326 784.429C436.121 805.049 407.686 868.738 398.887 905.331C397.889 909.493 388.644 909.575 386.264 903.325C384.904 899.763 387.199 889.665 387.921 884.677C388.609 879.941 389.65 875.329 390.507 870.669Z" fill="#FF9985"/>
<path d="M348.315 783.618L378.854 783.884C367.732 865.121 356.086 902.67 355.016 904.294C349.448 912.707 343.349 913.71 341.125 905.222C340.041 901.1 341.861 889.392 342.69 881.054C346.183 846.098 348.18 815.271 348.315 783.618Z" fill="#FF9985"/>
<path d="M386.073 668.063C398.675 667.713 413.183 664.612 429.519 657.001C431.963 655.864 433.585 653.49 433.549 650.855C440.733 675.463 449.411 716.115 449.793 741.354C449.956 752.08 448.327 762.295 445.309 773.922C444.671 776.364 443.97 778.875 443.219 781.454C442.929 782.43 442.631 783.426 442.327 784.429C442.327 784.429 405.887 781.202 394.212 784.013C372.549 789.24 348.315 783.617 348.315 783.617C348.52 736.803 343.307 688.931 337.696 656.13C337.618 655.698 339.389 655.231 339.347 654.812L339.708 654.811C339.779 655.042 339.843 655.243 339.906 655.397C346.721 661.992 355.399 668.914 386.073 668.063Z" fill="white"/>
<path d="M420.217 436.1C417.625 432.833 411.922 433.845 407.452 433.54C405.008 433.373 403.74 433.242 402.954 433.063C402.153 432.799 400.219 432.088 399.801 431.911C395.105 429.918 394.666 430.365 391.039 431.054C390.047 431.241 389.345 430.711 388.162 431.023C376.353 434.158 357.368 444.122 372.188 475.523C372.004 476.596 372.039 478.878 371.303 479.579C369.425 479.55 368.419 479.188 366.549 478.901C360.613 477.992 354.436 478.076 348.804 479.984C343.172 481.892 338.128 485.76 335.635 491.048C333.864 494.797 333.332 499.235 330.506 502.291C326.539 506.579 319.767 506.517 314 507.906C307.185 509.548 301.065 513.694 297.126 519.346C289.936 529.654 290.616 544.062 296.737 555.215C302.864 566.369 313.681 574.538 325.363 579.968C330.867 582.526 338.022 582.55 344.036 581.984C351.97 581.238 357.432 578.156 363.496 573.177C370.02 567.822 376.701 562.088 379.881 554.34C383.806 544.795 381.744 533.867 378.748 523.896C377.544 519.866 376.176 515.815 375.999 511.634C375.822 507.452 377.005 503.021 380.179 500.265C383.161 497.675 387.638 496.615 391.775 495.147C392.356 495.181 392.93 495.113 393.49 494.962C402.203 492.413 408.586 486.415 411.405 478.92C412.312 476.508 413.587 474.242 414.926 472.032C416.413 469.589 419.488 464.314 419.53 459.764C419.559 456.745 422.456 452.168 423.037 449.178C423.809 445.157 422.803 439.366 420.217 436.1Z" fill="#000543"/>
<path d="M438.119 658.488C438.119 658.486 438.409 652.365 436.475 643.366C436.241 641.634 432.671 617.975 430.9 609.6C425.261 582.964 425.091 577.754 428.987 539.255C427.649 538.038 426.239 536.878 424.794 535.752C429.547 533.394 432.352 531.171 432.352 531.171C411.83 499.977 386.724 502.48 371.784 507.956C367.442 509.361 363.489 511.447 359.989 513.792C359.231 514.289 358.813 514.593 358.813 514.593C352.757 516.162 339.481 526.943 337.909 529.883C337.512 530.626 337.179 531.346 336.881 532.052C334.997 536.571 335.472 541.567 337.42 546.06C338.064 547.54 338.298 549.201 338.135 550.816C337.491 557.244 341.727 563.326 348.23 564.6L348.379 564.629C351.814 574.625 356.129 584.318 357.297 594.891C357.751 598.969 357.588 602.951 357.05 606.875C356.61 608.896 356.093 610.902 355.42 612.863C350.688 626.643 342.974 636.763 337.448 652.654C335.224 659.041 336.237 666.168 338.001 672.688C338.752 675.499 334.707 678.382 339.991 681.863C347.146 686.57 362.447 677.182 383.841 678.093C396.748 678.643 412.064 684.605 429.519 679.088C434.371 677.552 437.757 673.257 437.892 668.285C437.998 664.645 438.083 660.861 438.083 658.489L438.119 658.488Z" fill="#41CCDA"/>
<path d="M385.768 530.507C382.233 526.222 378.627 521.994 374.951 517.826C372.584 515.139 373.045 511.088 375.956 508.958C379.987 506.004 384.734 504.109 389.65 504.725C395.119 505.409 404.25 509.561 401.409 515.293C397.952 522.247 399.709 518.98 393.397 529.909C391.796 532.689 387.822 532.994 385.768 530.507Z" fill="#FF9985"/>
<path d="M385.733 429.497C401.7 428.723 416.881 440.255 419.644 455.253C422.407 470.25 411.703 483.036 395.735 483.809C379.768 484.583 364.587 473.051 361.824 458.053C359.062 443.055 369.765 430.27 385.733 429.497Z" fill="#000543"/>
<path d="M407.246 457.273L385.081 456.935C384.089 456.92 383.288 456.116 383.303 455.148L383.487 443.649C383.522 441.737 385.152 440.198 387.114 440.228L407.516 440.538C412.241 440.61 416.045 444.434 415.974 449.036C415.896 453.638 411.972 457.345 407.246 457.273Z" fill="#FFA27F"/>
<path d="M374.561 479.723C375.638 482.891 377.097 485.528 378.882 487.522C383.983 482.561 383.692 476.654 383.692 476.654C382.304 475.625 381.362 473.25 381.411 470.498C381.482 466.844 383.281 463.918 385.435 463.966C385.598 463.971 385.739 464.085 385.888 464.135L371.621 451.249C369.815 457.675 370.148 466.775 374.561 479.723Z" fill="#000543"/>
<path d="M412.545 442.01C417.164 445.703 420.125 451.265 419.991 457.484L419.665 473.27C419.431 484.055 410.158 492.697 399.043 492.475C387.929 492.254 379.024 483.248 379.251 472.463L379.569 457.197L412.545 442.01Z" fill="#FF9985"/>
<path d="M381.227 519.156L392.951 519.39C394.566 519.422 395.919 517.788 395.962 515.758L396.762 477.675C396.805 475.645 395.523 473.958 393.908 473.926L382.184 473.691C380.576 473.66 379.222 475.294 379.18 477.324L378.372 515.407C378.33 517.437 379.619 519.124 381.227 519.156Z" fill="#FF9985"/>
<path d="M400.97 455.445L396.054 455.37C395.338 455.359 394.743 455.922 394.729 456.622C394.715 457.321 395.296 457.902 396.011 457.912L400.928 457.987C401.643 457.998 402.245 457.434 402.252 456.736C402.266 456.037 401.686 455.456 400.97 455.445Z" fill="#000543"/>
<path d="M418.942 455.718L415.131 455.66C414.571 455.652 414.104 456.217 414.097 456.917C414.083 457.615 414.529 458.194 415.089 458.203L418.9 458.261C419.459 458.27 419.927 457.705 419.934 457.005C419.948 456.306 419.502 455.727 418.942 455.718Z" fill="#000543"/>
<path d="M412 470.87L411.851 470.443C411.71 471.408 411.129 472.265 410.222 472.536L408.019 473.198C407.261 473.425 406.574 473.025 406.184 472.384L406.135 472.624C405.837 474.076 407.006 475.36 408.274 474.978L410.477 474.317C411.802 473.921 412.517 472.3 412 470.87Z" fill="#FA694F"/>
<path d="M400.092 463.567C400.078 464.782 399.405 465.756 398.59 465.744C397.782 465.731 397.138 464.737 397.159 463.522C397.18 462.308 397.853 461.333 398.661 461.345C399.476 461.358 400.113 462.353 400.092 463.567Z" fill="#000543"/>
<path d="M398.661 461.345L401.162 461.384L399.596 462.859L398.661 461.345Z" fill="#000543"/>
<path d="M417.738 463.836C417.724 465.051 417.051 466.025 416.236 466.013C415.429 466.001 414.784 465.006 414.805 463.791C414.826 462.577 415.499 461.602 416.307 461.614C417.122 461.627 417.759 462.621 417.738 463.836Z" fill="#000543"/>
<path d="M416.307 461.614L418.808 461.652L417.242 463.128L416.307 461.614Z" fill="#000543"/>
<path d="M379.796 464.232C376.637 464.169 374.016 467.119 373.938 470.822C373.86 474.524 376.354 477.577 379.513 477.64C382.665 477.703 385.287 474.753 385.364 471.05C385.442 467.347 382.949 464.295 379.796 464.232Z" fill="#FF9985"/>
<path d="M375.178 449.798C377.537 445.261 378.295 439.504 382.538 436.59C385.166 434.787 388.574 434.539 391.768 434.759C395.615 435.023 399.384 435.871 403.138 436.716C405.873 437.33 408.607 437.944 411.334 438.559C411.646 438.629 411.979 438.706 412.22 438.911C412.496 439.138 412.624 439.486 412.744 439.817C413.212 441.105 415.046 444.236 414.671 445.561C414.239 447.049 412.298 447.07 411.016 447.132C397.776 447.771 389.934 455.118 386.958 459.371C384.507 462.877 383.154 467.049 380.618 470.495C378.968 472.73 376.842 474.619 374.413 476C374.313 476.058 374.2 476.105 374.101 476.16L367.307 459.835C370.077 456.593 373.23 453.559 375.178 449.798Z" fill="#000543"/>
<path d="M273.076 634.041C307.249 615.393 317.613 612.462 332.837 594C333.623 591.114 334.282 588.211 334.912 584.223C341.004 587.291 346.303 589.75 351.333 591.846C349.13 600.134 349.314 599.45 348.91 600.96C348.032 602.995 346.098 607.676 345.134 608.477C343.03 611.499 314.128 628.223 282.689 640.521L273.076 634.041Z" fill="#FF9985"/>
<path d="M334.197 539.504C334.26 536.07 335.025 533.293 336.478 531.249C338.284 528.709 341.033 527.351 344.426 527.321C352.544 527.249 363.184 535.044 368.788 542.623L369.765 543.947L369.347 545.527C361.187 576.274 358.197 587.546 356.908 592.407C356.277 594.781 353.635 596.049 351.319 595.092C345.991 592.89 341.606 590.939 332.978 586.582C330.881 585.523 329.677 583.308 329.989 581.026C332.001 566.219 334.076 546.803 334.197 539.504Z" fill="#41CCDA"/>
<path d="M283.135 641.767C281.718 643.432 279.671 644.444 277.645 645.324C275.081 646.434 271.057 648.099 269.576 648.109C264.766 648.142 262.358 643.767 262.216 643.595C260.672 641.769 260.877 639.006 262.131 637.119C263.385 635.233 265.468 634.063 267.565 633.152C271.971 631.242 277.411 630.283 281.669 632.92C282.731 633.575 283.688 634.459 284.226 635.569C285.218 637.628 284.552 640.1 283.135 641.767Z" fill="#FF9985"/>
<path d="M228.737 817.509C230.164 819.863 232.346 822.565 233.563 825.042C235.902 829.797 237.004 835.16 237.145 840.503C237.208 842.918 237.078 845.354 236.543 847.708C235.294 853.187 231.408 859.369 232.738 864.835C234.845 858.346 237.402 850.97 238.37 844.188C239.338 837.405 239.102 830.289 236.617 823.943C232.942 814.561 224.645 807.472 222.365 797.612C222.156 796.705 220.893 789.076 219.248 789.786C218.169 790.243 218.776 795.197 219.03 795.961C221.623 803.76 224.655 810.795 228.737 817.509Z" fill="#000543"/>
<path d="M247.737 793.907C249.182 796.493 250.918 798.936 251.881 801.761C253.071 805.247 253.021 809.102 254.233 812.582C254.75 814.042 255.48 815.414 255.983 816.874C256.641 818.757 256.925 820.757 257.201 822.742C257.527 825.062 257.853 827.375 258.179 829.688C258.49 831.906 258.802 834.144 258.774 836.389C258.724 840.005 257.789 843.539 256.726 846.978C255.458 851.079 253.992 855.112 252.341 859.062C254.148 847.79 253.269 836.177 250.804 825.048C248.339 813.92 244.329 803.228 239.867 792.802C239.33 791.553 238.78 790.27 238.649 788.906C238.52 787.541 238.886 786.04 239.909 785.18C241.326 783.979 244.407 784.013 245.236 785.883C245.711 786.934 245.541 788.537 245.881 789.69C246.32 791.171 246.993 792.57 247.737 793.907Z" fill="#000543"/>
<path d="M236.517 853.958L249.04 855.78C248.098 858.789 238.103 890.06 233.183 903.024L224.809 902.82C227.492 891.391 236.151 855.807 236.517 853.958Z" fill="#FF9985"/>
<path d="M224.809 902.82L233.182 903.024C232.014 906.109 230.648 908.162 230.404 908.551C226.955 914.085 222.902 913.027 224.031 906.252C224.08 905.958 224.362 904.723 224.809 902.82Z" fill="#FBE9DC"/>
<path d="M223.911 906.866L229.429 907.46L236.704 910.353C239.597 911.287 238.588 914.201 235.35 914.262L223.027 914.494C222.436 914.501 221.982 914.153 222.081 913.764L223.769 907.084C223.791 907.002 223.849 906.934 223.911 906.866Z" fill="#207C85"/>
<path d="M242.593 784.832C245.108 789.172 247.446 796.657 251.633 806.557C262.181 831.455 258.83 841.465 252.447 859.786C249.543 868.137 249.224 868.635 246.702 868.956C238.48 870 237.062 866.466 233.812 865.804C231.858 865.408 232.256 863.436 234.521 857.165C235.696 853.911 236.828 850.124 237.46 847.858C241.552 833.154 228.761 813.292 218.14 792.01C218.14 792.01 237.825 789.11 242.593 784.832Z" fill="#000543"/>
<path d="M196.299 815.776C197.124 818.403 198.609 821.568 199.193 824.271C200.315 829.449 200.052 834.922 198.835 840.135C198.285 842.495 197.537 844.822 196.409 846.965C193.773 851.973 188.336 857.002 188.274 862.624C192.018 856.852 196.436 850.342 199.12 844.01C201.805 837.678 203.376 830.725 202.512 823.963C201.235 813.961 194.774 805.036 195.006 794.917C195.027 793.989 195.705 786.285 193.888 786.565C192.696 786.743 192.044 791.689 192.103 792.495C192.707 800.689 193.94 808.256 196.299 815.776Z" fill="#000543"/>
<path d="M194.796 853.017L206.802 857.882C205.101 860.563 187.214 888.389 179.024 899.742L170.741 897.463C176.312 887.058 193.963 854.716 194.796 853.017Z" fill="#FF9985"/>
<path d="M170.741 897.463L179.024 899.742C177.08 902.438 175.198 904.089 174.856 904.403C170.017 908.913 166.251 906.886 169.094 900.602C169.218 900.329 169.812 899.203 170.741 897.463Z" fill="#FBE9DC"/>
<path d="M168.818 901.169L174.163 903.106L180.671 907.705C183.314 909.329 181.571 911.902 178.332 911.158L166.004 908.34C165.412 908.203 165.05 907.753 165.246 907.398L168.622 901.346C168.665 901.264 168.74 901.216 168.818 901.169Z" fill="#207C85"/>
<path d="M218.387 787.541C219.79 792.365 222.7 794.91 224.357 805.534C228.536 832.274 220.181 846.425 209.18 862.603C204.164 869.979 203.722 870.382 201.135 870.068C192.68 869.051 192.165 865.271 189.097 863.832C187.251 862.965 188.149 861.15 191.994 855.637C193.991 852.771 196.079 849.38 197.284 847.34C204.602 834.928 198.29 814.452 193.211 792.774C192.713 790.645 194.449 788.653 196.68 788.803C203.01 789.226 214.286 789.622 218.387 787.541Z" fill="#000543"/>
<path d="M115.615 688.454C115.481 688.235 115.319 688.003 115.058 687.949C114.604 687.86 114.178 688.399 114.163 688.863C114.148 689.334 114.386 689.743 114.527 690.173C114.67 690.603 114.687 691.156 114.33 691.497C112.982 690.869 111.857 689.846 111.123 688.576C110.872 688.14 110.66 687.669 110.3 687.321C109.731 686.768 108.881 686.604 108.074 686.461C107.406 686.338 106.659 686.236 106.044 686.611C105.657 686.843 105.39 687.232 105.154 687.614C104.279 689.034 103.602 690.705 103.997 692.2C104.271 693.244 105.027 694.049 105.812 694.758C107.603 696.382 109.67 697.713 111.921 698.695C112.906 699.125 114.07 699.487 115.119 698.996C116.747 698.231 118.151 695.898 117.784 694.247C117.337 692.241 116.672 690.18 115.615 688.454Z" fill="#FF9985"/>
<path d="M275.258 653.095L275.626 652.554C275.676 652.479 275.725 652.404 275.768 652.324C276.278 651.365 276.377 650.121 276.37 648.547C276.37 646.945 276.25 645.2 276.016 643.226C275.846 643.043 275.669 642.867 275.506 642.696C275.315 642.501 275.13 642.31 274.946 642.118L274.677 641.896C274.606 641.838 274.535 641.778 274.45 641.727C273.728 641.259 272.8 640.861 271.843 640.606C270.93 640.351 269.938 640.888 269.492 641.521C268.953 642.292 268.712 643.408 268.719 645.142C268.726 647.101 269.074 648.88 269.739 650.287L269.987 650.821L269.945 651.405C268.698 667.451 263.102 682.321 253.751 694.403C251.392 697.692 248.622 700.913 245.519 703.963L259.623 709.776C269.052 694.608 274.649 675.199 275.244 653.739L275.258 653.095Z" fill="#FF9985"/>
<path d="M154.736 710.213C140.629 708.282 126.965 702.455 115.08 693.325L111.507 697.467C125.847 710.343 141.112 719.151 156.909 723.675L159.769 710.888C158.035 710.718 156.351 710.493 154.736 710.213Z" fill="#FF9985"/>
<path d="M156.094 725.108L159.308 710.738C159.404 710.745 159.5 710.759 159.596 710.766C162.191 710.929 164.782 710.957 167.335 710.875C167.519 710.868 167.71 710.854 167.896 710.841C171.203 710.704 179.989 708.023 180.498 708.084C184.203 707.306 195.328 704.236 196.236 703.888C199.085 703.083 202.051 702.4 205.12 701.964C205.12 701.964 212.842 700.892 219.548 702.666C219.495 702.625 219.437 702.571 219.385 702.53C219.561 702.612 219.872 702.728 220.238 702.864C220.323 702.885 220.411 702.905 220.495 702.933C220.524 702.939 220.574 702.98 220.607 702.994C222.364 703.615 225.485 704.591 228.534 705.573C233.358 707.122 238.756 706.487 243.529 702.803C244.259 702.23 245.265 702.114 246.15 702.414L256.5 705.921C260.693 707.34 262.195 712.376 259.454 715.774C258.667 716.75 257.874 717.684 257.081 718.571C255.423 720.427 252.426 723.129 249.564 725.606C245.527 729.1 243.543 734.32 244.244 739.532C244.492 741.416 244.662 743.258 244.762 745.018C244.797 745.619 243.784 762.356 244.769 771.656C246.497 789.479 247.765 788.571 245.668 794.173C245.328 795.067 244.946 795.838 244.528 796.206C243.316 797.285 241.496 797.148 239.874 797.414C196.108 804.613 190.713 798.526 190.713 798.526C190.609 798.185 190.511 797.844 190.412 797.503C190.393 797.476 190.389 797.428 190.379 797.387C190.262 796.984 190.145 796.575 190.024 796.172C190.05 796.125 190.077 796.063 190.104 796.009C188.788 786.674 195.74 764.935 193.515 757.089C191.362 749.501 189.678 744.486 187.682 735.227C187.032 732.204 171.748 731.181 168.613 730.744C164.241 730.144 160.112 729.536 158.809 729.257C156.899 728.834 155.678 726.971 156.094 725.108Z" fill="#207C85"/>
<path d="M222.549 709.585C222.549 712.362 217.384 714.621 211.012 714.621C204.64 714.621 199.474 712.362 199.474 709.585C199.474 706.808 204.64 704.55 211.012 704.55C217.384 704.55 222.549 706.808 222.549 709.585Z" fill="#FF9985"/>
<path d="M226.906 655.097C225.587 654.068 224.012 653.27 223.055 651.926C222.241 650.775 221.973 649.343 221.256 648.133C220.54 646.923 219.026 645.903 217.656 646.443C217.006 646.699 216.525 647.258 215.877 647.513C214.05 648.233 212.433 646.349 210.818 645.317C209.008 644.16 206.5 644.053 204.546 645.048C203.142 645.763 201.808 647.036 200.257 646.764C199.036 646.548 198.088 645.379 196.845 645.496C195.02 645.668 194.658 648.219 193.083 649.132C191.974 649.773 190.575 649.442 189.287 649.472C186.884 649.528 184.565 651.051 183.651 653.17C183.163 654.303 183.027 655.61 182.184 656.543C181.095 657.746 179.088 658.016 178.207 659.362C176.38 662.161 179.886 664.051 181.178 666.751C182.807 670.148 180.765 675.092 183.884 677.36C184.613 677.892 185.596 678.224 185.964 679.027C186.338 679.843 185.913 680.829 186.192 681.68C186.717 683.275 189.178 683.441 190.456 684.469C190.651 684.735 190.864 684.981 191.065 685.247C191.092 685.301 191.138 685.349 191.158 685.41C197.391 693.278 206.699 697.126 214.472 694.124C220.912 691.633 224.75 685.035 225.233 677.223C225.315 677.177 225.395 677.162 225.477 677.114C227.418 675.976 228.437 674.142 228.999 672.07C230.033 668.268 226.921 666.004 227.312 662.719C227.463 661.462 228.652 660.507 228.967 659.277C229.378 657.684 228.224 656.127 226.906 655.097Z" fill="#000543"/>
<path d="M218.317 665.05L202.997 671.311C202.331 671.583 201.557 671.275 201.277 670.626L197.853 662.679C197.302 661.397 197.926 659.908 199.243 659.371L213.382 653.594C216.549 652.299 220.229 653.764 221.558 656.85L221.661 657.087C222.99 660.173 221.486 663.756 218.317 665.05Z" fill="#FF9985"/>
<path d="M200.574 690.773C202.277 692.616 204.075 693.98 205.902 694.82C207.852 689.968 205.845 686.038 205.845 686.038C204.588 685.738 203.219 684.4 202.413 682.511C201.345 680.006 201.674 677.494 203.151 676.903C203.263 676.859 203.392 676.896 203.513 676.885L189.867 672.263C190.605 677.156 193.615 683.247 200.574 690.773Z" fill="#000543"/>
<path d="M199.396 678.72C197.231 679.592 196.351 682.359 197.431 684.899C198.51 687.437 201.14 688.788 203.306 687.921C205.471 687.048 206.35 684.28 205.271 681.739C204.191 679.199 201.562 677.848 199.396 678.72Z" fill="#FF9985"/>
<path d="M216.746 653.345C221.361 654.692 225.406 657.965 227.417 662.696L230.972 674.964C234.46 683.17 228.122 693.974 219.636 692.971C207.78 691.572 206.272 694.895 202.784 686.693L197.848 675.077L216.746 653.345Z" fill="#FF9985"/>
<path d="M215.457 677.782L206.421 678.511C205.178 678.612 204.279 680.078 204.423 681.769L206.449 710.506C211.027 709.367 215.886 706.139 220.271 707.586L217.978 680.674C217.835 678.983 216.7 677.682 215.457 677.782Z" fill="#FF9985"/>
<path d="M212.323 668.247L209.373 669.453C208.943 669.628 208.739 670.116 208.919 670.535C209.099 670.955 209.6 671.154 210.031 670.978L212.98 669.773C213.411 669.597 213.615 669.11 213.435 668.69C213.254 668.27 212.753 668.071 212.323 668.247Z" fill="#000543"/>
<path d="M225.946 662.529L222.997 663.734C222.567 663.91 222.362 664.398 222.543 664.817C222.723 665.237 223.223 665.436 223.655 665.26L226.604 664.054C227.035 663.879 227.239 663.391 227.059 662.971C226.878 662.553 226.377 662.353 225.946 662.529Z" fill="#000543"/>
<path d="M226.248 668.395C226.57 669.144 226.427 669.915 225.927 670.119C225.428 670.323 224.761 669.883 224.439 669.134C224.117 668.386 224.26 667.613 224.76 667.409C225.259 667.206 225.925 667.647 226.248 668.395Z" fill="#000543"/>
<path d="M214.419 673.648C214.742 674.397 214.598 675.169 214.099 675.373C213.599 675.577 212.933 675.136 212.61 674.387C212.289 673.639 212.432 672.867 212.931 672.663C213.43 672.459 214.097 672.9 214.419 673.648Z" fill="#000543"/>
<path d="M224.454 674.221L224.232 674.011C224.397 674.627 224.222 675.309 223.668 675.736L222.314 676.78C221.847 677.139 221.267 677.101 220.819 676.836L220.85 676.993C221.035 677.946 222.192 678.366 222.972 677.765L224.326 676.722C225.137 676.097 225.196 674.92 224.454 674.221Z" fill="#FA694F"/>
<path d="M216.129 653.3C216.129 653.3 207.761 652.159 199.028 658.733L204.111 660.318L216.129 653.3Z" fill="#FF9985"/>
<path d="M224.043 656.476C224.043 656.476 219.374 654.86 211.706 659.79C204.039 664.719 210.864 672.985 202.352 678.26L197.483 679.145L192.065 662.288C192.065 662.288 203.572 643.214 221.611 652.15L224.043 656.476Z" fill="#000543"/>
<path d="M221.45 682.088C221.916 682.929 222.847 683.806 224.929 683.327C224.929 683.327 227.938 682.519 226.799 680.546L221.45 682.088Z" fill="white"/>
<path d="M212.931 672.663L214.482 671.833L213.891 673.472L212.931 672.663Z" fill="#000543"/>
<path d="M224.667 667.454L226.219 666.625L225.627 668.263L224.667 667.454Z" fill="#000543"/>
<path d="M372.578 907.501L365.657 905.051C357.787 910.639 345.624 908.565 340.863 900.868C340.863 900.875 340.743 913.812 340.743 913.812C340.509 914.638 341.465 915.409 342.747 915.422L369.412 915.757C376.418 915.839 378.777 909.691 372.578 907.501Z" fill="#41CCDA"/>
<path d="M365.657 905.051L347.784 898.726C346.821 898.392 342.606 898.419 340.842 900.834C345.623 908.565 357.787 910.639 365.657 905.051Z" fill="#FF9985"/>
<path d="M417.589 908.162L410.675 905.72C402.798 911.301 390.642 909.234 385.881 901.537C385.874 901.544 385.761 914.481 385.761 914.481C385.52 915.306 386.483 916.077 387.758 916.091L414.422 916.418C421.428 916.507 423.787 910.359 417.589 908.162Z" fill="#41CCDA"/>
<path d="M410.675 905.72L392.795 899.395C391.839 899.06 387.617 899.088 385.853 901.496C390.642 909.234 402.798 911.301 410.675 905.72Z" fill="#FF9985"/>
<path d="M402.104 478.496C402.26 479.841 402.387 481.182 405.384 481.624C405.384 481.624 410.399 482.399 409.967 479.22L402.104 478.496Z" fill="white"/>
<path d="M826.371 232.592C801.067 232.592 780.488 252.632 780.488 277.271C780.488 301.909 801.067 321.956 826.371 321.956C851.668 321.956 872.254 301.909 872.254 277.271C872.254 252.632 851.668 232.592 826.371 232.592ZM826.371 324.999C799.345 324.999 777.357 303.595 777.357 277.271C777.357 250.953 799.345 229.542 826.371 229.542C853.396 229.542 875.378 250.953 875.378 277.271C875.378 303.595 853.396 324.999 826.371 324.999Z" fill="white"/>
<path d="M824.543 279.42V239.443C824.543 238.603 825.244 237.921 826.109 237.921C826.973 237.921 827.674 238.603 827.674 239.443V275.633L852.107 270.454C852.957 270.277 853.786 270.795 853.97 271.621C854.147 272.44 853.616 273.252 852.773 273.429L824.543 279.42Z" fill="white"/>
<path d="M534.156 532.697C522.871 519.724 502.214 519.724 490.93 532.697C490.866 532.767 490.802 532.836 490.745 532.906C482.882 542.042 478.433 554.914 482.592 566.13C484.724 571.891 489.017 577.111 489.059 583.236C489.13 593.615 477.704 599.873 471.35 608.204C465.201 616.266 463.805 627.54 467.808 636.796C471.548 645.445 479.709 652.927 479.029 662.29C478.589 668.447 474.332 673.62 470.294 678.38C463.883 685.949 457.465 693.742 453.746 702.864C450.02 711.987 449.332 722.781 454.263 731.345C458.336 738.407 465.93 743.613 467.857 751.494C469.756 759.231 465.583 767.058 464.839 774.979C463.437 789.929 475.479 804.244 490.363 808.113C496.923 809.812 503.773 809.717 510.361 808.202C511.799 807.874 513.287 807.874 514.725 808.202C521.313 809.717 528.163 809.812 534.723 808.113C549.606 804.244 561.649 789.929 560.246 774.979C559.503 767.058 555.33 759.231 557.229 751.494C559.155 743.613 566.749 738.407 570.823 731.345C575.753 722.781 575.059 711.987 571.34 702.864C567.621 693.742 561.203 685.949 554.792 678.38C550.754 673.62 546.496 668.447 546.05 662.29C545.377 652.927 553.538 645.445 557.278 636.796C561.281 627.54 559.885 616.266 553.736 608.204C547.382 599.873 535.955 593.615 536.026 583.236C536.069 577.111 540.362 571.891 542.494 566.13C546.652 554.914 542.203 542.042 534.34 532.906C534.276 532.836 534.22 532.767 534.156 532.697Z" fill="#6FC2AD"/>
<path d="M512.94 865.729H510.638V535.69H512.94V865.729Z" fill="#BEFFEE"/>
<path d="M511.02 586.155L493.367 561.386L495.258 560.107L512.911 584.875L511.02 586.155Z" fill="#BEFFEE"/>
<path d="M510.906 672.817L484.285 622.763L486.332 621.73L512.954 671.783L510.906 672.817Z" fill="#BEFFEE"/>
<path d="M494.167 639.939L493.834 622.781L496.137 622.737L496.47 639.896L494.167 639.939Z" fill="#BEFFEE"/>
<path d="M512.791 722.59L511.069 721.103L547.616 680.947L549.337 682.436L512.791 722.59Z" fill="#BEFFEE"/>
<path d="M529.339 703.294L527.087 702.83L533.186 674.486L535.439 674.95L529.339 703.294Z" fill="#BEFFEE"/>
<path d="M510.553 767.214L477.152 720.755L479.036 719.465L512.437 765.925L510.553 767.214Z" fill="#BEFFEE"/>
<path d="M486.049 732.041L479.439 702.639L481.692 702.155L488.294 731.563L486.049 732.041Z" fill="#BEFFEE"/>
<path d="M512.975 789.786L511.034 788.592L546.865 733.589L548.806 734.79L512.975 789.786Z" fill="#BEFFEE"/>
<path d="M539.08 749.283L536.827 748.805L540.617 731.549L542.87 732.02L539.08 749.283Z" fill="#BEFFEE"/>
<path d="M512.968 595.726L511.091 594.42L530.756 567.594L532.626 568.899L512.968 595.726Z" fill="#BEFFEE"/>
<path d="M526.931 576.745L524.643 576.473L527.264 555.604L529.552 555.875L526.931 576.745Z" fill="#BEFFEE"/>
<path d="M545.852 919.209H475.005C470.776 919.209 467.34 915.9 467.34 911.82V865.408C467.34 861.328 470.776 858.018 475.012 858.018H545.852C550.088 858.018 553.524 861.328 553.524 865.408V911.82C553.524 915.9 550.088 919.209 545.852 919.209Z" fill="white"/>
<path d="M467.418 892.987C467.071 892.987 466.794 892.715 466.794 892.387V865.517C466.794 861.048 470.528 857.411 475.118 857.411H527.001C527.341 857.411 527.617 857.684 527.617 858.018C527.617 858.353 527.341 858.619 527.001 858.619H475.118C471.215 858.619 468.034 861.716 468.034 865.517V892.387C468.034 892.715 467.758 892.987 467.418 892.987Z" fill="#D7E1FC"/>
</svg>
