<svg width="273" height="205" viewBox="0 0 273 205" fill="none" xmlns="http://www.w3.org/2000/svg">
<mask id="mask0_31_1825" style="mask-type:alpha" maskUnits="userSpaceOnUse" x="0" y="0" width="273" height="205">
<rect width="273" height="205" fill="#C4C4C4"/>
</mask>
<g mask="url(#mask0_31_1825)">
<path d="M48.589 119.664C15.7288 119.664 2.50459 176.563 0 205.013H273C263.316 176.563 274.29 119.942 225 80.5127C163.387 31.2266 145.055 106.588 115 121.013C84.945 135.438 89.6642 119.664 48.589 119.664Z" fill="#B5FFEC" fill-opacity="0.7"/>
<path d="M103.476 66.3481C107.164 66.3481 110.435 65.4173 113.597 64.5171C116.281 63.7534 118.816 63.0322 121.239 63.0322C121.808 63.0322 122.268 62.5718 122.268 62.0035C122.268 61.4357 121.808 60.9753 121.239 60.9753C118.529 60.9753 115.86 61.7346 113.034 62.5388C110.007 63.3997 106.877 64.2912 103.476 64.2912C99.0232 64.2912 97.8354 62.8694 96.9682 61.8313C96.411 61.165 95.7791 60.4095 94.6031 60.4095C94.0341 60.4095 93.5743 60.8699 93.5743 61.4382C93.5743 62.006 94.0353 62.4664 94.6031 62.4664C94.7815 62.4664 94.9144 62.5818 95.3891 63.1508C96.3886 64.3468 98.0618 66.3481 103.476 66.3481Z" fill="#5A3C55"/>
<path d="M122.251 68.6042C121.893 69.2037 121.682 69.9018 121.671 70.6498L121.096 108.699C120.996 115.286 124.447 121.478 130.102 124.858L162.765 144.381C164.716 145.547 167.243 144.911 168.408 142.961C169.574 141.011 168.938 138.484 166.987 137.318L134.325 117.796C131.184 115.918 129.268 112.481 129.324 108.824L129.899 70.774C129.933 68.5025 128.12 66.6321 125.847 66.5984C124.323 66.5753 122.98 67.3839 122.251 68.6042Z" fill="#FFA898"/>
<path d="M129.308 126.18L155.133 141.616C155.533 141.855 156.051 141.724 156.29 141.324L161.229 133.062C161.468 132.661 161.338 132.143 160.938 131.904L135.113 116.468C132.447 114.874 130.821 111.962 130.861 108.846L131.445 70.7995C131.462 69.2879 130.899 67.8617 129.846 66.7768C128.794 65.6912 127.387 65.0785 125.866 65.0567C123.857 65.0299 121.96 66.0774 120.926 67.8074C120.414 68.664 120.142 69.6397 120.129 70.6261L119.554 108.678C119.446 115.815 123.181 122.518 129.308 126.18Z" fill="#E1D9DF"/>
<path d="M148.75 137.801L152.758 140.197L158.563 130.485L154.555 128.089L148.75 137.801Z" fill="#D6CBD3"/>
<path d="M142.803 150.12C142.229 150.737 141.264 150.772 140.647 150.197L112.854 124.331C112.237 123.757 112.202 122.791 112.776 122.174L150.287 81.8696C150.861 81.2532 151.827 81.2182 152.443 81.7922L180.236 107.659C180.854 108.233 180.888 109.199 180.314 109.815L142.803 150.12ZM181.761 106.275L153.715 80.1733C152.339 78.8925 150.184 78.9698 148.903 80.3461L111.157 120.903C109.876 122.279 109.954 124.434 111.33 125.714L139.376 151.816C140.752 153.097 142.906 153.02 144.188 151.643L181.933 111.087C183.214 109.71 183.137 107.556 181.761 106.275Z" fill="#B6664C"/>
<path d="M180.236 107.659L152.443 81.7922C151.827 81.2182 150.861 81.2531 150.287 81.8695L112.776 122.174C112.202 122.791 112.237 123.757 112.853 124.331L140.646 150.197C141.263 150.772 142.229 150.737 142.803 150.12L180.314 109.815C180.888 109.199 180.853 108.233 180.236 107.659Z" fill="#F0ECEF"/>
<path d="M147.036 136.749L125.809 116.993C125.532 116.736 125.099 116.752 124.842 117.028C124.585 117.305 124.601 117.737 124.877 117.995L146.105 137.751C146.381 138.008 146.813 137.992 147.071 137.716C147.328 137.44 147.313 137.007 147.036 136.749Z" fill="#CABAC4"/>
<path d="M149.476 134.129L128.248 114.372C127.971 114.115 127.539 114.13 127.282 114.407C127.024 114.684 127.04 115.116 127.317 115.374L148.544 135.13C148.82 135.387 149.253 135.371 149.51 135.095C149.767 134.819 149.752 134.386 149.476 134.129Z" fill="#CABAC4"/>
<path d="M151.915 131.508L130.687 111.751C130.411 111.494 129.978 111.509 129.721 111.786C129.464 112.063 129.479 112.495 129.756 112.752L150.984 132.508C151.26 132.766 151.692 132.75 151.949 132.474C152.207 132.197 152.191 131.765 151.915 131.508Z" fill="#CABAC4"/>
<path d="M154.354 128.887L133.127 109.131C132.85 108.873 132.418 108.888 132.16 109.165C131.903 109.442 131.919 109.874 132.195 110.131L153.423 129.887C153.699 130.145 154.132 130.13 154.389 129.853C154.646 129.576 154.631 129.144 154.354 128.887Z" fill="#CABAC4"/>
<path d="M156.794 126.266L135.566 106.509C135.289 106.252 134.857 106.267 134.6 106.544C134.342 106.821 134.358 107.253 134.635 107.51L155.862 127.266C156.138 127.523 156.571 127.509 156.828 127.232C157.086 126.955 157.07 126.523 156.794 126.266Z" fill="#CABAC4"/>
<path d="M159.233 123.644L138.005 103.888C137.729 103.631 137.296 103.647 137.039 103.923C136.782 104.199 136.797 104.632 137.074 104.889L158.302 124.646C158.578 124.903 159.01 124.888 159.267 124.611C159.525 124.334 159.509 123.902 159.233 123.644Z" fill="#CABAC4"/>
<path d="M161.672 121.023L140.445 101.267C140.169 101.01 139.736 101.026 139.479 101.302C139.221 101.578 139.237 102.011 139.513 102.268L160.741 122.025C161.017 122.282 161.45 122.266 161.707 121.99C161.964 121.713 161.949 121.28 161.672 121.023Z" fill="#CABAC4"/>
<path d="M164.112 118.403L142.884 98.6462C142.607 98.3892 142.175 98.4042 141.918 98.6812C141.66 98.9575 141.676 99.3899 141.953 99.6469L163.18 119.404C163.457 119.661 163.889 119.645 164.146 119.368C164.404 119.093 164.388 118.66 164.112 118.403Z" fill="#CABAC4"/>
<path d="M166.551 115.782L145.323 96.0253C145.047 95.7676 144.614 95.7832 144.357 96.0602C144.1 96.3366 144.115 96.769 144.392 97.026L165.62 116.782C165.895 117.039 166.328 117.024 166.585 116.748C166.843 116.471 166.827 116.039 166.551 115.782Z" fill="#CABAC4"/>
<path d="M168.99 113.161L147.763 93.4044C147.487 93.1467 147.054 93.1623 146.797 93.4387C146.539 93.7157 146.555 94.148 146.831 94.4051L168.059 114.161C168.335 114.418 168.768 114.403 169.025 114.126C169.282 113.85 169.267 113.418 168.99 113.161Z" fill="#CABAC4"/>
<path d="M170.027 90.7648C169.243 90.0355 169.199 88.8089 169.928 88.026C170.657 87.2417 171.884 87.1981 172.667 87.9274C173.451 88.6567 173.495 89.8832 172.766 90.6668C172.036 91.4498 170.81 91.4941 170.027 90.7648ZM173.478 108.269L173.588 107.346C173.686 106.509 173.484 105.664 173.016 104.963L170.968 101.897C170.662 101.438 170.712 100.83 171.087 100.427L173.633 97.6904C174.081 97.2094 174.054 96.4576 173.573 96.0103L172.189 94.7227C171.842 94.3989 171.822 93.8542 172.145 93.5067L173.85 91.6756C175.136 90.2931 175.059 88.1295 173.676 86.8431C172.294 85.5567 170.13 85.634 168.844 87.0165L167.139 88.8476C166.816 89.1957 166.272 89.2151 165.924 88.8913L164.54 87.6036C164.059 87.1563 163.308 87.1831 162.86 87.6641L160.314 90.3998C159.938 90.8035 159.335 90.8958 158.856 90.6232L155.65 88.8008C154.918 88.3841 154.06 88.2431 153.233 88.4015L152.32 88.5768C152.087 88.6218 151.9 88.7934 151.834 89.0204C151.769 89.2482 151.837 89.4927 152.01 89.6543L172.426 108.655C172.6 108.816 172.848 108.867 173.071 108.785C173.293 108.704 173.451 108.504 173.478 108.269Z" fill="#B8A5B2"/>
<path d="M158.044 90.7748L113.298 134.137L108.17 128.846C107.865 128.531 107.872 128.03 108.187 127.724L151.793 85.4656C152.108 85.1606 152.61 85.168 152.915 85.4831L158.044 90.7748Z" fill="#54939B"/>
<path d="M145.118 155.874L141.078 159.789C140.246 160.595 138.918 160.573 138.111 159.741L134.196 155.702L145.118 155.874Z" fill="#54939B"/>
<path d="M178.763 123.268L145.118 155.874L134.196 155.702L113.298 134.137L158.044 90.7748L178.941 112.339L178.763 123.268Z" fill="#5FA2A8"/>
<path d="M182.803 119.353L178.763 123.268L178.941 112.339L182.857 116.379C183.663 117.211 183.634 118.547 182.803 119.353Z" fill="#54939B"/>
<path d="M156.477 129.31C156.283 129.499 155.954 129.505 155.754 129.298L143.055 116.195C142.866 115.999 142.871 115.659 143.065 115.47L151.677 107.125C151.884 106.924 152.213 106.941 152.402 107.135L165.101 120.24C165.301 120.446 165.297 120.763 165.089 120.965L156.477 129.31Z" fill="#F0ECEF"/>
<path d="M97.5996 61.8562L97.6034 61.7533V61.7527C97.6108 61.5655 97.6165 61.4295 97.6171 61.4176C97.6264 61.2136 97.6801 61.0595 97.7606 60.9323L97.7674 60.9111L97.7749 60.9042C97.8442 60.8031 97.939 60.7264 98.0463 60.6628L98.1099 60.6266C98.221 60.5704 98.3445 60.5243 98.4811 60.4887L98.4943 60.4843L98.5236 60.4794C98.7825 60.417 99.0738 60.3776 99.3758 60.3271C99.4943 60.309 99.616 60.3015 99.7358 60.2859C99.8243 60.2735 99.9023 60.2554 99.9928 60.2442C100.07 60.2354 100.148 60.2373 100.224 60.2292C100.554 60.1955 100.881 60.1761 101.211 60.1637C101.322 60.1599 101.433 60.1431 101.545 60.1418H101.546C101.649 60.1406 101.753 60.1406 101.855 60.1418C104.684 60.1418 111.812 60.1936 114.62 60.6459C114.991 60.7096 115.331 60.7975 115.653 60.9011C115.759 60.9348 115.855 60.9791 115.957 61.0177C116.164 61.0957 116.366 61.1775 116.555 61.2729C116.663 61.3272 116.766 61.3883 116.869 61.4482C117.036 61.5449 117.199 61.6479 117.354 61.7589C117.451 61.8288 117.549 61.9018 117.642 61.9767C117.698 62.0222 117.76 62.0602 117.815 62.1083L117.784 62.102C118.93 63.0828 119.796 64.4615 120.864 66.1491C121.142 66.5815 121.409 67.0132 121.625 67.4349C126.367 76.3015 129.226 85.5386 128.198 90.5065C128.183 90.5814 128.167 90.655 128.151 90.7286C127.395 94.3165 127.018 97.9774 127.018 101.643V220.893H124.711H114.291H111.672V97.2986C111.672 93.8162 110.632 90.4054 108.68 87.5225C107.385 85.6103 105.838 83.3956 104.005 80.7041C99.1294 73.5651 97.8847 68.0519 97.6277 64.8839V64.8733C97.6171 64.7504 97.6065 64.6163 97.6065 64.4927C97.5659 63.9992 97.5553 63.5675 97.5659 63.2069C97.5528 63.1814 97.5803 62.3784 97.5996 61.8562Z" fill="#C7B8C3"/>
<path d="M117.826 62.1102C116.985 61.3821 115.985 60.8799 114.62 60.6459C111.812 60.1936 104.684 60.1418 101.855 60.1418C101.75 60.1406 101.648 60.1406 101.546 60.1418H101.545C100.984 60.1475 100.473 60.1868 99.9928 60.2442C99.4656 60.3084 98.9753 60.3945 98.4943 60.4843L98.3988 60.5018C98.0619 60.5648 97.8754 60.7108 97.7674 60.9111C97.6452 61.1369 97.624 61.432 97.6034 61.7533L97.5965 61.8569C96.5889 62.0234 95.6344 62.2094 94.7354 62.4071L94.7373 62.4053C94.809 62.3329 94.8708 62.2711 94.9425 62.1994C95.5695 61.5724 96.4498 60.5898 96.8971 59.8337C97.113 59.4837 97.473 59.2266 97.8947 59.1442V59.1343C99.3452 58.8461 100.816 58.7019 102.297 58.7019C114.188 58.6707 115.515 58.7019 118.395 60.6665C118.601 60.8 118.806 60.9548 119.033 61.1088C119.886 61.7259 120.72 62.3535 121.522 63.0323L121.527 63.036C120.412 62.7079 119.177 62.3903 117.826 62.1102Z" fill="#FAF9FA"/>
<path d="M112.924 62.9006V62.8975C113.009 62.1102 113.892 61.7727 114.774 61.9012L116.724 62.8863L116.872 63.4915C115.646 63.2563 114.332 63.0522 112.924 62.9006Z" fill="#69BDBF"/>
<path d="M126.911 154.904C129.179 155.952 130.555 158.424 130.109 161.002L122.62 204.362C118.942 225.65 112.483 246.388 103.42 266L84.9625 305.945C83.6523 308.781 80.2903 310.018 77.4541 308.708C74.6174 307.397 73.3808 304.034 74.6916 301.199L93.149 261.254C101.797 242.539 107.96 222.75 111.47 202.437L118.96 159.077C119.492 155.997 122.419 153.933 125.498 154.465C125.998 154.551 126.471 154.701 126.911 154.904Z" fill="#FF9E8D"/>
<path d="M118.251 158.957L110.76 202.316C107.26 222.567 101.112 242.298 92.4906 260.955L76.4146 295.745C76.2642 296.072 76.4096 296.468 76.7359 296.619L87.1191 301.416C87.446 301.567 87.8421 301.422 87.9931 301.096L104.069 266.305C113.16 246.631 119.644 225.831 123.331 204.487L130.822 161.129C131.31 158.283 129.828 155.458 127.214 154.249C126.71 154.016 126.175 153.849 125.62 153.751C122.155 153.157 118.844 155.492 118.251 158.957Z" fill="#4C8890"/>
<path d="M96.552 154.397C99.0488 154.305 101.394 155.886 102.164 158.386L115.114 200.44C121.471 221.086 125.099 242.502 125.897 264.092L127.521 308.064C127.636 311.186 125.199 313.812 122.076 313.927C118.954 314.042 116.329 311.604 116.214 308.482L114.59 264.509C113.829 243.907 110.367 223.472 104.3 203.77L91.3508 161.717C90.4312 158.73 92.1063 155.564 95.0928 154.645C95.5775 154.496 96.0673 154.415 96.552 154.397Z" fill="#FFA898"/>
<path d="M90.6646 161.93L103.613 203.983C109.659 223.626 113.109 244.002 113.867 264.54L115.282 302.84C115.295 303.2 115.605 303.487 115.964 303.473L127.394 303.05C127.754 303.038 128.041 302.729 128.028 302.369L126.614 264.069C125.813 242.411 122.179 220.93 115.805 200.229L102.857 158.176C102.004 155.418 99.4032 153.569 96.5253 153.676C95.97 153.696 95.4179 153.789 94.8789 153.952C91.5199 154.992 89.6252 158.572 90.6646 161.93Z" fill="#54939B"/>
<path d="M101.421 62.5761C101.421 65.7005 103.954 68.2334 107.078 68.2334C110.203 68.2334 112.736 65.7005 112.736 62.5761C112.736 59.4517 110.203 56.9188 107.078 56.9188C103.954 56.9188 101.421 59.4517 101.421 62.5761Z" fill="#FFA898"/>
<path d="M106.451 74.0355C106.719 74.0505 106.981 74.0468 107.24 74.0299C110.459 73.8116 113.08 71.22 113.256 67.9153L114.515 44.0995C114.704 40.5309 111.965 37.4839 108.395 37.2949C104.793 37.0971 101.78 39.8465 101.591 43.4157L100.332 67.2316C100.142 70.8001 102.883 73.8478 106.451 74.0355Z" fill="#FFA898"/>
<path d="M101.018 54.2406L101.591 43.4157C101.78 39.8466 104.793 37.0971 108.395 37.2949C111.966 37.4839 114.704 40.5303 114.515 44.0995L113.688 59.7469C111.516 59.2647 109.246 58.5148 106.888 57.4848C104.863 56.6001 102.896 55.4946 101.018 54.2406Z" fill="#F48989"/>
<path d="M91.0433 160.051C91.0433 163.176 93.5763 165.708 96.7006 165.708C99.825 165.708 102.358 163.176 102.358 160.051C102.358 156.927 99.825 154.394 96.7006 154.394C93.5763 154.394 91.0433 156.927 91.0433 160.051Z" fill="#FFA898"/>
<path d="M118.877 160.051C118.877 163.176 121.409 165.708 124.534 165.708C127.659 165.708 130.191 163.176 130.191 160.051C130.191 156.927 127.659 154.394 124.534 154.394C121.409 154.394 118.877 156.927 118.877 160.051Z" fill="#FFA898"/>
<path d="M83.2998 70.7714C83.2998 73.0435 85.1421 74.8859 87.4143 74.8859C89.687 74.8859 91.5287 73.0435 91.5287 70.7714C91.5287 68.4992 89.687 66.6569 87.4143 66.6569C85.1421 66.6569 83.2998 68.4992 83.2998 70.7714Z" fill="#FFA898"/>
<path d="M121.639 70.7714C121.639 73.0435 123.481 74.8859 125.754 74.8859C128.026 74.8859 129.868 73.0435 129.868 70.7714C129.868 68.4992 128.026 66.6569 125.754 66.6569C123.481 66.6569 121.639 68.4992 121.639 70.7714Z" fill="#FFA898"/>
<path d="M83.8244 72.7928C82.7239 70.8039 83.4445 68.3003 85.4322 67.2004C85.7722 67.0126 93.8932 62.6055 107.436 62.6055H107.438H107.438C120.006 62.6055 127.566 67.0887 127.882 67.2796C129.827 68.455 130.45 70.9842 129.275 72.9288C128.886 73.5727 128.337 74.0855 127.697 74.4286C126.399 75.123 125.833 76.6858 126.388 78.0496L126.389 78.0527C127.147 79.9181 128.561 81.4348 130.366 82.3256C133.368 83.8055 135.433 86.8912 135.433 90.4647C135.433 94.752 132.459 98.3362 128.463 99.2894C127.344 105.833 123.249 114.127 126.763 123.858C127.861 126.899 128.803 129.318 129.593 131.513C131.628 136.202 132.52 142.104 132.52 148.716C132.52 168.309 124.534 169.096 104.405 169.096C104.405 169.096 83.8394 169.934 84.1133 152.749C84.1695 149.232 85.3261 144.428 86.31 141.4C88.9533 133.269 92.6791 129.662 94.7909 126.588C99.0221 120.426 99.1949 112.301 95.1578 105.94C93.2793 102.98 91.4307 99.0262 89.6271 93.7401C87.8603 88.5594 87.1435 84.2303 87.2863 80.6468C87.3899 78.0627 86.3929 75.5503 84.5456 73.7405C84.2649 73.4653 84.0203 73.1472 83.8244 72.7928Z" fill="#FFA898"/>
<path d="M105.963 95.4288H129.801C131.62 95.4288 133.31 94.8885 134.731 93.9677C133.36 97.2437 130.125 99.5464 126.351 99.5464H106.842C101.826 99.5464 97.7606 95.4806 97.7606 90.4646C97.7606 90.391 97.7693 90.3199 97.7712 90.2469C99.2317 93.3082 102.346 95.4288 105.963 95.4288Z" fill="#F48989"/>
<path d="M96.7001 166.428C100.217 166.428 103.078 163.567 103.078 160.051C103.078 156.535 100.217 153.673 96.7001 153.673C93.1839 153.673 90.3228 156.535 90.3228 160.051C90.3228 163.567 93.1839 166.428 96.7001 166.428Z" fill="#73FFC4"/>
<path d="M124.534 166.428C128.05 166.428 130.912 163.567 130.912 160.051C130.912 156.535 128.05 153.673 124.534 153.673C121.017 153.673 118.156 156.535 118.156 160.051C118.156 163.567 121.017 166.428 124.534 166.428Z" fill="#73FFC4"/>
<path d="M83.3915 152.738C83.3192 157.377 84.7085 161.172 87.526 164.032C92.8139 169.401 101.433 169.823 103.943 169.823C104.262 169.823 104.437 169.812 104.437 169.812H104.457C124.413 169.812 133.238 168.958 133.238 148.715C133.238 142.961 132.565 137.973 131.238 133.848C131.122 133.489 130.788 133.246 130.41 133.246H89.7894C89.4113 133.246 89.0601 133.448 88.8723 133.776C87.7325 135.764 86.6045 138.168 85.6238 141.176C84.6362 144.242 83.4527 149.096 83.3915 152.738Z" fill="#54939B"/>
<path d="M92.787 129.245C92.6547 129.245 92.5293 129.307 92.4489 129.413C91.621 130.504 90.7307 131.75 89.8304 133.246H130.378C130.142 132.546 129.885 131.878 129.596 131.219C129.38 130.609 129.144 129.988 128.899 129.332L128.773 129.245H92.787Z" fill="#4B7D88"/>
<path d="M120.205 68.3164C120.283 68.7101 120.343 69.1007 120.415 69.4937C120.522 70.0826 120.636 70.6735 120.729 71.2586C120.804 71.7303 120.859 72.1994 120.925 72.6705C120.995 73.1721 121.074 73.6762 121.133 74.1753C121.195 74.7031 121.239 75.2277 121.29 75.7543C121.333 76.1923 121.385 76.6321 121.42 77.0688C121.465 77.6297 121.49 78.188 121.522 78.747C121.545 79.1469 121.578 79.5487 121.594 79.948C121.618 80.5332 121.623 81.1178 121.633 81.7017C121.64 82.071 121.656 82.4423 121.656 82.8103C121.658 83.4573 121.641 84.1036 121.626 84.75C121.619 85.0532 121.621 85.3576 121.611 85.6608C121.578 86.6079 121.528 87.5543 121.461 88.5007C121.44 88.7989 121.059 90.8565 121.223 90.98C121.132 90.9076 119.372 89.4983 118.354 88.6448C110.07 81.741 102.54 74.199 97.0002 64.9662C96.5167 64.1739 95.8785 63.4639 95.0562 63.0222C94.8454 62.9118 94.6245 62.8419 94.3937 62.8101L94.4012 62.8014C95.3195 62.5911 96.2959 62.3934 97.3321 62.2162C98.0009 62.1014 98.6835 62.3491 99.1239 62.8657C100.013 63.9063 100.674 65.1503 101.424 66.262C104.358 70.6778 108.836 76.4399 118.57 84.8186C118.743 78.1905 117.906 71.4246 116.369 65.1821C116.071 63.9992 115.957 62.4358 114.774 61.9011C116.204 62.0964 117.531 62.3534 118.755 62.6311C119.157 63.4745 119.331 64.411 119.558 65.3468C119.794 66.3425 120.009 67.332 120.205 68.3164Z" fill="#69BDBF"/>
<path d="M110.594 96.2007C110.121 95.4477 109.638 94.7477 109.169 94.1481C107.111 91.5042 97.0207 84.8599 94.5932 83.2858C94.295 83.1005 94.2126 82.72 94.3873 82.4423L98.1212 76.5898C98.1212 76.5898 92.9162 74.1928 91.1469 73.3805C90.8799 73.267 90.7358 73 90.767 72.7423C91.0034 70.7266 92.0316 67.7126 92.8239 65.5422C93.1851 64.5377 93.7154 63.6225 94.3935 62.8102C94.6244 62.842 94.8452 62.9119 95.0561 63.0223C95.8784 63.4647 96.5166 64.174 97.0001 64.9663C102.539 74.1991 110.07 81.7417 118.354 88.6449C119.372 89.4984 121.132 90.9077 121.224 90.9801C121.059 90.8566 121.44 88.799 121.46 88.5008C121.528 87.5544 121.578 86.608 121.611 85.6609C121.621 85.3577 121.619 85.0533 121.626 84.7501C121.641 84.1037 121.658 83.4574 121.656 82.8104C121.655 82.4417 121.639 82.0718 121.633 81.7018C121.623 81.1179 121.618 80.5333 121.594 79.9481C121.577 79.5482 121.545 79.147 121.522 78.7465C121.49 78.1881 121.465 77.6298 121.42 77.0689C121.385 76.6316 121.333 76.1924 121.29 75.7544C121.239 75.2278 121.195 74.7032 121.133 74.176C121.073 73.6756 120.995 73.1722 120.924 72.6706C120.86 72.2002 120.803 71.7304 120.729 71.2587C120.636 70.6723 120.522 70.0821 120.415 69.4938C120.343 69.1008 120.283 68.7102 120.205 68.3165C120.009 67.3308 119.793 66.3407 119.557 65.3469C119.331 64.4111 119.156 63.4746 118.755 62.6312C119.977 62.9113 121.09 63.2195 122.099 63.5339C123.892 65.0761 125.575 66.7893 127.2 68.8238C128.409 70.3273 129.683 71.7703 130.668 72.8515C130.566 73.0929 130.467 73.335 130.327 73.5652C129.833 74.3881 129.123 75.0675 128.28 75.5198C127.539 75.911 127.21 76.8056 127.529 77.5873L127.539 77.6079C128.187 79.1813 129.381 80.4672 130.913 81.2183C132.139 81.8222 133.19 82.6526 134.059 83.6283C133.724 88.716 131.331 93.5112 129.045 96.2007H110.594Z" fill="#5FA2A8"/>
<path d="M112.815 100.318H125.93C125.125 102.071 124.793 103.763 124.711 104.218V115.779V172.675C122.073 173.003 118.664 173.217 114.291 173.234V105.164C114.276 104.016 113.681 102.218 112.815 100.318Z" fill="#5FA2A8"/>
<path d="M111.22 97.2382L111.163 97.1402C110.976 96.8202 110.787 96.5057 110.595 96.2013L110.594 96.2007H129.045L129.028 96.22C128.702 96.6018 128.379 96.9431 128.064 97.2338C127.853 97.4266 127.66 97.6362 127.473 97.8527L127.349 97.9987C127.17 98.2176 126.999 98.4429 126.841 98.6768L126.818 98.713C126.66 98.9488 126.516 99.1909 126.38 99.4355L126.322 99.5384C126.181 99.7973 126.05 100.057 125.93 100.318H112.815L112.815 100.318C112.347 99.2907 111.801 98.2382 111.22 97.2382Z" fill="#517C88"/>
<path d="M79.843 219.689C79.843 220.008 79.9665 220.317 80.1923 220.543C80.4188 220.769 80.717 220.893 81.0358 220.893H113.096C113.756 220.893 114.291 220.358 114.291 219.698V173.234V105.164C114.277 104.017 113.681 102.218 112.815 100.318H105.917H105.814C100.798 100.318 96.7319 96.2518 96.7319 91.2365C96.7319 91.1628 96.7406 91.0917 96.7425 91.0187C98.203 94.0801 101.317 96.2006 104.935 96.2006H105.038H110.594C110.121 95.4476 109.638 94.7476 109.169 94.1481C107.111 91.5041 97.0208 84.8598 94.5933 83.2858C94.295 83.1004 94.2127 82.7199 94.3874 82.4423L98.1213 76.5897C98.1213 76.5897 92.9163 74.1927 91.147 73.3805C90.88 73.2669 90.7358 72.9999 90.767 72.7422C91.0035 70.7265 92.0316 67.7126 92.8239 65.5421C93.1852 64.5377 93.7155 63.6224 94.3936 62.8102L94.4011 62.8014C94.5122 62.6685 94.6176 62.5313 94.7374 62.4052C88.4936 63.7834 84.9138 65.7274 84.6874 65.8509C81.9517 67.3626 80.9641 70.8089 82.4763 73.5346C82.7434 74.0181 83.0728 74.4598 83.4633 74.841C84.9962 76.3426 85.8297 78.4408 85.7473 80.58C85.5926 84.4786 86.4055 89.0766 88.1642 94.2404C89.9335 99.4248 91.7952 103.519 93.8527 106.769C97.5554 112.591 97.4219 120.028 93.5233 125.716C91.3797 128.778 87.5329 132.641 84.8415 140.919C83.8545 143.953 82.9187 147.934 82.651 151.287C82.1575 152.285 79.9871 205.515 79.843 219.689Z" fill="#E9E3E8"/>
<path d="M111.22 97.2381C111.801 98.2381 112.347 99.2906 112.815 100.318C112.347 99.2906 111.8 98.2369 111.22 97.2381Z" fill="#E9E3E8"/>
<path d="M110.595 96.2013C110.787 96.5058 110.976 96.8202 111.163 97.1403C110.976 96.8202 110.787 96.5058 110.595 96.2013Z" fill="#E9E3E8"/>
<path d="M122.099 63.5338C121.906 63.3679 121.717 63.1938 121.522 63.0322C125.966 64.3486 128.496 65.8509 128.681 65.9638C131.15 67.4449 132.076 70.5512 130.913 73.1228C130.838 73.0411 130.747 72.9394 130.667 72.8514C129.684 71.7702 128.408 70.3272 127.2 68.8237C125.575 66.7899 123.892 65.0761 122.099 63.5338Z" fill="#E9E3E8"/>
<path d="M134.44 97.3156C134.749 96.9581 135.029 96.5844 135.281 96.1963C135.029 96.585 134.749 96.9574 134.44 97.3156Z" fill="#E9E3E8"/>
<path d="M135.292 96.1807C135.544 95.7895 135.769 95.3852 135.964 94.9678C135.769 95.3852 135.545 95.7889 135.292 96.1807Z" fill="#E9E3E8"/>
<path d="M133.406 98.3536C133.775 98.0311 134.116 97.6886 134.428 97.3299C134.116 97.6892 133.775 98.0305 133.406 98.3536Z" fill="#E9E3E8"/>
<path d="M131.447 96.2006H129.045L129.028 96.22L129.045 96.2006C131.331 93.5111 133.724 88.716 134.059 83.6283C134.069 83.4761 134.085 83.3251 134.091 83.1729C135.922 85.1063 136.972 87.6885 136.972 90.4653C136.972 92.0319 136.622 93.561 135.964 94.9678C134.631 95.7377 133.098 96.2006 131.447 96.2006Z" fill="#E9E3E8"/>
<path d="M124.711 104.218C124.793 103.763 125.125 102.071 125.93 100.318H127.534H127.997C129.516 100.318 130.939 99.9307 132.197 99.2713C132.628 98.9881 133.029 98.6824 133.401 98.358C132.901 98.7947 132.368 99.2096 131.762 99.5695C130.503 100.316 129.593 101.534 129.234 102.953C129.078 103.572 128.919 104.174 128.784 104.681C127.889 108.096 126.912 111.799 126.912 115.779C126.912 118.197 127.272 120.706 128.218 123.33C129.832 127.826 130.941 130.501 131.732 132.727C133.854 138.696 135.995 144.07 136.683 150.093C135.862 150.093 134.974 150.093 134.932 150.093C134.531 150.093 134.212 150.629 134.212 151.287V155.289V169.318C134.212 170.522 134.613 171.623 135.251 172.199C135.947 172.809 136.814 173.206 137.743 173.403C137.848 173.425 137.952 173.416 138.054 173.395C138.778 190.085 139.544 211.464 139.628 219.689C139.628 220.356 139.099 220.893 138.435 220.893C134.117 220.893 130.807 220.893 125.905 220.893C125.245 220.893 124.711 220.358 124.711 219.698V172.675V115.779V104.218Z" fill="#E9E3E8"/>
<path d="M126.38 99.4354C126.516 99.1909 126.66 98.9488 126.818 98.713C126.661 98.9488 126.516 99.1909 126.38 99.4354Z" fill="#E9E3E8"/>
<path d="M126.841 98.6768C126.999 98.4428 127.169 98.2176 127.349 97.9986C127.169 98.2176 126.998 98.4428 126.841 98.6768Z" fill="#E9E3E8"/>
<path d="M125.93 100.318C126.05 100.057 126.181 99.7973 126.322 99.5384C126.181 99.7967 126.05 100.058 125.93 100.318Z" fill="#E9E3E8"/>
<path d="M127.473 97.8527C127.66 97.6362 127.853 97.4266 128.064 97.2338C127.853 97.4266 127.66 97.6362 127.473 97.8527Z" fill="#E9E3E8"/>
<path d="M127.997 100.318H125.93C126.05 100.058 126.181 99.7967 126.322 99.5384L126.38 99.4355C126.516 99.1909 126.661 98.9488 126.818 98.713L126.841 98.6768C126.998 98.4429 127.17 98.2176 127.349 97.9987L127.473 97.8527C127.66 97.6362 127.853 97.4266 128.064 97.2338C128.379 96.9431 128.702 96.6018 129.028 96.22L129.046 96.2007H130.984H131.447C133.098 96.2007 134.631 95.7377 135.964 94.9679C135.769 95.3852 135.544 95.7895 135.292 96.1807L135.281 96.1963C135.029 96.5844 134.749 96.958 134.44 97.3155L134.428 97.3299C134.116 97.6886 133.775 98.0311 133.406 98.3536L133.401 98.358C133.03 98.6824 132.628 98.9881 132.197 99.2714C130.939 99.9308 129.516 100.318 127.997 100.318Z" fill="#D3C6CF"/>
<path d="M110.595 96.2013C110.786 96.5057 110.976 96.8202 111.163 97.1396L111.22 97.2382C111.8 98.237 112.347 99.2907 112.815 100.318V100.318H105.917H105.814C100.798 100.318 96.7318 96.2518 96.7318 91.2365C96.7318 91.1629 96.7405 91.0917 96.7424 91.0187C98.2029 94.0801 101.317 96.2007 104.935 96.2007H105.038H110.594L110.595 96.2013Z" fill="#D3C6CF"/>
<path d="M134.212 155.288V151.287C134.212 150.629 134.531 150.093 134.932 150.093C134.974 150.093 135.863 150.093 136.684 150.093C137.417 150.093 138.097 150.093 138.069 150.093C138.416 150.093 138.701 150.365 138.719 150.712C138.788 152.11 138.852 153.633 138.924 155.288C137.205 155.288 138.091 155.288 134.212 155.288Z" fill="#FAF9FA"/>
<path d="M137.743 173.403C136.814 173.206 135.947 172.809 135.251 172.199C134.614 171.623 134.212 170.522 134.212 169.318V155.289C138.091 155.289 137.205 155.289 138.924 155.289C139.057 158.569 139.191 162.375 139.335 166.819V166.86C139.359 168.119 139.271 171.818 138.546 173.05C138.437 173.234 138.255 173.352 138.054 173.395C137.953 173.416 137.848 173.425 137.743 173.403Z" fill="#E1D9DF"/>
<path d="M84.6973 67.7574C84.4327 67.9914 84.195 68.2628 83.991 68.571L63.0325 100.249C59.2855 105.912 59.8121 113.418 64.3121 118.502L89.4868 146.946C90.9922 148.648 93.5931 148.806 95.2944 147.3C96.9957 145.794 97.1542 143.193 95.6488 141.492L70.4741 113.049C68.4378 110.748 68.1995 107.352 69.8952 104.79L90.8537 73.1116C92.1077 71.2162 91.588 68.6633 89.6926 67.41C88.1055 66.36 86.0573 66.554 84.6973 67.7574Z" fill="#FFA898"/>
<path d="M104.356 151.84C104.191 153.076 103.817 154.266 103.239 155.375L101.229 159.238C100.846 159.975 99.9373 160.261 99.1999 159.877C99.1225 159.837 99.0495 159.79 98.9828 159.74C98.7569 159.568 98.4668 159.505 98.1898 159.567C97.9128 159.63 97.6764 159.81 97.5454 160.061L97.5036 160.142C97.1205 160.879 96.2128 161.165 95.4747 160.781C94.8196 160.44 94.5208 159.684 94.7317 159.003C94.7585 158.918 94.7928 158.833 94.8359 158.752C94.8876 158.653 94.8802 158.535 94.8165 158.444C94.7535 158.352 94.645 158.305 94.5352 158.319C94.2463 158.355 93.9443 158.308 93.6661 158.163C92.928 157.779 92.6473 156.871 93.0254 156.133C93.0809 156.027 93.074 155.899 93.0085 155.798C92.9424 155.697 92.8276 155.64 92.7078 155.649C92.4832 155.664 92.2511 155.616 92.0384 155.499C91.4426 155.172 91.2286 154.427 91.5537 153.827L93.0497 151.109C93.2275 150.785 93.2656 150.404 93.157 150.052C93.0472 149.7 92.8002 149.408 92.4714 149.241C89.2291 147.604 87.1703 145.062 87.5983 142.877C88.1404 140.11 92.4589 138.962 97.2446 140.313C106.397 142.898 105.497 143.223 104.356 151.84Z" fill="#FFA898"/>
<path d="M63.1573 119.524L83.0496 141.999C83.3584 142.348 83.8918 142.381 84.2412 142.072L91.4495 135.691C91.7988 135.383 91.8313 134.849 91.5225 134.5L71.6302 112.025C70.0555 110.245 69.8727 107.619 71.1822 105.636L92.1463 73.9633C92.9811 72.703 93.2693 71.1976 92.9667 69.7066C92.6623 68.2311 91.8082 66.9546 90.5473 66.1199C88.4099 64.7143 85.5857 64.9071 83.676 66.5971C83.2985 66.9315 82.9766 67.3127 82.704 67.7189L61.7461 99.3993C57.6129 105.64 58.195 113.917 63.1573 119.524Z" fill="#F2EEF1"/>
<path d="M78.1216 136.431L81.2166 139.928L89.6889 132.428L86.5938 128.932L78.1216 136.431Z" fill="#EDE7EB"/>
<path d="M134.033 81.7554C134.184 81.7554 134.338 81.7223 134.483 81.6518C134.994 81.4029 135.206 80.7871 134.958 80.2768C134.267 78.8575 128.16 66.3544 126.56 64.3717C124.742 62.1189 123.42 60.9753 121.239 60.9753C120.671 60.9753 120.211 61.4357 120.211 62.0035C120.211 62.5718 120.671 63.0322 121.239 63.0322C122.366 63.0322 123.13 63.3978 124.959 65.6637C126.189 67.1885 131.258 77.3789 133.108 81.1776C133.286 81.5432 133.652 81.7554 134.033 81.7554Z" fill="#5A3C55"/>
<path d="M131.354 83.6969C131.494 82.3867 132.164 81.348 133.157 80.905L133.184 80.8932L133.157 80.9044L133.18 80.8944L134.403 80.3622L134.383 80.371C134.72 80.2206 135.094 80.1395 135.498 80.1395C137.489 80.1395 139.429 82.1247 139.832 84.5659C140.156 86.5286 139.387 88.1906 138.038 88.7671L138.055 88.7596L136.832 89.2924C136.672 89.3616 136.505 89.4159 136.331 89.4534C136.261 89.4683 136.191 89.4802 136.12 89.4902C135.994 89.507 135.865 89.5157 135.733 89.5157C135.465 89.5157 135.197 89.4796 134.934 89.4116H134.935H134.934C134.806 89.3785 134.68 89.3379 134.555 89.2899C133.967 89.0647 133.411 88.681 132.933 88.1825C132.479 87.7109 132.095 87.1363 131.816 86.4968C131.723 86.2859 131.643 86.0669 131.575 85.8423C131.501 85.6003 131.442 85.352 131.401 85.0981C131.346 84.7687 131.323 84.448 131.328 84.1386C131.33 83.9882 131.339 83.841 131.354 83.6969Z" fill="#C5B6C1"/>
<path d="M137.164 85.969L137.148 85.9821L137.118 86.0064L137.109 86.0133L137.101 86.0189L137.067 86.0426L137.053 86.052L137.002 86.0819L136.951 86.1087L136.936 86.1162L136.897 86.1331L136.879 86.1406L136.838 86.1562L136.838 86.1555L136.823 86.1605L136.707 86.1911L136.702 86.1924L136.635 86.2023L136.625 86.2036L136.582 86.208L136.562 86.2092H136.562L136.499 86.2111C136.29 86.2111 136.082 86.153 135.888 86.0495C135.392 85.7843 134.987 85.2216 134.878 84.5659C134.864 84.4804 134.856 84.3962 134.852 84.3138L134.851 84.2328L134.852 84.1591V84.1529L134.858 84.0743L134.859 84.0612L134.865 84.0119L134.867 83.9913V83.9919L134.877 83.9264V83.9283L134.879 83.9221L134.892 83.8553L134.894 83.8491L134.911 83.7779L134.915 83.7661L134.929 83.7206L134.929 83.7212L134.935 83.7031L134.934 83.7037L134.955 83.6444L134.957 83.6413L135.013 83.514L135.019 83.5041H135.018L135.03 83.4835L135.039 83.466V83.4666L135.05 83.4473V83.4479L135.077 83.4036L135.076 83.4043L135.081 83.3968L135.202 83.2408L135.207 83.2352L135.243 83.199L135.239 83.2027L135.249 83.1934L135.248 83.194L135.292 83.1541L135.292 83.1547L135.305 83.1428L135.303 83.1447L135.337 83.1173V83.1179L135.355 83.1042L135.386 83.0823L135.386 83.0829L135.403 83.0711L135.403 83.0717L135.444 83.0461L135.443 83.0468L135.451 83.0418C135.599 82.9582 135.769 82.9114 135.955 82.9114C136.094 82.9114 136.234 82.9376 136.368 82.9862L136.501 83.0418L136.534 83.0586L136.594 83.0904L136.63 83.1116L136.67 83.1366L136.816 83.2408C136.876 83.2882 136.934 83.3406 136.989 83.3968L137.095 83.514L137.194 83.6413L137.284 83.7779L137.326 83.8491L137.365 83.9221L137.408 84.0131L137.435 84.0743L137.466 84.1529L137.486 84.2091L137.504 84.2633L137.52 84.3138C137.544 84.3962 137.563 84.4804 137.577 84.5659C137.657 85.0506 137.558 85.4842 137.336 85.7849L137.329 85.7937L137.3 85.8292L137.289 85.8436L137.262 85.8748L137.252 85.8854L137.207 85.931L137.201 85.9366L137.164 85.969Z" fill="#9E8697"/>
<path d="M137.119 86.0059L137.109 86.0134L137.101 86.019L137.069 86.0415L137.053 86.0521L137.002 86.082L136.952 86.1088L136.935 86.117L136.897 86.1332L136.88 86.1407L136.838 86.1556L136.823 86.1606L136.707 86.1912L136.702 86.1924L136.636 86.2024L136.625 86.2037L136.582 86.208L136.562 86.2093L136.5 86.2112H136.499C136.29 86.2112 136.082 86.1531 135.888 86.0496C135.392 85.7844 134.987 85.2217 134.878 84.566C134.864 84.4805 134.856 84.3963 134.853 84.3139L134.851 84.2328L134.853 84.1592V84.153L134.858 84.0744L134.859 84.0613L134.865 84.012L134.868 83.9914L134.878 83.9284L134.879 83.9222L134.893 83.8554L134.894 83.8492L134.911 83.778L134.915 83.7662L134.929 83.7213L134.935 83.7032L134.956 83.6445L134.957 83.6414L135.014 83.5141L135.019 83.5041L135.03 83.4836L135.039 83.4673L135.05 83.4474L135.077 83.4044L135.081 83.3969L135.203 83.2409L135.208 83.2353L135.239 83.2028L135.249 83.1935L135.292 83.1548L135.306 83.1429L135.337 83.118L135.355 83.1043L135.385 83.0837L135.403 83.0712L135.443 83.0469L135.452 83.0419C135.599 82.9583 135.769 82.9115 135.955 82.9115C136.094 82.9115 136.234 82.9377 136.368 82.9863L136.502 83.0419L136.631 83.1117L136.782 83.2147L136.817 83.2409C136.876 83.2883 136.934 83.3407 136.989 83.3969L137.095 83.5141L137.194 83.6414L137.226 83.6882L137.266 83.7487L137.284 83.778L137.326 83.8492L137.331 83.8585C137.364 83.9172 137.393 83.9783 137.42 84.0401L137.435 84.0744L137.467 84.153L137.482 84.1948L137.508 84.2753L137.52 84.3139C137.544 84.3963 137.563 84.4805 137.577 84.566C137.658 85.0507 137.558 85.4843 137.336 85.785L137.328 85.7944L137.302 85.8281L137.288 85.8443L137.262 85.8743L137.253 85.8855L137.207 85.931L137.201 85.9367L137.165 85.9685L137.147 85.9834L137.119 86.0059ZM139.408 84.566C139.053 82.4111 137.342 80.6674 135.585 80.6674C133.827 80.6674 132.691 82.4111 133.047 84.566C133.403 86.7209 135.113 88.4646 136.871 88.4646C138.629 88.4646 139.764 86.7209 139.408 84.566Z" fill="#ECE6EA"/>
<path d="M136.871 88.4646C135.113 88.4646 133.403 86.7208 133.047 84.566C132.691 82.4111 133.827 80.6674 135.585 80.6674C137.342 80.6674 139.053 82.4111 139.408 84.566C139.764 86.7208 138.629 88.4646 136.871 88.4646ZM137.949 88.8027L138.038 88.7672C139.387 88.1907 140.155 86.5287 139.832 84.566C139.429 82.1247 137.489 80.1396 135.497 80.1396C135.094 80.1396 134.72 80.2207 134.383 80.371L134.378 80.3729L134.376 80.3742L134.295 80.4122L134.266 80.4266L134.211 80.4553L134.178 80.4734L134.129 80.5014L134.095 80.5214L134.044 80.5526L134.015 80.5707L133.948 80.6169L133.938 80.6231L133.862 80.6792L133.84 80.6961L133.788 80.7366L133.759 80.7603L133.714 80.7984L133.686 80.8234L133.642 80.8633L133.616 80.8876L133.565 80.9375L133.548 80.955L133.482 81.0242L133.468 81.0392L133.417 81.0966L133.396 81.1222L133.356 81.1715L133.333 81.2002L133.295 81.2501L133.273 81.2788L133.23 81.3387L133.216 81.358L133.16 81.4416L133.154 81.4522L133.108 81.5246L133.09 81.5558L133.056 81.6138L133.039 81.6437L133.007 81.7043L132.991 81.7355L132.958 81.8022L132.945 81.8272L132.902 81.9207L132.895 81.937L132.861 82.0175L132.85 82.0455L132.822 82.116L132.809 82.1516L132.787 82.2127L132.774 82.2539L132.752 82.32L132.741 82.3556C132.72 82.4236 132.701 82.4922 132.683 82.5627L132.675 82.5964L132.658 82.6713L132.65 82.7074L132.635 82.7817L132.628 82.8204L132.615 82.8959L132.609 82.9308L132.593 83.0381L132.592 83.0425L132.578 83.1591L132.575 83.1934L132.568 83.2627L132.565 83.3039L132.56 83.3725L132.558 83.4106L132.555 83.4804L132.553 83.5241L132.552 83.5871L132.55 83.6389V83.6982L132.551 83.7543L132.552 83.8099L132.554 83.8672L132.557 83.9271L132.558 83.9789L132.563 84.0451L132.567 84.0962L132.572 84.1598L132.577 84.2122L132.585 84.2809L132.59 84.3289L132.6 84.4044L132.606 84.4474L132.624 84.566C132.633 84.6227 132.644 84.6789 132.655 84.7357L132.661 84.7675L132.696 84.9303L132.704 84.9609C132.73 85.0719 132.759 85.1824 132.792 85.2903L132.802 85.3246L132.849 85.47L132.857 85.4949L132.902 85.6235L132.913 85.6522L132.968 85.795L132.979 85.8219L133.032 85.9485L133.043 85.9734L133.091 86.0795L133.092 86.0839L133.145 86.1955L133.159 86.223L133.201 86.306L133.219 86.3397L133.258 86.4133L133.278 86.4507L133.316 86.5193L133.34 86.5593L133.381 86.6298L133.4 86.6616L133.463 86.7633L133.529 86.8656L133.546 86.8906L133.595 86.9629L133.621 86.9997L133.664 87.0602L133.691 87.0971L133.735 87.1563L133.764 87.1931L133.81 87.253L133.835 87.2848L133.9 87.3647L133.909 87.3753L133.985 87.4632L134.008 87.4888L134.063 87.5512L134.09 87.5799L134.142 87.6348L134.171 87.666L134.226 87.7215L134.258 87.7534L134.321 87.8145L134.342 87.8345L134.426 87.9125L134.454 87.9374L134.514 87.9892L134.55 88.0198L134.605 88.0659L134.638 88.0921L134.705 88.1445L134.73 88.1645L134.82 88.2312L134.846 88.25L134.914 88.2974L134.949 88.3217L135.007 88.3604L135.046 88.3854L135.109 88.4253L135.14 88.444C135.204 88.4827 135.269 88.5201 135.335 88.555L135.365 88.57L135.434 88.6056L135.468 88.6224L135.54 88.6561L135.568 88.6692L135.657 88.7085L135.67 88.7141L135.77 88.7547L135.809 88.769L135.864 88.789L135.897 88.8002L135.956 88.8202L135.996 88.8327L136.046 88.8483L136.093 88.8614L136.139 88.8745L136.187 88.8863L136.235 88.8982L136.28 88.9082L136.334 88.9194L136.375 88.9275L136.429 88.9375L136.473 88.9443L136.526 88.9524L136.569 88.9581L136.624 88.9649L136.666 88.9693L136.723 88.9737L136.762 88.9768L136.832 88.9799L136.859 88.9818L136.956 88.983L137.053 88.9818L137.079 88.9805L137.148 88.9774L137.186 88.9743L137.238 88.9693L137.287 88.9643L137.331 88.9593L137.366 88.9537L137.433 88.9437L137.468 88.9375L137.531 88.9256L137.564 88.9181L137.676 88.8913L137.701 88.8845L137.793 88.8576L137.82 88.8489L137.927 88.8115L137.949 88.8027Z" fill="#C5B6C1"/>
<path d="M96.5153 106.571L96.5652 106.57L99.0645 106.45C100.43 106.384 101.721 105.75 102.607 104.711C103.494 103.671 103.914 102.297 103.765 100.938C102.715 91.4043 99.747 75.5266 91.3503 76.3632C90.7856 76.42 90.3726 76.9241 90.4294 77.4893C90.4856 78.0546 90.979 78.4738 91.5549 78.4108C98.5947 77.7102 101.113 95.6491 101.72 101.164C101.808 101.961 101.561 102.767 101.042 103.376C100.523 103.985 99.7657 104.357 98.9665 104.395L96.4673 104.514C95.8996 104.542 95.4616 105.024 95.4884 105.591C95.5159 106.143 95.97 106.571 96.5153 106.571Z" fill="#5A3C55"/>
<path d="M96.5153 106.571L96.5658 106.57L99.0645 106.45C99.6322 106.422 99.533 104.375 98.9665 104.395L96.4673 104.514C95.8995 104.542 95.4616 105.024 95.4884 105.591C95.5159 106.143 95.97 106.571 96.5153 106.571Z" fill="#C5B6C1"/>
<path d="M89.9703 107.513C90.2803 107.513 90.5929 107.484 90.9011 107.425L93.3573 106.953C93.915 106.846 94.28 106.307 94.1739 105.749C94.0666 105.192 93.522 104.826 92.9692 104.933L90.5136 105.405C89.7294 105.555 88.9034 105.374 88.2533 104.903C87.6076 104.434 87.1778 103.709 87.0755 102.913C86.3661 97.4109 84.5987 79.3809 91.5942 78.4058C92.1569 78.3272 92.55 77.8081 92.4714 77.2447C92.3928 76.6826 91.8749 76.2859 91.311 76.3688C82.9972 77.5274 83.8095 93.662 85.0341 103.176C85.2095 104.532 85.9431 105.769 87.0468 106.569C87.8996 107.187 88.9296 107.513 89.9703 107.513Z" fill="#5A3C55"/>
<path d="M91.528 78.1644C91.5972 78.1644 91.6665 78.1582 91.737 78.1432C92.2935 78.0284 92.6509 77.4844 92.5368 76.9279C92.0751 74.7007 92.3084 69.4034 92.6478 65.5434C92.9204 62.4465 94.0584 62.4583 94.5906 62.4665H94.603C95.1651 62.4665 95.6256 62.0135 95.6312 61.4495C95.6374 60.8818 95.1826 60.4164 94.6149 60.4096C92.241 60.4308 90.8891 62.0485 90.599 65.3631C90.42 67.3963 89.8859 74.2702 90.5216 77.3446C90.6221 77.83 91.0501 78.1644 91.528 78.1644Z" fill="#5A3C55"/>
<path d="M90.7066 107.443C90.7708 107.443 90.8357 107.437 90.9012 107.425L93.3574 106.953C93.9152 106.846 94.2801 106.307 94.1741 105.749C94.0674 105.191 93.5259 104.823 92.9694 104.933L90.5138 105.405C89.956 105.511 90.2237 107.443 90.7066 107.443Z" fill="#C5B6C1"/>
<path d="M117.29 59.9883C118.723 60.7956 120.566 62.2231 121.522 63.0322C123.538 64.6986 125.399 66.5709 127.2 68.8237C128.506 70.4489 129.905 72.0223 130.913 73.1228C131.15 73.3805 131.366 73.6063 131.551 73.8016C131.664 73.9257 131.757 74.028 131.849 74.121L131.898 74.1784C131.972 74.2826 131.977 74.4217 131.911 74.5322L131.852 74.6263C131.587 75.0344 131.243 75.375 130.833 75.6376L128.578 77.0832C128.578 77.0832 132.23 81.0635 133.701 82.3187C134.102 82.6687 134.091 82.9975 134.091 83.1522V83.1728C133.845 89.1695 130.656 94.8368 128.064 97.2337C125.636 99.4554 124.844 103.477 124.711 104.218C124.947 101.471 125.482 99.5583 126.099 97.6761C126.768 95.6085 127.57 93.5716 128.197 90.5065C129.603 83.7175 123.575 70.3665 120.864 66.1491C119.372 63.789 118.31 62.0228 116.294 61.1356C116.147 61.0714 116.034 60.9472 115.984 60.795C115.933 60.6422 115.95 60.475 116.029 60.3358C116.283 59.8923 116.845 59.7375 117.29 59.9883Z" fill="#FAF9FA"/>
<path d="M90.767 72.7422C91.0034 70.7265 92.0316 67.7125 92.8239 65.5421C93.6137 63.346 95.4298 61.2829 96.3918 60.2884C96.5503 60.1243 96.7699 60.0339 96.9982 60.037C97.2266 60.0407 97.4431 60.1387 97.5972 60.3071C97.7693 60.4961 97.8186 60.7669 97.7238 61.0046C97.629 61.2423 97.6177 61.5411 97.5965 61.8599C97.5759 62.5075 97.5554 63.1869 97.566 63.2069C97.5516 63.7097 97.5903 64.4259 97.6277 64.8733V64.8839C97.8848 68.0519 99.1294 73.5651 104.005 80.7041C111.884 92.2758 114.528 95.0427 114.363 102.85C114.353 103.385 114.322 104.156 114.291 105.164C114.26 102.685 111.535 97.1719 109.169 94.148C107.111 91.504 97.0207 84.8597 94.5932 83.2857C94.295 83.101 94.2126 82.7211 94.3861 82.4435L94.3879 82.4416L98.1212 76.5897C98.1212 76.5897 92.9162 74.1927 91.1469 73.3804C90.8799 73.2669 90.7358 72.9999 90.767 72.7422Z" fill="#FAF9FA"/>
<path d="M87.5422 24.1492C87.5422 12.3705 98.1138 2.82203 111.153 2.82203C113.094 2.82203 115.033 3.04476 116.912 3.48335C122.633 4.81782 127.719 8.13681 130.967 12.6293C132.626 14.9252 133.657 17.4157 134.333 20.0816C135.183 23.4361 134.972 26.8032 134.972 30.2688C134.972 33.4468 135.268 36.7596 134.92 39.9252C134.313 45.4515 131.209 50.8636 126.244 54.1296C120.638 57.8173 113.345 56.1341 107.609 53.628C101.991 51.173 96.8011 46.9893 93.3997 42.3196C89.6197 37.1296 87.6588 30.9295 87.5472 24.7338C87.5447 24.5385 87.5422 24.3445 87.5422 24.1492Z" fill="#FFA898"/>
<path d="M94.539 26.9155C96.1055 26.5299 97.5635 27.4252 97.8268 29.2587C98.1519 31.5303 96.7244 31.6912 97.0046 33.7282C97.1786 34.9897 97.6896 35.4432 97.8674 36.6866C98.029 37.8083 97.7538 39.1353 96.7132 39.3917C95.0057 39.8116 92.8071 36.895 92.1589 34.0507C91.4963 31.1366 91.8676 27.5736 94.539 26.9155Z" fill="#F48989"/>
<path d="M114.714 43.266C114.727 43.2841 116.171 45.0946 119.989 45.0946C123.772 45.0946 125.202 43.3508 125.277 43.256C125.616 42.8074 126.254 42.7139 126.708 43.0489C127.164 43.3864 127.261 44.0309 126.924 44.4882C126.843 44.5973 124.901 47.1515 119.989 47.1515C115.082 47.1515 113.138 44.5973 113.059 44.4882C112.721 44.0309 112.818 43.3864 113.276 43.0489C113.734 42.712 114.376 42.8093 114.714 43.266Z" fill="#D63E39"/>
<path d="M111.56 37.1526C112.712 36.9897 113.77 37.807 113.925 38.958C114.078 40.1091 113.27 41.1678 112.119 41.3213C112.03 41.3332 111.327 41.5247 111.159 41.9052C110.812 42.6938 110.042 43.1624 109.232 43.1624C108.95 43.1624 108.663 43.1056 108.388 42.9845C107.324 42.5179 106.841 41.2776 107.308 40.2133C108.438 37.6411 111.243 37.195 111.56 37.1526Z" fill="#F8918C"/>
<path d="M126.058 38.958C126.212 37.807 127.268 36.9897 128.422 37.1526C128.738 37.195 131.546 37.641 132.678 40.212C133.144 41.2764 132.661 42.5166 131.598 42.9845C131.322 43.1056 131.035 43.1624 130.752 43.1624C129.944 43.1624 129.173 42.6938 128.826 41.9059C128.677 41.5677 128.088 41.3618 127.837 41.3182C126.7 41.1504 125.905 40.0997 126.058 38.958Z" fill="#F8918C"/>
<path d="M106.386 28.0247C108.474 25.3982 112.371 26.1468 112.535 26.1787C112.898 26.2516 113.132 26.6035 113.06 26.9666C112.987 27.3266 112.644 27.5537 112.272 27.4907C112.241 27.4826 109.018 26.8637 107.433 28.857C107.301 29.0235 107.106 29.1096 106.909 29.1096C106.763 29.1096 106.615 29.0616 106.493 28.9643C106.204 28.734 106.156 28.3142 106.386 28.0247Z" fill="#893327"/>
<path d="M127.709 27.4907C127.345 27.5587 126.995 27.3259 126.924 26.9641C126.851 26.6023 127.085 26.2516 127.447 26.1787C127.611 26.1475 131.509 25.3988 133.597 28.0247C133.827 28.3142 133.779 28.734 133.489 28.9643C133.365 29.0616 133.219 29.1096 133.073 29.1096C132.877 29.1096 132.681 29.0223 132.55 28.857C130.975 26.8755 127.742 27.4838 127.709 27.4907Z" fill="#893327"/>
<path d="M130.723 32.0257V33.6846C130.723 34.4594 130.107 35.0864 129.347 35.0864H129.345C128.584 35.0864 127.967 34.4575 127.967 33.6821V32.0257C127.967 31.2502 128.584 30.6213 129.345 30.6213C130.106 30.6213 130.723 31.2502 130.723 32.0257Z" fill="#532442"/>
<path d="M110.644 35.0864H110.641C109.879 35.0864 109.262 34.4575 109.262 33.6821V32.0257C109.262 31.2502 109.879 30.6213 110.641 30.6213C111.401 30.6213 112.018 31.2502 112.018 32.0257V33.6846C112.018 34.4594 111.403 35.0864 110.644 35.0864Z" fill="#532442"/>
<path d="M87.3726 37.6467C87.6708 38.4072 87.9996 39.1378 88.3914 39.8478C89.7283 42.3676 91.5694 44.4757 93.8528 45.9474C93.8528 45.9474 93.9351 44.7333 94.0686 43.2111C94.1822 41.9253 94.3357 40.4336 94.4904 39.2513C94.6239 38.3043 94.758 37.5644 94.8909 37.2868C96.6814 36.515 113.777 25.2004 112.862 11.4888C113.057 11.6635 125.534 27.175 134.987 28.7178C136.2 29.4895 136.664 25.7145 136.664 25.7145C136.664 25.7145 133.742 9.86363 124.372 5.83152C117.295 2.78701 109.374 -2.90148 96.9385 6.34561C86.0556 14.441 83.6281 28.132 87.3726 37.6467Z" fill="#9F462C"/>
<path d="M84.2043 53.3123C87.0941 56.048 95.323 58.4449 100.878 56.7985L101.012 54.3098L101.237 49.9795C98.4911 48.0143 96.033 45.7004 94.0684 43.2111C94.2743 40.9071 94.5925 37.9038 94.8907 37.2868C96.6812 36.515 113.777 25.2004 112.861 11.4889C113.057 11.6636 125.534 27.175 134.987 28.7178C134.977 29.2325 134.977 29.7466 134.977 30.2713C134.977 33.4493 135.264 36.7615 134.914 39.9295C134.308 45.4533 131.212 50.8635 126.244 54.1245C122.551 56.552 118.128 56.655 113.9 55.7192L113.838 56.8397C113.838 56.8397 123.662 59.5042 130.831 55.7909C134.463 53.9187 137.413 50.4013 138.052 44.0645C139.883 26.0545 135.09 10.0284 120.853 2.817C115.388 0.0551033 104.707 -1.55013 101.453 2.21122C101.156 2.55497 100.71 2.73404 100.258 2.69037C98.6208 2.53315 94.6929 2.78145 91.8774 8.02201C91.3833 8.92788 90.5816 10.316 89.5834 12.0441L89.5734 12.0541C83.5349 22.5976 70.884 45.978 84.2043 53.3123Z" fill="#9F462C"/>
<path d="M101.012 54.3099L101.238 49.9796C98.4912 48.0144 96.0332 45.7005 94.0686 43.2112C94.0686 43.2112 92.3099 54.1452 101.012 54.3099Z" fill="#893327"/>
<path d="M117.768 10.0315C117.768 10.0315 129.219 9.84119 135.426 19.2717C136.628 22.3692 137.435 25.7301 137.909 29.2681C135.322 28.3915 128.312 24.7812 117.768 10.0315Z" fill="#B55C32"/>
<path d="M135.846 28.4558C135.846 28.4558 122.139 12.4322 117.768 10.0315C119.139 12.6038 129.496 26.6509 135.846 28.4558Z" fill="#893327"/>
<path d="M113.838 56.8397C113.838 56.8397 123.662 59.5042 130.831 55.7909C131.417 55.4827 131.942 55.071 132.415 54.5463C130.615 54.5875 130.009 52.9005 130.009 52.9005C134.904 52.2217 136.292 43.4476 136.292 43.4476C137.188 36.4021 136.664 29.109 136.664 29.109L134.987 28.7178C134.977 29.2325 134.977 29.7466 134.977 30.2713C134.977 33.4493 135.264 36.7615 134.914 39.9295C134.308 45.4533 131.212 50.8635 126.244 54.1245C122.551 56.552 118.128 56.655 113.9 55.7192L113.838 56.8397Z" fill="#893327"/>
<path d="M85.726 39.436C86.0866 39.7754 87.1253 39.8784 88.3911 39.8478C90.458 39.8166 93.132 39.4566 94.4902 39.2514C94.6237 38.3043 94.7578 37.5644 94.8907 37.2868C94.8907 37.2868 92.5667 37.8314 88.9664 37.7803C92.0427 34.1805 96.2077 26.6198 96.4965 26.0845C96.1253 26.5892 90.9515 33.5529 87.3724 37.6467C86.766 38.3455 86.2101 38.9525 85.726 39.436Z" fill="#893327"/>
<path d="M134.976 29.4409C134.974 29.7166 134.972 29.9917 134.972 30.2687C134.972 30.3455 134.974 30.4229 134.974 30.4996C136.123 31.0268 137.175 32.1017 138.127 32.1017H139.056C139.056 31.7804 139.056 31.5627 139.056 31.4161C139.056 31.4067 139.056 31.3293 139.056 31.1621C139.056 30.8988 139.056 30.3941 139.056 29.4409H134.976Z" fill="#5A3C55"/>
<path d="M94.5795 29.4409C94.4316 29.6917 94.2788 29.9481 94.1197 30.2126H96.5272C98.1337 30.2126 99.5692 32.1017 100.83 32.1017H101.758C101.758 31.7804 101.758 31.5627 101.758 31.4161C101.758 31.4067 101.758 31.3293 101.758 31.1621C101.758 30.8988 101.758 30.3941 101.758 29.4409H94.5795Z" fill="#5A3C55"/>
<path d="M103.608 30.8347C103.679 29.8745 104.949 28.2493 109.255 28.2493C109.446 28.2493 109.641 28.2524 109.843 28.2587C113.289 28.3704 115.244 28.8932 116.184 29.955C116.779 30.6288 117.001 31.5746 116.878 32.9309C116.633 35.671 114.882 37.7366 112.806 37.7366L112.691 37.7341L106.497 37.5076C105.333 37.4646 104.329 36.4259 103.999 34.9217C103.616 33.1748 103.546 31.6651 103.608 30.8347ZM123.945 32.9309C123.823 31.5746 124.044 30.6288 124.64 29.955C125.58 28.8932 127.536 28.3704 130.981 28.2587C131.183 28.2524 131.378 28.2493 131.569 28.2493C135.875 28.2493 137.145 29.8745 137.216 30.8347C137.278 31.6651 137.208 33.1748 136.825 34.9217C136.495 36.4259 135.491 37.4646 134.327 37.5076L128.017 37.7366C125.942 37.7366 124.191 35.671 123.945 32.9309ZM101.768 29.4191V32.1099C101.768 32.1099 102.37 32.5753 102.934 33.4275C103.001 33.9497 103.092 34.5068 103.221 35.0926C103.63 36.9568 104.935 38.2476 106.467 38.3037L112.806 38.5333C114.852 38.5333 116.61 36.9181 117.337 34.5985C117.564 34.1599 117.803 33.664 117.96 33.2247C118.347 32.1479 119.514 32.0456 120.087 32.065C120.301 32.0718 120.522 32.0718 120.736 32.065C121.309 32.0456 122.477 32.1473 122.863 33.2247C123.021 33.6627 123.258 34.1581 123.485 34.596C124.212 36.9168 125.972 38.5333 128.017 38.5333L128.162 38.5308L134.358 38.3037C135.889 38.2476 137.195 36.9568 137.603 35.0926C137.732 34.5068 137.823 33.9497 137.891 33.4275C138.454 32.5753 139.056 32.1099 139.056 32.1099V29.4191C139.056 29.4191 136.265 26.9099 129.976 27.4589C123.686 28.0085 121.686 29.9014 120.412 29.9014C119.138 29.9014 117.138 28.0085 110.848 27.4589C104.559 26.9099 101.768 29.4191 101.768 29.4191Z" fill="#5A3C55"/>
<path d="M107.791 102.761H103.627C103.783 102.172 103.833 101.554 103.765 100.938C103.734 100.653 103.7 100.359 103.665 100.062C104.354 100.23 105.073 100.318 105.814 100.318H105.916H109.128V100.872C109.128 101.914 108.529 102.761 107.791 102.761ZM101.443 102.761H97.327C96.5895 102.761 95.99 101.914 95.99 100.872V91.2427C95.99 90.2008 96.5895 89.353 97.327 89.353H99.5966C100.128 91.3438 100.549 93.3789 100.876 95.2418C99.0726 94.3353 97.6133 92.8442 96.7424 91.0187C96.7405 91.0917 96.7318 91.1629 96.7318 91.2365C96.7318 94.6847 98.6533 97.6843 101.485 99.2221C101.583 99.9689 101.66 100.625 101.72 101.164C101.781 101.715 101.682 102.27 101.443 102.761ZM109.128 96.2007H105.038H104.935C104.308 96.2007 103.697 96.137 103.107 96.016C102.76 93.8405 102.316 91.5596 101.748 89.353H103.462C105.969 91.1809 108.232 92.9783 109.128 94.0969V96.2007Z" fill="#C6B9C5"/>
<path d="M109.128 100.318H105.814C105.073 100.318 104.354 100.23 103.665 100.062C103.515 98.7904 103.331 97.4253 103.107 96.016C103.697 96.137 104.308 96.2007 104.935 96.2007H105.038H109.128V100.318ZM101.485 99.2221C98.6533 97.6842 96.7318 94.6846 96.7318 91.2365C96.7318 91.1629 96.7405 91.0917 96.7424 91.0187C97.6133 92.8442 99.0726 94.3353 100.876 95.2418C101.134 96.7104 101.334 98.0723 101.485 99.2221Z" fill="#B4A2AF"/>
<path d="M103.627 102.761H101.443C101.682 102.27 101.781 101.715 101.72 101.164C101.66 100.625 101.583 99.9689 101.485 99.2221C101.334 98.0723 101.134 96.7104 100.876 95.2418C100.549 93.3789 100.128 91.3438 99.5966 89.353H101.748C102.316 91.5596 102.76 93.8405 103.107 96.016C103.331 97.4253 103.515 98.7904 103.665 100.062C103.7 100.359 103.734 100.653 103.765 100.938C103.833 101.554 103.783 102.172 103.627 102.761Z" fill="#4D3148"/>
<path d="M109.128 94.0969C108.232 92.9783 105.969 91.1809 103.462 89.353H107.791C108.529 89.353 109.128 90.2008 109.128 91.2427V94.0969Z" fill="#D5CBD4"/>
<path d="M108.498 91.242C108.498 90.6905 108.182 90.2431 107.791 90.2431H97.327C96.9365 90.2431 96.6202 90.6905 96.6202 91.242V100.872C96.6202 101.423 96.9365 101.871 97.327 101.871H107.791C108.182 101.871 108.498 101.423 108.498 100.872V91.242Z" fill="#F0ECEF"/>
<path d="M97.594 97.2343C97.594 97.3809 97.6782 97.5001 97.7818 97.5001H100.109C100.212 97.5001 100.297 97.3809 100.297 97.2343V93.4892C100.297 93.3426 100.212 93.2234 100.109 93.2234H97.7818C97.6782 93.2234 97.594 93.3426 97.594 93.4892V97.2343Z" fill="#B3A0AE"/>
<path d="M101.778 96.1201C101.778 96.2673 101.862 96.3865 101.967 96.3865H104.063C104.168 96.3865 104.252 96.2673 104.252 96.1201C104.252 95.9735 104.168 95.8543 104.063 95.8543H101.967C101.862 95.8543 101.778 95.9735 101.778 96.1201Z" fill="#CABAC4"/>
<path d="M101.778 93.9272C101.778 94.0738 101.862 94.1924 101.966 94.1924H106.101C106.205 94.1924 106.289 94.0738 106.289 93.9272V93.4893C106.289 93.3427 106.205 93.2235 106.101 93.2235H101.966C101.862 93.2235 101.778 93.3427 101.778 93.4893V93.9272Z" fill="#CABAC4"/>
<path d="M107.524 96.1201C107.524 95.9735 107.441 95.8543 107.336 95.8543H105.239C105.135 95.8543 105.051 95.9735 105.051 96.1201C105.051 96.2673 105.135 96.3865 105.239 96.3865H107.336C107.44 96.3865 107.524 96.2673 107.524 96.1201Z" fill="#CABAC4"/>
<path d="M107.524 97.2343C107.524 97.0877 107.44 96.9686 107.336 96.9686H101.957C101.854 96.9686 101.77 97.0877 101.77 97.2343C101.77 97.3816 101.854 97.5001 101.957 97.5001H107.336C107.44 97.5001 107.524 97.3816 107.524 97.2343Z" fill="#CABAC4"/>
<path d="M96.6202 98.9668V100.872C96.6202 101.423 96.9365 101.871 97.327 101.871H107.791C108.182 101.871 108.498 101.423 108.498 100.872V98.9668H96.6202Z" fill="#54939B"/>
<path d="M102.936 87.3784H102.182C102.058 87.3784 101.959 87.4782 101.959 87.6011V91.8603C101.959 91.9832 102.058 92.0836 102.182 92.0836H102.936C103.059 92.0836 103.159 91.9832 103.159 91.8603V87.6011C103.159 87.4782 103.059 87.3784 102.936 87.3784Z" fill="#B3A0AE"/>
<path d="M102.971 87.3784H102.147C102.043 87.3784 101.959 87.4964 101.959 87.6436V89.7311H103.159V87.6436C103.159 87.4964 103.075 87.3784 102.971 87.3784Z" fill="#CABAC4"/>
<path d="M176.403 130.943C175.96 129.778 175.323 128.706 174.507 127.757L171.665 124.458C171.123 123.829 170.173 123.758 169.543 124.301C169.477 124.358 169.417 124.42 169.363 124.485C169.183 124.703 168.915 124.831 168.631 124.834C168.348 124.837 168.076 124.715 167.89 124.5L167.832 124.432C167.29 123.802 166.34 123.732 165.71 124.275C165.151 124.757 165.033 125.561 165.394 126.176C165.44 126.253 165.492 126.326 165.553 126.396C165.626 126.481 165.646 126.598 165.605 126.701C165.565 126.804 165.47 126.875 165.36 126.887C165.07 126.918 164.787 127.033 164.549 127.238C163.919 127.78 163.854 128.728 164.39 129.36C164.469 129.451 164.492 129.577 164.451 129.69C164.41 129.803 164.311 129.885 164.193 129.905C163.971 129.942 163.755 130.04 163.576 130.204C163.07 130.658 163.033 131.433 163.486 131.942L165.566 134.246C165.813 134.52 165.938 134.883 165.912 135.25C165.886 135.617 165.712 135.958 165.43 136.195C162.649 138.532 161.228 141.478 162.145 143.507C163.307 146.076 167.774 146.205 172.123 143.793C180.439 139.18 179.488 139.07 176.403 130.943Z" fill="#FFA898"/>
<path d="M90.6434 155.288V150.745C90.6434 150.385 90.936 150.093 91.2973 150.093H97.9671H105.83C106.191 150.093 106.484 150.385 106.484 150.745V155.288H106.412H90.6434Z" fill="#FAF9FA"/>
<path d="M90.6434 155.288H106.484L106.659 169.288C106.679 170.512 106.011 171.643 104.931 172.209C101.587 173.999 95.6831 173.989 92.361 172.199C91.3016 171.623 90.6434 170.522 90.6434 169.318V155.288Z" fill="#E1D9DF"/>
</g>
</svg>
